<?xml version="1.0" encoding="UTF-8" standalone="no"?>
<!DOCTYPE svg PUBLIC "-//W3C//DTD SVG 1.1//EN" "http://www.w3.org/Graphics/SVG/1.1/DTD/svg11.dtd">
<svg width="100%" height="100%" viewBox="0 0 600 500" version="1.1" xmlns="http://www.w3.org/2000/svg" xmlns:xlink="http://www.w3.org/1999/xlink" xml:space="preserve" xmlns:serif="http://www.serif.com/" style="fill-rule:evenodd;clip-rule:evenodd;stroke-linejoin:bevel;stroke-miterlimit:10;">
    <path d="M0.5,0.5L600.5,0.5L600.5,500.5L0.5,500.5L0.5,0.5" style="fill:white;fill-rule:nonzero;"/>
    <g transform="matrix(1,0,0,1,0.5,0.5)">
        <rect x="53" y="5" width="517" height="446" style="fill:white;"/>
    </g>
    <path d="M53.5,5.5L570.5,5.5L570.5,451.5L53.5,451.5L53.5,5.5" style="fill:white;fill-rule:nonzero;"/>
    <path d="M53.5,5.5L570.5,5.5L570.5,451.5L53.5,451.5L53.5,5.5" style="fill:none;fill-rule:nonzero;stroke:rgb(229,229,229);stroke-width:1px;"/>
    <clipPath id="_clip1">
        <path d="M53.5,5.5L570.5,5.5L570.5,451.5L53.5,451.5L53.5,5.5"/>
    </clipPath>
    <g clip-path="url(#_clip1)">
        <path d="M77.5,451.5L77.5,5.5M194.5,451.5L194.5,5.5M312.5,451.5L312.5,5.5M429.5,451.5L429.5,5.5M547.5,451.5L547.5,5.5" style="fill:none;fill-rule:nonzero;stroke:rgb(229,229,229);stroke-width:1px;"/>
    </g>
    <clipPath id="_clip2">
        <path d="M53.5,5.5L570.5,5.5L570.5,451.5L53.5,451.5L53.5,5.5"/>
    </clipPath>
    <g clip-path="url(#_clip2)">
        <path d="M53.5,435.5L570.5,435.5M53.5,353.5L570.5,353.5M53.5,271.5L570.5,271.5M53.5,189.5L570.5,189.5M53.5,107.5L570.5,107.5M53.5,25.5L570.5,25.5" style="fill:none;fill-rule:nonzero;stroke:rgb(229,229,229);stroke-width:1px;"/>
    </g>
    <clipPath id="_clip3">
        <path d="M53.5,5.5L570.5,5.5L570.5,451.5L53.5,451.5L53.5,5.5"/>
    </clipPath>
    <g clip-path="url(#_clip3)">
        <path d="M77,25.773L547,25.773" style="fill:none;fill-rule:nonzero;stroke:rgb(8,48,107);stroke-width:8px;"/>
    </g>
    <clipPath id="_clip4">
        <path d="M53.5,5.5L570.5,5.5L570.5,451.5L53.5,451.5L53.5,5.5"/>
    </clipPath>
    <g clip-path="url(#_clip4)">
        <path d="M77,360.78L86.303,347.591L94.169,334.92L100.983,322.748L106.993,311.056L112.369,299.824L117.232,289.034L121.672,278.669L125.757,268.712L129.538,259.147L133.059,249.958L136.352,241.132L139.446,232.653L142.363,224.508L145.122,216.683L147.739,209.166L150.229,201.946L152.603,195.01L154.871,188.347L157.043,181.946L159.126,175.797L161.127,169.89L163.053,164.216L164.909,158.765L166.699,153.529L168.429,148.499L170.103,143.667L171.723,139.025L173.293,134.566L174.816,130.283L176.296,126.168L177.733,122.215L179.131,118.418L180.492,114.771L181.818,111.267L183.109,107.901L184.37,104.667L185.599,101.561L186.8,98.577L187.973,95.711L189.12,92.957L190.241,90.312L191.339,87.771L192.413,85.33L193.465,82.985L194.496,80.732L195.507,78.569L196.498,76.49L197.47,74.493L198.424,72.575L199.36,70.732L200.279,68.962L201.183,67.262L202.07,65.628L202.942,64.059L203.8,62.552L204.644,61.103L205.473,59.712L206.29,58.376L207.093,57.093L207.885,55.859L208.664,54.675L209.431,53.537L210.187,52.444L210.932,51.394L211.666,50.385L212.39,49.416L213.104,48.485L213.808,47.591L214.502,46.732L215.187,45.907L215.863,45.114L216.53,44.352L217.188,43.621L217.838,42.918L218.48,42.243L219.114,41.595L219.74,40.972L220.359,40.373L220.97,39.798L221.574,39.246L222.171,38.716L222.761,38.206L223.344,37.717L223.921,37.246L224.491,36.795L225.055,36.361L225.612,35.944L226.164,35.543L226.71,35.159L227.25,34.789L227.784,34.434L228.313,34.093L228.836,33.766L229.354,33.451L229.867,33.149L230.375,32.858L230.878,32.579L231.376,32.311L231.869,32.054L232.357,31.806L232.841,31.569L233.32,31.341L233.794,31.121L234.265,30.911L234.731,30.709L235.193,30.514L235.65,30.328L236.104,30.148L236.553,29.976L236.999,29.81L237.441,29.652L237.879,29.499L238.313,29.352L238.744,29.211L239.171,29.076L239.594,28.946L240.014,28.821L240.431,28.701L240.844,28.586L241.254,28.475L241.661,28.368L242.064,28.266L242.464,28.168L242.861,28.074L243.255,27.983L243.646,27.896L244.035,27.812L244.42,27.732L244.802,27.655L245.181,27.581L245.558,27.51L245.932,27.441L246.303,27.376L246.671,27.313L247.037,27.252L247.4,27.194L247.761,27.138L248.119,27.084L248.475,27.032L248.828,26.983L249.179,26.935L249.527,26.889L249.873,26.845L250.216,26.803L250.558,26.763L250.897,26.724L251.234,26.686L251.568,26.65L251.901,26.616L252.231,26.582L252.559,26.551L252.885,26.52L253.209,26.491L253.531,26.462L253.851,26.435L254.169,26.409L254.485,26.384L254.799,26.36L255.111,26.337L255.421,26.315L255.73,26.293L256.036,26.273L256.341,26.253L256.644,26.234L256.945,26.216L257.244,26.199L257.542,26.182L257.837,26.166L258.132,26.15L258.424,26.135L258.715,26.121L259.004,26.107L259.291,26.094L259.577,26.082L259.862,26.069L260.144,26.058L260.425,26.046L260.705,26.036L260.983,26.025L261.26,26.015L261.535,26.006L261.808,25.997L262.081,25.988L262.351,25.979L262.621,25.971L262.888,25.963L263.155,25.956L263.42,25.949L263.684,25.942L263.946,25.935L264.207,25.929L264.467,25.923L264.725,25.917L264.982,25.911L265.238,25.906L265.493,25.9L265.746,25.895L265.998,25.89L266.249,25.886L266.498,25.881L266.746,25.877L266.994,25.873L267.239,25.869L267.484,25.865L267.728,25.862L267.97,25.858L268.211,25.855L268.452,25.852L268.691,25.848L268.929,25.845L269.165,25.843L269.401,25.84L269.636,25.837L269.869,25.835L270.102,25.832L270.333,25.83L270.564,25.828L270.793,25.825L271.021,25.823L271.248,25.821L271.475,25.819L271.7,25.818L271.924,25.816L272.148,25.814L272.37,25.813L272.591,25.811L272.812,25.809L273.031,25.808L273.25,25.807L273.467,25.805L273.684,25.804L273.9,25.803L274.115,25.802L274.329,25.8L274.542,25.799L274.754,25.798L274.965,25.797L275.176,25.796L275.385,25.795L275.594,25.795L275.802,25.794L276.009,25.793L276.215,25.792L276.42,25.791L276.625,25.791L276.829,25.79L277.032,25.789L277.234,25.789L277.435,25.788L277.635,25.787L277.835,25.787L278.034,25.786L278.232,25.786L278.43,25.785L278.626,25.785L278.822,25.784L279.017,25.784L279.212,25.783L279.405,25.783L279.598,25.782L279.791,25.782L279.982,25.782L280.173,25.781L280.363,25.781L280.552,25.781L280.929,25.78L281.303,25.78L281.674,25.779L282.042,25.779L282.408,25.778L282.771,25.778L283.132,25.777L283.49,25.777L283.846,25.777L284.199,25.776L284.549,25.776L284.898,25.776L285.244,25.776L285.758,25.775L286.268,25.775L286.772,25.775L287.272,25.774L287.93,25.774L288.418,25.774L289.062,25.774L289.856,25.774L290.638,25.773L291.56,25.773L292.466,25.773L293.208,25.773L294.519,25.773L296.076,25.773L297.043,25.773L298.393,25.773L300.864,25.773L302.733,25.773L304.654,25.773L306.733,25.773L307.962,25.773L310.019,25.773L547,25.773" style="fill:none;fill-rule:nonzero;stroke:rgb(22,99,170);stroke-width:8px;"/>
    </g>
    <clipPath id="_clip5">
        <path d="M53.5,5.5L570.5,5.5L570.5,451.5L53.5,451.5L53.5,5.5"/>
    </clipPath>
    <g clip-path="url(#_clip5)">
        <path d="M77,424.32L86.303,422.159L94.169,420.01L100.983,417.873L106.993,415.747L112.369,413.633L117.232,411.53L121.672,409.439L125.757,407.359L129.538,405.29L133.059,403.233L136.352,401.186L139.446,399.151L142.363,397.127L145.122,395.114L147.739,393.111L150.229,391.12L152.603,389.139L154.871,387.169L157.043,385.21L159.126,383.261L161.127,381.323L163.053,379.396L164.909,377.479L166.699,375.572L168.429,373.675L170.103,371.789L171.723,369.913L173.293,368.048L174.816,366.192L176.296,364.347L177.733,362.511L179.131,360.685L180.492,358.87L181.818,357.064L183.109,355.268L184.37,353.482L185.599,351.705L186.8,349.938L187.973,348.18L189.12,346.433L190.241,344.694L191.339,342.965L192.413,341.246L193.465,339.535L194.496,337.834L195.507,336.142L196.498,334.46L197.47,332.786L198.424,331.122L199.36,329.466L200.279,327.82L201.183,326.182L202.07,324.554L202.942,322.934L203.8,321.323L204.644,319.721L205.473,318.127L206.29,316.542L207.093,314.966L207.885,313.398L208.664,311.839L209.431,310.288L210.187,308.745L210.932,307.211L211.666,305.685L212.39,304.168L213.104,302.659L213.808,301.157L214.502,299.665L215.187,298.18L215.863,296.703L216.53,295.234L217.188,293.773L217.838,292.32L218.48,290.875L219.114,289.438L219.74,288.009L220.359,286.587L220.97,285.173L221.574,283.767L222.171,282.368L222.761,280.977L223.344,279.593L223.921,278.217L224.491,276.849L225.055,275.487L225.612,274.134L226.164,272.787L226.71,271.448L227.25,270.116L227.784,268.791L228.313,267.474L228.836,266.164L229.354,264.86L229.867,263.564L230.375,262.275L230.878,260.993L231.376,259.718L231.869,258.449L232.357,257.188L232.841,255.933L233.32,254.685L233.794,253.444L234.265,252.21L234.731,250.983L235.193,249.762L235.65,248.547L236.104,247.34L236.553,246.138L236.999,244.944L237.441,243.755L237.879,242.574L238.313,241.398L238.744,240.229L239.171,239.067L239.594,237.91L240.014,236.76L240.431,235.616L240.844,234.479L241.254,233.347L241.661,232.222L242.064,231.103L242.464,229.99L242.861,228.882L243.255,227.781L243.646,226.686L244.035,225.597L244.42,224.514L244.802,223.436L245.181,222.364L245.558,221.299L245.932,220.239L246.303,219.184L246.671,218.136L247.037,217.093L247.4,216.056L247.761,215.024L248.119,213.998L248.475,212.978L248.828,211.963L249.179,210.953L249.527,209.949L249.873,208.951L250.216,207.958L250.558,206.97L250.897,205.988L251.234,205.011L251.568,204.039L251.901,203.073L252.231,202.111L252.559,201.155L252.885,200.205L253.209,199.259L253.531,198.318L253.851,197.383L254.169,196.453L254.485,195.527L254.799,194.607L255.111,193.692L255.421,192.781L255.73,191.876L256.036,190.975L256.341,190.08L256.644,189.189L256.945,188.303L257.244,187.422L257.542,186.546L257.837,185.674L258.132,184.807L258.424,183.945L258.715,183.087L259.004,182.235L259.291,181.386L259.577,180.543L259.862,179.704L260.144,178.869L260.425,178.039L260.705,177.214L260.983,176.393L261.26,175.576L261.535,174.764L261.808,173.956L262.081,173.153L262.351,172.354L262.621,171.559L262.888,170.769L263.155,169.983L263.42,169.201L263.684,168.423L263.946,167.65L264.207,166.881L264.467,166.116L264.725,165.355L264.982,164.598L265.238,163.845L265.493,163.097L265.746,162.352L265.998,161.612L266.249,160.876L266.498,160.143L266.746,159.415L266.994,158.69L267.239,157.97L267.484,157.253L267.728,156.54L267.97,155.831L268.211,155.126L268.452,154.425L268.691,153.727L268.929,153.034L269.165,152.344L269.401,151.657L269.636,150.975L269.869,150.296L270.102,149.621L270.333,148.95L270.564,148.282L270.793,147.618L271.021,146.957L271.248,146.3L271.475,145.647L271.7,144.997L271.924,144.351L272.148,143.708L272.37,143.068L272.591,142.432L272.812,141.8L273.031,141.171L273.25,140.545L273.467,139.923L273.684,139.304L273.9,138.689L274.115,138.077L274.329,137.468L274.542,136.862L274.754,136.26L274.965,135.661L275.176,135.065L275.385,134.473L275.594,133.883L275.802,133.297L276.009,132.714L276.215,132.135L276.42,131.558L276.625,130.984L276.829,130.414L277.032,129.847L277.234,129.283L277.435,128.721L277.635,128.163L277.835,127.608L278.034,127.056L278.232,126.507L278.43,125.961L278.626,125.418L278.822,124.877L279.017,124.34L279.212,123.806L279.405,123.274L279.598,122.746L279.791,122.22L279.982,121.697L280.173,121.177L280.363,120.66L280.552,120.145L280.741,119.634L280.929,119.125L281.116,118.619L281.303,118.115L281.489,117.615L281.674,117.117L281.858,116.622L282.042,116.129L282.225,115.639L282.408,115.152L282.59,114.668L282.771,114.186L282.952,113.706L283.132,113.23L283.311,112.755L283.49,112.284L283.668,111.815L283.846,111.348L284.023,110.885L284.199,110.423L284.374,109.964L284.549,109.508L284.724,109.054L284.898,108.602L285.071,108.153L285.244,107.707L285.416,107.262L285.587,106.821L285.758,106.381L285.929,105.944L286.099,105.51L286.268,105.077L286.437,104.647L286.605,104.22L286.772,103.794L286.939,103.371L287.106,102.951L287.272,102.532L287.437,102.116L287.602,101.702L287.766,101.291L287.93,100.881L288.093,100.474L288.256,100.069L288.418,99.666L288.58,99.266L288.741,98.867L288.902,98.471L289.062,98.077L289.222,97.685L289.381,97.295L289.54,96.907L289.698,96.522L289.856,96.138L290.013,95.757L290.17,95.377L290.326,95L290.482,94.625L290.638,94.251L290.792,93.88L290.947,93.511L291.101,93.144L291.254,92.778L291.407,92.415L291.56,92.054L291.712,91.694L291.864,91.337L292.015,90.982L292.165,90.628L292.316,90.276L292.466,89.927L292.615,89.579L292.764,89.233L292.913,88.889L293.061,88.547L293.208,88.206L293.356,87.868L293.503,87.531L293.649,87.197L293.795,86.864L293.941,86.532L294.086,86.203L294.231,85.875L294.375,85.549L294.519,85.225L294.662,84.903L294.806,84.583L294.948,84.264L295.091,83.947L295.233,83.631L295.374,83.318L295.515,83.006L295.656,82.695L295.796,82.387L295.936,82.08L296.076,81.775L296.215,81.471L296.354,81.169L296.493,80.869L296.631,80.57L296.768,80.273L296.906,79.977L297.043,79.684L297.179,79.391L297.316,79.101L297.452,78.811L297.587,78.524L297.722,78.238L297.857,77.953L297.992,77.671L298.126,77.389L298.259,77.109L298.393,76.831L298.526,76.554L298.659,76.279L298.791,76.005L298.923,75.733L299.055,75.462L299.186,75.193L299.317,74.925L299.448,74.658L299.578,74.393L299.708,74.13L299.838,73.867L299.967,73.607L300.096,73.347L300.225,73.089L300.353,72.833L300.481,72.578L300.609,72.324L300.736,72.072L300.864,71.821L300.99,71.571L301.117,71.323L301.243,71.076L301.369,70.83L301.494,70.586L301.62,70.343L301.744,70.101L301.869,69.861L301.993,69.622L302.117,69.384L302.241,69.148L302.365,68.913L302.488,68.679L302.61,68.446L302.733,68.215L302.855,67.985L302.977,67.756L303.099,67.528L303.22,67.302L303.341,67.077L303.462,66.853L303.582,66.63L303.703,66.409L303.823,66.188L303.942,65.969L304.062,65.751L304.181,65.535L304.3,65.319L304.418,65.105L304.536,64.891L304.654,64.679L304.772,64.468L304.889,64.259L305.007,64.05L305.124,63.842L305.24,63.636L305.357,63.431L305.473,63.227L305.589,63.024L305.704,62.822L305.819,62.621L305.934,62.421L306.049,62.222L306.164,62.025L306.278,61.828L306.392,61.633L306.506,61.438L306.619,61.245L306.733,61.053L306.846,60.861L306.959,60.671L307.071,60.482L307.183,60.294L307.295,60.107L307.407,59.92L307.519,59.735L307.63,59.551L307.741,59.368L307.852,59.186L307.962,59.005L308.073,58.825L308.183,58.645L308.293,58.467L308.402,58.29L308.512,58.114L308.621,57.938L308.73,57.764L308.838,57.591L308.947,57.418L309.055,57.246L309.163,57.076L309.271,56.906L309.378,56.737L309.486,56.569L309.593,56.403L309.7,56.236L309.806,56.071L309.913,55.907L310.019,55.744L310.125,55.581L310.231,55.42L310.336,55.259L310.442,55.099L310.547,54.94L310.652,54.782L310.756,54.625L310.861,54.468L310.965,54.313L311.069,54.158L311.173,54.004L311.276,53.851L311.38,53.699L311.483,53.547L311.586,53.397L311.689,53.247L311.791,53.098L311.894,52.95L311.996,52.803L312.098,52.656L312.2,52.51L312.301,52.365L312.403,52.221L312.504,52.078L312.605,51.935L312.705,51.793L312.806,51.652L312.906,51.512L313.006,51.372L313.106,51.234L313.206,51.096L313.306,50.958L313.405,50.822L313.504,50.686L313.603,50.551L313.702,50.417L313.801,50.283L313.899,50.15L313.997,50.018L314.095,49.887L314.193,49.756L314.291,49.626L314.388,49.496L314.486,49.368L314.583,49.24L314.68,49.113L314.776,48.986L314.873,48.86L314.969,48.735L315.066,48.611L315.162,48.487L315.257,48.364L315.353,48.241L315.449,48.119L315.544,47.998L315.639,47.878L315.734,47.758L315.829,47.639L315.923,47.52L316.018,47.402L316.112,47.285L316.206,47.168L316.3,47.052L316.394,46.937L316.487,46.822L316.58,46.708L316.674,46.595L316.767,46.482L316.86,46.37L316.952,46.258L317.045,46.147L317.137,46.036L317.229,45.926L317.321,45.817L317.413,45.709L317.505,45.6L317.596,45.493L317.688,45.386L317.779,45.28L317.87,45.174L317.961,45.069L318.052,44.964L318.142,44.86L318.233,44.757L318.323,44.654L318.413,44.551L318.503,44.45L318.593,44.348L318.682,44.248L318.772,44.147L318.861,44.048L318.95,43.949L319.039,43.85L319.128,43.752L319.217,43.655L319.305,43.558L319.393,43.461L319.482,43.365L319.57,43.27L319.658,43.175L319.745,43.081L319.833,42.987L319.92,42.894L320.008,42.801L320.095,42.709L320.182,42.617L320.269,42.525L320.356,42.435L320.442,42.344L320.529,42.254L320.615,42.165L320.701,42.076L320.787,41.988L320.873,41.9L320.958,41.813L321.044,41.726L321.129,41.639L321.215,41.553L321.3,41.468L321.385,41.382L321.47,41.298L321.554,41.214L321.639,41.13L321.723,41.047L321.807,40.964L321.892,40.882L321.976,40.8L322.06,40.718L322.143,40.637L322.227,40.557L322.31,40.476L322.394,40.397L322.477,40.317L322.56,40.239L322.643,40.16L322.725,40.082L322.808,40.005L322.891,39.927L322.973,39.851L323.055,39.774L323.137,39.698L323.219,39.623L323.301,39.548L323.383,39.473L323.464,39.399L323.546,39.325L323.627,39.252L323.708,39.178L323.789,39.106L323.87,39.033L323.951,38.962L324.032,38.89L324.112,38.819L324.193,38.748L324.273,38.678L324.353,38.608L324.433,38.538L324.513,38.469L324.593,38.4L324.673,38.332L324.752,38.264L324.832,38.196L324.911,38.129L324.99,38.062L325.069,37.995L325.148,37.929L325.227,37.863L325.306,37.797L325.384,37.732L325.463,37.667L325.541,37.603L325.619,37.539L325.697,37.475L325.775,37.412L325.853,37.348L325.931,37.286L326.009,37.223L326.086,37.161L326.163,37.099L326.241,37.038L326.318,36.977L326.395,36.916L326.472,36.856L326.549,36.796L326.625,36.736L326.702,36.676L326.778,36.617L326.855,36.559L326.931,36.5L327.007,36.442L327.083,36.384L327.159,36.327L327.234,36.269L327.31,36.212L327.386,36.156L327.461,36.1L327.536,36.044L327.612,35.988L327.687,35.933L327.762,35.877L327.837,35.823L327.911,35.768L327.986,35.714L328.061,35.66L328.135,35.606L328.209,35.553L328.284,35.5L328.358,35.447L328.432,35.395L328.506,35.343L328.579,35.291L328.653,35.239L328.727,35.188L328.8,35.137L328.874,35.086L328.947,35.036L329.02,34.985L329.093,34.936L329.166,34.886L329.239,34.836L329.312,34.787L329.384,34.738L329.457,34.69L329.529,34.641L329.602,34.593L329.674,34.546L329.746,34.498L329.818,34.451L329.89,34.404L329.962,34.357L330.033,34.31L330.105,34.264L330.177,34.218L330.248,34.172L330.319,34.127L330.39,34.081L330.462,34.036L330.533,33.992L330.604,33.947L330.674,33.903L330.745,33.859L330.816,33.815L330.886,33.771L330.957,33.728L331.027,33.685L331.097,33.642L331.167,33.599L331.237,33.557L331.307,33.515L331.377,33.473L331.447,33.431L331.517,33.389L331.586,33.348L331.656,33.307L331.725,33.266L331.794,33.225L331.864,33.185L331.933,33.145L332.002,33.105L332.071,33.065L332.139,33.026L332.208,32.986L332.277,32.947L332.345,32.908L332.414,32.87L332.482,32.831L332.55,32.793L332.619,32.755L332.687,32.717L332.755,32.679L332.823,32.642L332.89,32.605L332.958,32.568L333.026,32.531L333.093,32.494L333.161,32.458L333.228,32.421L333.295,32.385L333.363,32.35L333.43,32.314L333.497,32.278L333.564,32.243L333.63,32.208L333.697,32.173L333.764,32.138L333.83,32.104L333.897,32.07L333.963,32.036L334.03,32.002L334.096,31.968L334.162,31.934L334.228,31.901L334.294,31.868L334.36,31.835L334.426,31.802L334.491,31.769L334.557,31.736L334.623,31.704L334.688,31.672L334.753,31.64L334.819,31.608L334.884,31.577L334.949,31.545L335.014,31.514L335.079,31.483L335.144,31.452L335.209,31.421L335.274,31.39L335.338,31.36L335.403,31.33L335.467,31.299L335.532,31.269L335.596,31.24L335.66,31.21L335.724,31.181L335.788,31.151L335.852,31.122L335.916,31.093L335.98,31.064L336.044,31.036L336.107,31.007L336.171,30.979L336.235,30.95L336.298,30.922L336.361,30.894L336.425,30.867L336.488,30.839L336.551,30.812L336.614,30.784L336.677,30.757L336.74,30.73L336.803,30.703L336.865,30.676L336.928,30.65L336.991,30.623L337.053,30.597L337.115,30.571L337.178,30.545L337.24,30.519L337.302,30.493L337.364,30.468L337.426,30.442L337.488,30.417L337.55,30.392L337.612,30.367L337.674,30.342L337.736,30.317L337.797,30.292L337.859,30.268L337.92,30.244L337.981,30.219L338.043,30.195L338.104,30.171L338.165,30.147L338.226,30.124L338.287,30.1L338.348,30.077L338.409,30.053L338.47,30.03L338.53,30.007L338.591,29.984L338.652,29.961L338.712,29.939L338.773,29.916L338.833,29.894L338.893,29.871L338.953,29.849L339.014,29.827L339.074,29.805L339.134,29.783L339.194,29.761L339.253,29.74L339.313,29.718L339.373,29.697L339.433,29.675L339.492,29.654L339.552,29.633L339.611,29.612L339.671,29.592L339.73,29.571L339.789,29.55L339.848,29.53L339.907,29.509L339.966,29.489L340.025,29.469L340.084,29.449L340.143,29.429L340.202,29.409L340.26,29.389L340.319,29.37L340.378,29.35L340.436,29.331L340.495,29.312L340.553,29.292L340.611,29.273L340.669,29.254L340.728,29.236L340.786,29.217L340.844,29.198L340.902,29.18L340.96,29.161L341.017,29.143L341.075,29.124L341.133,29.106L341.19,29.088L341.248,29.07L341.305,29.052L341.363,29.035L341.42,29.017L341.478,28.999L341.535,28.982L341.592,28.964L341.649,28.947L341.706,28.93L341.763,28.913L341.82,28.896L341.877,28.879L341.934,28.862L341.99,28.845L342.047,28.829L342.104,28.812L342.16,28.796L342.217,28.779L342.273,28.763L342.33,28.747L342.386,28.731L342.442,28.714L342.498,28.699L342.554,28.683L342.61,28.667L342.666,28.651L342.722,28.636L342.778,28.62L342.834,28.605L342.89,28.589L342.945,28.574L343.001,28.559L343.057,28.544L343.112,28.529L343.167,28.514L343.223,28.499L343.278,28.484L343.333,28.469L343.389,28.455L343.444,28.44L343.499,28.426L343.554,28.411L343.609,28.397L343.664,28.383L343.719,28.369L343.773,28.355L343.828,28.341L343.883,28.327L343.937,28.313L343.992,28.299L344.046,28.285L344.101,28.272L344.155,28.258L344.209,28.245L344.264,28.231L344.318,28.218L344.372,28.205L344.426,28.192L344.48,28.178L344.534,28.165L344.588,28.152L344.642,28.14L344.696,28.127L344.749,28.114L344.803,28.101L344.857,28.089L344.91,28.076L344.964,28.064L345.017,28.051L345.071,28.039L345.124,28.027L345.177,28.014L345.231,28.002L345.284,27.99L345.337,27.978L345.39,27.966L345.443,27.954L345.496,27.942L345.549,27.931L345.602,27.919L345.655,27.907L345.707,27.896L345.76,27.884L345.813,27.873L345.865,27.861L345.918,27.85L345.97,27.839L346.023,27.828L346.075,27.816L346.127,27.805L346.18,27.794L346.232,27.783L346.284,27.773L346.336,27.762L346.388,27.751L346.44,27.74L346.492,27.729L346.544,27.719L346.596,27.708L346.647,27.698L346.699,27.687L346.751,27.677L346.803,27.667L346.854,27.656L346.906,27.646L347.008,27.626L347.111,27.606L347.162,27.596L347.214,27.586L347.265,27.576L347.316,27.566L347.367,27.557L347.418,27.547L347.469,27.537L347.52,27.528L347.571,27.518L347.621,27.509L347.672,27.5L347.774,27.481L347.875,27.462L347.976,27.444L348.026,27.435L348.127,27.417L348.227,27.399L348.277,27.39L348.377,27.373L348.477,27.356L348.527,27.347L348.627,27.33L348.727,27.313L348.776,27.305L348.875,27.288L348.974,27.272L349.073,27.256L349.172,27.24L349.27,27.224L349.368,27.208L349.466,27.193L349.564,27.177L349.662,27.162L349.759,27.147L349.857,27.132L349.954,27.117L350.051,27.103L350.147,27.089L350.244,27.074L350.34,27.06L350.437,27.046L350.533,27.033L350.628,27.019L350.724,27.005L350.82,26.992L350.915,26.979L351.01,26.966L351.105,26.953L351.2,26.94L351.294,26.928L351.389,26.915L351.483,26.903L351.577,26.891L351.671,26.878L351.765,26.866L351.858,26.855L351.952,26.843L352.045,26.831L352.138,26.82L352.231,26.809L352.323,26.797L352.416,26.786L352.508,26.775L352.6,26.765L352.692,26.754L352.784,26.743L352.876,26.733L352.967,26.722L353.059,26.712L353.15,26.702L353.241,26.692L353.332,26.682L353.423,26.672L353.513,26.662L353.604,26.653L353.694,26.643L353.784,26.634L353.874,26.625L353.964,26.615L354.053,26.606L354.143,26.597L354.232,26.588L354.321,26.579L354.41,26.571L354.499,26.562L354.588,26.554L354.676,26.545L354.764,26.537L354.853,26.528L354.941,26.52L355.029,26.512L355.116,26.504L355.204,26.496L355.292,26.489L355.379,26.481L355.466,26.473L355.553,26.466L355.683,26.454L355.813,26.443L355.9,26.436L355.986,26.429L356.072,26.422L356.158,26.415L356.244,26.408L356.329,26.401L356.415,26.394L356.5,26.387L356.628,26.377L356.713,26.371L356.841,26.361L356.968,26.352L357.094,26.342L357.221,26.333L357.347,26.324L357.472,26.315L357.598,26.306L357.723,26.298L357.848,26.289L357.972,26.281L358.096,26.273L358.22,26.265L358.344,26.257L358.467,26.249L358.59,26.241L358.713,26.234L358.835,26.226L358.958,26.219L359.079,26.212L359.201,26.204L359.322,26.197L359.443,26.191L359.564,26.184L359.684,26.177L359.804,26.171L359.924,26.164L360.044,26.158L360.163,26.152L360.282,26.146L360.401,26.139L360.519,26.134L360.637,26.128L360.755,26.122L360.873,26.116L360.99,26.111L361.107,26.105L361.263,26.098L361.418,26.091L361.573,26.084L361.727,26.078L361.881,26.071L362.034,26.065L362.187,26.058L362.34,26.052L362.492,26.046L362.643,26.04L362.794,26.035L362.945,26.029L363.095,26.023L363.245,26.018L363.394,26.013L363.543,26.008L363.692,26.003L363.84,25.998L363.987,25.993L364.134,25.988L364.318,25.982L364.464,25.978L364.646,25.972L364.828,25.967L365.009,25.962L365.189,25.957L365.369,25.952L365.548,25.947L365.726,25.942L365.904,25.938L366.081,25.933L366.257,25.929L366.433,25.925L366.643,25.92L366.853,25.915L367.061,25.911L367.269,25.906L367.476,25.902L367.682,25.898L367.887,25.894L368.092,25.89L368.295,25.886L368.532,25.882L368.734,25.878L368.968,25.874L369.201,25.871L369.434,25.867L369.665,25.863L369.928,25.86L370.157,25.856L370.418,25.853L370.677,25.849L370.935,25.846L371.159,25.843L371.415,25.84L371.701,25.837L371.985,25.834L372.268,25.831L372.549,25.828L372.859,25.825L373.168,25.823L373.475,25.82L373.78,25.817L374.113,25.815L374.415,25.813L374.744,25.81L375.071,25.808L375.396,25.806L375.778,25.804L376.157,25.802L376.561,25.8L376.992,25.797L377.39,25.796L377.813,25.794L378.233,25.792L378.677,25.791L379.09,25.789L379.581,25.788L380.04,25.786L380.628,25.785L381.157,25.784L381.655,25.782L382.225,25.781L382.814,25.78L383.523,25.779L384.296,25.778L384.96,25.778L385.615,25.777L386.428,25.776L387.416,25.775L388.658,25.775L389.558,25.774L390.466,25.774L391.55,25.774L393.073,25.773L395.135,25.773L396.303,25.773L397.977,25.773L399.707,25.773L401.168,25.773L402.484,25.773L403.768,25.773L404.937,25.773L406.306,25.773L407.982,25.773L410.025,25.773L412.105,25.773L547,25.773" style="fill:none;fill-rule:nonzero;stroke:rgb(72,150,200);stroke-width:8px;"/>
    </g>
    <clipPath id="_clip6">
        <path d="M53.5,5.5L570.5,5.5L570.5,451.5L53.5,451.5L53.5,5.5"/>
    </clipPath>
    <g clip-path="url(#_clip6)">
        <path d="M77,430.801L86.303,429.907L94.169,429.015L100.983,428.124L106.993,427.236L112.369,426.35L117.232,425.465L121.672,424.583L125.757,423.703L129.538,422.824L133.059,421.947L136.352,421.073L139.446,420.2L142.363,419.329L145.122,418.46L147.739,417.594L150.229,416.728L152.603,415.865L154.871,415.004L157.043,414.145L159.126,413.287L161.127,412.432L163.053,411.578L164.909,410.727L166.699,409.877L168.429,409.029L170.103,408.183L171.723,407.338L173.293,406.496L174.816,405.655L176.296,404.817L177.733,403.98L179.131,403.145L180.492,402.312L181.818,401.48L183.109,400.651L184.37,399.823L185.599,398.998L186.8,398.174L187.973,397.351L189.12,396.531L190.241,395.713L191.339,394.896L192.413,394.081L193.465,393.268L194.496,392.456L195.507,391.647L196.498,390.839L197.47,390.033L198.424,389.229L199.36,388.427L200.279,387.626L201.183,386.827L202.07,386.03L202.942,385.235L203.8,384.441L204.644,383.649L205.473,382.859L206.29,382.071L207.093,381.284L207.885,380.499L208.664,379.716L209.431,378.935L210.187,378.155L210.932,377.377L211.666,376.601L212.39,375.826L213.104,375.053L213.808,374.282L214.502,373.513L215.187,372.745L215.863,371.979L216.53,371.215L217.188,370.452L217.838,369.691L218.48,368.932L219.114,368.174L219.74,367.418L220.359,366.664L220.97,365.912L221.574,365.161L222.171,364.411L222.761,363.664L223.344,362.918L223.921,362.173L224.491,361.431L225.055,360.69L225.612,359.95L226.164,359.213L226.71,358.476L227.25,357.742L227.784,357.009L228.313,356.278L228.836,355.548L229.354,354.82L229.867,354.094L230.375,353.369L230.878,352.646L231.376,351.924L231.869,351.204L232.357,350.485L232.841,349.768L233.32,349.053L233.794,348.339L234.265,347.627L234.731,346.917L235.193,346.208L235.65,345.5L236.104,344.794L236.553,344.09L236.999,343.387L237.441,342.686L237.879,341.987L238.313,341.288L238.744,340.592L239.171,339.897L239.594,339.203L240.014,338.511L240.431,337.821L240.844,337.132L241.254,336.445L241.661,335.759L242.064,335.074L242.464,334.392L242.861,333.71L243.255,333.03L243.646,332.352L244.035,331.675L244.42,331L244.802,330.326L245.181,329.654L245.558,328.983L245.932,328.313L246.303,327.645L246.671,326.979L247.037,326.314L247.4,325.65L247.761,324.988L248.119,324.328L248.475,323.669L248.828,323.011L249.179,322.355L249.527,321.7L249.873,321.047L250.216,320.395L250.558,319.744L250.897,319.095L251.234,318.448L251.568,317.802L251.901,317.157L252.231,316.514L252.559,315.872L252.885,315.231L253.209,314.592L253.531,313.955L253.851,313.318L254.169,312.684L254.485,312.05L254.799,311.418L255.111,310.787L255.421,310.158L255.73,309.53L256.036,308.904L256.341,308.279L256.644,307.655L256.945,307.033L257.244,306.412L257.542,305.792L257.837,305.174L258.132,304.557L258.424,303.942L258.715,303.328L259.004,302.715L259.291,302.103L259.577,301.493L259.862,300.885L260.144,300.277L260.425,299.671L260.705,299.067L260.983,298.463L261.26,297.861L261.535,297.261L261.808,296.661L262.081,296.063L262.351,295.466L262.621,294.871L262.888,294.277L263.155,293.684L263.42,293.093L263.684,292.502L263.946,291.914L264.207,291.326L264.467,290.74L264.725,290.155L264.982,289.571L265.238,288.989L265.493,288.408L265.746,287.828L265.998,287.249L266.249,286.672L266.498,286.096L266.746,285.521L266.994,284.948L267.239,284.376L267.484,283.805L267.728,283.235L267.97,282.667L268.211,282.099L268.452,281.534L268.691,280.969L268.929,280.406L269.165,279.843L269.401,279.282L269.636,278.723L269.869,278.164L270.102,277.607L270.333,277.051L270.564,276.496L270.793,275.943L271.021,275.391L271.248,274.839L271.475,274.29L271.7,273.741L271.924,273.193L272.148,272.647L272.37,272.102L272.591,271.558L272.812,271.016L273.031,270.474L273.25,269.934L273.467,269.395L273.684,268.857L273.9,268.321L274.115,267.785L274.329,267.251L274.542,266.718L274.754,266.186L274.965,265.655L275.176,265.125L275.385,264.597L275.594,264.07L275.802,263.544L276.009,263.019L276.215,262.495L276.42,261.972L276.625,261.451L276.829,260.93L277.032,260.411L277.234,259.893L277.435,259.376L277.635,258.861L277.835,258.346L278.034,257.833L278.232,257.32L278.43,256.809L278.626,256.299L278.822,255.79L279.017,255.282L279.212,254.776L279.405,254.27L279.598,253.766L279.791,253.262L279.982,252.76L280.173,252.259L280.363,251.759L280.552,251.26L280.741,250.762L280.929,250.265L281.116,249.77L281.303,249.275L281.489,248.782L281.674,248.289L281.858,247.798L282.042,247.308L282.225,246.819L282.408,246.331L282.59,245.844L282.771,245.358L282.952,244.873L283.132,244.39L283.311,243.907L283.49,243.425L283.668,242.945L283.846,242.465L284.023,241.987L284.199,241.51L284.374,241.033L284.549,240.558L284.724,240.084L284.898,239.611L285.071,239.139L285.244,238.668L285.416,238.198L285.587,237.729L285.758,237.261L285.929,236.794L286.099,236.328L286.268,235.863L286.437,235.399L286.605,234.937L286.772,234.475L286.939,234.014L287.106,233.554L287.272,233.096L287.437,232.638L287.602,232.181L287.766,231.725L287.93,231.271L288.093,230.817L288.256,230.364L288.418,229.913L288.58,229.462L288.741,229.012L288.902,228.564L289.062,228.116L289.222,227.669L289.381,227.223L289.54,226.779L289.698,226.335L289.856,225.892L290.013,225.45L290.17,225.01L290.326,224.57L290.482,224.131L290.638,223.693L290.792,223.256L290.947,222.82L291.101,222.385L291.254,221.951L291.407,221.518L291.56,221.086L291.712,220.654L291.864,220.224L292.015,219.795L292.165,219.366L292.316,218.939L292.466,218.513L292.615,218.087L292.764,217.663L292.913,217.239L293.061,216.816L293.208,216.394L293.356,215.974L293.503,215.554L293.649,215.135L293.795,214.717L293.941,214.299L294.086,213.883L294.231,213.468L294.375,213.054L294.519,212.64L294.662,212.228L294.806,211.816L294.948,211.405L295.091,210.995L295.233,210.586L295.374,210.178L295.515,209.771L295.656,209.365L295.796,208.96L295.936,208.555L296.076,208.152L296.215,207.749L296.354,207.347L296.493,206.947L296.631,206.547L296.768,206.147L296.906,205.749L297.043,205.352L297.179,204.955L297.316,204.56L297.452,204.165L297.587,203.771L297.722,203.378L297.857,202.986L297.992,202.595L298.126,202.205L298.259,201.815L298.393,201.426L298.526,201.039L298.659,200.652L298.791,200.266L298.923,199.88L299.055,199.496L299.186,199.113L299.317,198.73L299.448,198.348L299.578,197.967L299.708,197.587L299.838,197.208L299.967,196.829L300.096,196.451L300.225,196.075L300.353,195.699L300.481,195.323L300.609,194.949L300.736,194.576L300.864,194.203L300.99,193.831L301.117,193.46L301.243,193.09L301.369,192.72L301.494,192.352L301.62,191.984L301.744,191.617L301.993,190.886L302.117,190.521L302.241,190.157L302.365,189.795L302.488,189.432L302.733,188.711L302.977,187.992L303.099,187.634L303.22,187.276L303.341,186.92L303.462,186.564L303.582,186.209L303.703,185.855L303.823,185.502L303.942,185.149L304.062,184.797L304.181,184.446L304.3,184.096L304.418,183.746L304.536,183.397L304.654,183.049L304.772,182.702L304.889,182.356L305.007,182.01L305.124,181.665L305.24,181.321L305.357,180.978L305.473,180.635L305.589,180.293L305.704,179.952L305.819,179.611L305.934,179.272L306.049,178.933L306.278,178.257L306.392,177.921L306.619,177.25L306.733,176.915L306.846,176.582L307.071,175.916L307.295,175.254L307.519,174.595L307.741,173.939L307.852,173.611L307.962,173.285L308.073,172.959L308.183,172.634L308.293,172.31L308.402,171.987L308.512,171.664L308.621,171.342L308.838,170.7L308.947,170.38L309.055,170.061L309.271,169.424L309.378,169.107L309.593,168.475L309.7,168.16L309.806,167.845L309.913,167.532L310.125,166.907L310.231,166.595L310.336,166.284L310.442,165.974L310.547,165.664L310.652,165.355L310.756,165.047L310.861,164.74L310.965,164.433L311.069,164.127L311.173,163.821L311.276,163.517L311.38,163.213L311.483,162.909L311.586,162.606L311.791,162.003L311.894,161.702L311.996,161.402L312.098,161.103L312.2,160.804L312.301,160.506L312.403,160.208L312.504,159.911L312.605,159.615L312.705,159.32L312.906,158.731L313.006,158.437L313.206,157.852L313.306,157.561L313.405,157.27L313.504,156.979L313.702,156.401L313.801,156.112L313.899,155.824L313.997,155.537L314.193,154.965L314.291,154.68L314.388,154.395L314.486,154.111L314.583,153.828L314.68,153.545L314.776,153.263L314.873,152.982L314.969,152.701L315.066,152.421L315.162,152.141L315.257,151.862L315.449,151.306L315.639,150.752L315.734,150.476L315.923,149.926L316.018,149.652L316.112,149.379L316.206,149.106L316.3,148.833L316.394,148.562L316.487,148.291L316.58,148.02L316.674,147.75L316.767,147.481L316.86,147.212L316.952,146.944L317.045,146.677L317.137,146.41L317.229,146.143L317.321,145.878L317.413,145.613L317.505,145.348L317.596,145.084L317.688,144.821L317.779,144.558L317.87,144.296L317.961,144.034L318.052,143.773L318.142,143.512L318.233,143.252L318.323,142.993L318.413,142.734L318.503,142.476L318.593,142.218L318.682,141.961L318.772,141.705L318.861,141.449L318.95,141.193L319.039,140.939L319.128,140.684L319.217,140.431L319.305,140.177L319.393,139.925L319.482,139.673L319.57,139.421L319.658,139.171L319.745,138.92L319.833,138.67L319.92,138.421L320.008,138.172L320.095,137.924L320.182,137.677L320.269,137.43L320.442,136.937L320.529,136.692L320.615,136.447L320.701,136.203L320.787,135.959L320.873,135.715L320.958,135.473L321.044,135.231L321.129,134.989L321.215,134.748L321.3,134.507L321.385,134.267L321.47,134.028L321.554,133.789L321.639,133.55L321.723,133.312L321.807,133.075L321.892,132.838L321.976,132.602L322.06,132.366L322.143,132.13L322.227,131.896L322.31,131.661L322.394,131.427L322.477,131.194L322.643,130.729L322.725,130.498L322.808,130.266L322.891,130.036L322.973,129.805L323.055,129.576L323.137,129.347L323.219,129.118L323.301,128.89L323.383,128.662L323.464,128.435L323.546,128.208L323.627,127.982L323.708,127.757L323.789,127.531L323.87,127.307L323.951,127.083L324.032,126.859L324.112,126.636L324.193,126.413L324.273,126.191L324.353,125.969L324.433,125.748L324.513,125.527L324.593,125.307L324.673,125.087L324.752,124.868L324.832,124.649L324.911,124.431L324.99,124.213L325.069,123.996L325.148,123.779L325.227,123.563L325.306,123.347L325.384,123.131L325.463,122.916L325.541,122.702L325.619,122.488L325.697,122.274L325.775,122.061L325.853,121.849L325.931,121.637L326.009,121.425L326.086,121.214L326.163,121.003L326.241,120.793L326.318,120.583L326.395,120.374L326.472,120.165L326.549,119.957L326.625,119.749L326.702,119.541L326.778,119.334L326.855,119.128L326.931,118.921L327.007,118.716L327.083,118.511L327.159,118.306L327.234,118.102L327.31,117.898L327.386,117.694L327.461,117.491L327.536,117.289L327.612,117.087L327.687,116.885L327.762,116.684L327.837,116.483L327.911,116.283L327.986,116.083L328.061,115.884L328.135,115.685L328.209,115.487L328.284,115.288L328.358,115.091L328.432,114.894L328.506,114.697L328.579,114.501L328.653,114.305L328.727,114.109L328.8,113.914L328.947,113.525L329.02,113.332L329.093,113.138L329.166,112.946L329.239,112.753L329.312,112.561L329.384,112.369L329.457,112.178L329.529,111.988L329.602,111.797L329.674,111.607L329.746,111.418L329.818,111.229L329.89,111.04L329.962,110.852L330.033,110.664L330.105,110.477L330.177,110.29L330.248,110.103L330.319,109.917L330.39,109.731L330.462,109.546L330.533,109.361L330.604,109.176L330.674,108.992L330.745,108.808L330.816,108.625L330.886,108.442L330.957,108.26L331.027,108.077L331.097,107.896L331.167,107.714L331.237,107.534L331.307,107.353L331.377,107.173L331.447,106.993L331.517,106.814L331.586,106.635L331.656,106.456L331.725,106.278L331.794,106.101L331.864,105.923L331.933,105.746L332.002,105.57L332.071,105.394L332.139,105.218L332.208,105.042L332.277,104.867L332.345,104.693L332.414,104.519L332.482,104.345L332.55,104.171L332.619,103.998L332.687,103.825L332.755,103.653L332.823,103.481L332.89,103.31L332.958,103.138L333.026,102.968L333.093,102.797L333.161,102.627L333.228,102.457L333.295,102.288L333.363,102.119L333.43,101.951L333.497,101.783L333.564,101.615L333.63,101.447L333.697,101.28L333.764,101.114L333.83,100.947L333.897,100.781L333.963,100.616L334.03,100.45L334.096,100.286L334.162,100.121L334.228,99.957L334.294,99.793L334.36,99.63L334.426,99.467L334.491,99.304L334.557,99.142L334.623,98.98L334.688,98.818L334.753,98.657L334.819,98.496L334.884,98.335L334.949,98.175L335.014,98.015L335.079,97.856L335.144,97.697L335.209,97.538L335.274,97.379L335.338,97.221L335.403,97.064L335.467,96.906L335.532,96.749L335.596,96.592L335.66,96.436L335.724,96.28L335.788,96.124L335.852,95.969L335.916,95.814L335.98,95.659L336.044,95.505L336.107,95.351L336.171,95.198L336.235,95.044L336.298,94.891L336.361,94.739L336.425,94.587L336.488,94.435L336.551,94.283L336.614,94.132L336.677,93.981L336.74,93.83L336.803,93.68L336.865,93.53L336.928,93.381L336.991,93.231L337.053,93.082L337.115,92.934L337.178,92.785L337.24,92.638L337.302,92.49L337.364,92.343L337.426,92.196L337.488,92.049L337.55,91.903L337.612,91.757L337.674,91.611L337.736,91.466L337.797,91.321L337.859,91.176L337.92,91.032L337.981,90.887L338.043,90.744L338.104,90.6L338.165,90.457L338.226,90.314L338.287,90.172L338.348,90.03L338.409,89.888L338.47,89.746L338.53,89.605L338.591,89.464L338.652,89.323L338.712,89.183L338.833,88.903L338.893,88.764L338.953,88.625L339.014,88.486L339.074,88.348L339.134,88.21L339.194,88.072L339.253,87.934L339.313,87.797L339.373,87.66L339.433,87.524L339.492,87.387L339.552,87.251L339.611,87.115L339.671,86.98L339.73,86.845L339.789,86.71L339.848,86.576L339.907,86.441L339.966,86.307L340.025,86.174L340.084,86.04L340.143,85.907L340.202,85.775L340.26,85.642L340.319,85.51L340.378,85.378L340.436,85.246L340.495,85.115L340.553,84.984L340.611,84.853L340.669,84.723L340.728,84.593L340.786,84.463L340.844,84.333L340.902,84.204L340.96,84.075L341.017,83.946L341.075,83.818L341.133,83.69L341.19,83.562L341.248,83.434L341.305,83.307L341.363,83.18L341.42,83.053L341.478,82.927L341.535,82.801L341.592,82.675L341.649,82.549L341.706,82.424L341.763,82.299L341.82,82.174L341.877,82.049L341.934,81.925L341.99,81.801L342.047,81.677L342.104,81.554L342.16,81.431L342.217,81.308L342.273,81.185L342.33,81.063L342.386,80.941L342.442,80.819L342.498,80.698L342.554,80.576L342.61,80.455L342.666,80.335L342.722,80.214L342.778,80.094L342.834,79.974L342.89,79.854L342.945,79.735L343.001,79.616L343.057,79.497L343.112,79.378L343.167,79.26L343.223,79.142L343.278,79.024L343.333,78.907L343.389,78.789L343.444,78.672L343.499,78.556L343.554,78.439L343.609,78.323L343.664,78.207L343.719,78.091L343.773,77.975L343.828,77.86L343.883,77.745L343.937,77.63L343.992,77.516L344.046,77.402L344.101,77.288L344.155,77.174L344.209,77.061L344.264,76.947L344.318,76.834L344.372,76.722L344.426,76.609L344.48,76.497L344.534,76.385L344.588,76.273L344.642,76.162L344.696,76.05L344.749,75.939L344.803,75.829L344.857,75.718L344.91,75.608L344.964,75.498L345.017,75.388L345.071,75.279L345.124,75.169L345.177,75.06L345.231,74.951L345.284,74.843L345.337,74.734L345.39,74.626L345.443,74.519L345.496,74.411L345.549,74.304L345.602,74.196L345.655,74.089L345.707,73.983L345.76,73.876L345.813,73.77L345.865,73.664L345.918,73.558L345.97,73.453L346.023,73.348L346.075,73.243L346.127,73.138L346.18,73.033L346.232,72.929L346.284,72.825L346.336,72.721L346.388,72.617L346.44,72.514L346.492,72.411L346.544,72.308L346.596,72.205L346.647,72.103L346.699,72L346.751,71.898L346.803,71.796L346.854,71.695L346.906,71.593L346.957,71.492L347.008,71.391L347.06,71.291L347.111,71.19L347.162,71.09L347.214,70.99L347.265,70.89L347.316,70.79L347.367,70.691L347.418,70.592L347.469,70.493L347.52,70.394L347.571,70.296L347.621,70.197L347.672,70.099L347.723,70.001L347.774,69.904L347.875,69.709L347.925,69.612L347.976,69.515L348.026,69.419L348.076,69.322L348.127,69.226L348.177,69.13L348.227,69.035L348.277,68.939L348.327,68.844L348.377,68.749L348.427,68.654L348.477,68.559L348.527,68.465L348.577,68.37L348.627,68.276L348.677,68.182L348.727,68.089L348.776,67.995L348.826,67.902L348.875,67.809L348.925,67.716L348.974,67.624L349.024,67.531L349.073,67.439L349.172,67.255L349.27,67.072L349.319,66.981L349.368,66.89L349.417,66.8L349.466,66.709L349.515,66.619L349.564,66.528L349.613,66.438L349.662,66.349L349.711,66.259L349.759,66.17L349.808,66.081L349.857,65.992L349.905,65.903L349.954,65.814L350.002,65.726L350.051,65.638L350.099,65.55L350.147,65.462L350.196,65.374L350.244,65.287L350.292,65.199L350.34,65.112L350.389,65.026L350.437,64.939L350.485,64.852L350.533,64.766L350.581,64.68L350.628,64.594L350.676,64.508L350.724,64.423L350.772,64.338L350.82,64.252L350.867,64.167L350.915,64.083L350.962,63.998L351.01,63.914L351.105,63.746L351.152,63.662L351.2,63.578L351.247,63.495L351.294,63.411L351.341,63.328L351.389,63.245L351.436,63.163L351.483,63.08L351.53,62.998L351.577,62.915L351.624,62.833L351.671,62.752L351.718,62.67L351.765,62.589L351.811,62.507L351.858,62.426L351.905,62.345L351.998,62.184L352.045,62.104L352.091,62.023L352.138,61.943L352.231,61.784L352.277,61.704L352.323,61.625L352.37,61.546L352.416,61.467L352.462,61.388L352.508,61.309L352.554,61.231L352.6,61.153L352.646,61.075L352.692,60.997L352.738,60.919L352.784,60.841L352.83,60.764L352.876,60.687L352.922,60.61L352.967,60.533L353.013,60.456L353.059,60.379L353.104,60.303L353.15,60.227L353.196,60.151L353.241,60.075L353.287,59.999L353.332,59.923L353.377,59.848L353.423,59.773L353.468,59.698L353.513,59.623L353.559,59.548L353.604,59.474L353.649,59.399L353.694,59.325L353.739,59.251L353.784,59.177L353.829,59.103L353.874,59.03L353.919,58.956L353.964,58.883L354.008,58.81L354.053,58.737L354.098,58.664L354.143,58.591L354.187,58.519L354.232,58.447L354.277,58.375L354.321,58.303L354.366,58.231L354.41,58.159L354.455,58.088L354.499,58.016L354.543,57.945L354.588,57.874L354.632,57.803L354.676,57.732L354.72,57.662L354.764,57.592L354.809,57.521L354.853,57.451L354.897,57.381L354.941,57.311L354.985,57.242L355.029,57.172L355.073,57.103L355.116,57.034L355.16,56.965L355.204,56.896L355.248,56.827L355.292,56.759L355.335,56.69L355.379,56.622L355.422,56.554L355.466,56.486L355.509,56.418L355.553,56.351L355.596,56.283L355.64,56.216L355.683,56.148L355.727,56.081L355.77,56.014L355.813,55.948L355.856,55.881L355.9,55.815L355.943,55.748L355.986,55.682L356.029,55.616L356.072,55.55L356.115,55.484L356.158,55.419L356.201,55.353L356.244,55.288L356.287,55.223L356.329,55.158L356.372,55.093L356.415,55.028L356.458,54.964L356.5,54.899L356.586,54.771L356.628,54.707L356.671,54.643L356.713,54.579L356.756,54.516L356.798,54.452L356.883,54.326L356.925,54.263L356.968,54.2L357.01,54.137L357.094,54.012L357.136,53.95L357.221,53.825L357.305,53.701L357.347,53.64L357.389,53.578L357.431,53.517L357.472,53.456L357.556,53.334L357.64,53.212L357.681,53.151L357.765,53.031L357.806,52.971L357.889,52.851L357.931,52.791L358.014,52.672L358.055,52.612L358.138,52.494L358.22,52.376L358.262,52.317L358.303,52.259L358.344,52.2L358.385,52.142L358.426,52.084L358.467,52.026L358.549,51.91L358.631,51.794L358.713,51.68L358.754,51.622L358.795,51.565L358.876,51.452L358.917,51.395L358.998,51.282L359.039,51.226L359.079,51.169L359.16,51.057L359.241,50.946L359.322,50.835L359.403,50.724L359.443,50.669L359.483,50.614L359.564,50.505L359.604,50.45L359.644,50.396L359.684,50.341L359.724,50.287L359.764,50.233L359.804,50.179L359.844,50.125L359.884,50.071L359.924,50.018L360.004,49.911L360.044,49.857L360.084,49.804L360.123,49.751L360.203,49.645L360.242,49.593L360.282,49.54L360.361,49.435L360.401,49.383L360.44,49.331L360.519,49.227L360.559,49.175L360.637,49.072L360.677,49.021L360.716,48.969L360.795,48.867L360.834,48.816L360.873,48.765L360.912,48.714L360.951,48.664L361.029,48.563L361.068,48.512L361.107,48.462L361.146,48.412L361.185,48.362L361.224,48.312L361.263,48.263L361.302,48.213L361.341,48.163L361.38,48.114L361.418,48.065L361.496,47.966L361.534,47.917L361.573,47.868L361.65,47.771L361.689,47.722L361.766,47.626L361.804,47.577L361.881,47.481L361.92,47.433L361.958,47.385L362.034,47.29L362.073,47.243L362.111,47.195L362.187,47.101L362.226,47.054L362.264,47.007L362.302,46.96L362.378,46.866L362.454,46.773L362.492,46.727L362.53,46.681L362.568,46.634L362.606,46.588L362.643,46.542L362.681,46.497L362.719,46.451L362.757,46.405L362.794,46.36L362.87,46.269L362.907,46.224L362.983,46.133L363.02,46.088L363.058,46.044L363.095,45.999L363.17,45.91L363.208,45.865L363.282,45.777L363.32,45.732L363.394,45.644L363.432,45.6L363.506,45.513L363.543,45.469L363.58,45.426L363.618,45.383L363.692,45.296L363.729,45.253L363.766,45.21L363.803,45.167L363.877,45.082L363.95,44.996L363.987,44.954L364.024,44.912L364.061,44.869L364.098,44.827L364.134,44.785L364.208,44.701L364.245,44.659L364.318,44.576L364.354,44.535L364.428,44.452L364.501,44.369L364.537,44.328L364.573,44.287L364.646,44.206L364.683,44.165L364.755,44.084L364.828,44.003L364.864,43.963L364.936,43.883L364.973,43.843L365.045,43.763L365.117,43.684L365.189,43.605L365.261,43.526L365.297,43.487L365.369,43.409L365.44,43.331L365.512,43.254L365.548,43.215L365.619,43.138L365.69,43.061L365.761,42.985L365.833,42.909L365.904,42.834L365.939,42.796L366.01,42.721L366.081,42.646L366.116,42.609L366.187,42.535L366.257,42.461L366.292,42.424L366.363,42.35L366.433,42.277L366.468,42.241L366.538,42.168L366.608,42.096L366.678,42.024L366.748,41.952L366.818,41.881L366.888,41.81L366.922,41.774L366.992,41.704L367.061,41.634L367.131,41.564L367.2,41.494L367.235,41.459L367.304,41.39L367.373,41.321L367.407,41.287L367.476,41.218L367.545,41.15L367.613,41.083L367.682,41.015L367.751,40.948L367.819,40.881L367.887,40.814L367.956,40.748L368.024,40.682L368.092,40.616L368.16,40.551L368.194,40.518L368.261,40.453L368.329,40.388L368.397,40.324L368.464,40.26L368.498,40.228L368.565,40.164L368.633,40.1L368.7,40.037L368.767,39.974L368.834,39.912L368.868,39.88L368.935,39.818L369.001,39.756L369.035,39.725L369.102,39.664L369.168,39.603L369.235,39.542L369.268,39.511L369.334,39.451L369.401,39.39L369.467,39.33L369.5,39.3L369.566,39.241L369.599,39.211L369.665,39.152L369.731,39.093L369.797,39.034L369.83,39.005L369.895,38.946L369.928,38.917L369.994,38.859L370.059,38.801L370.124,38.744L370.19,38.687L370.255,38.63L370.32,38.573L370.385,38.517L370.45,38.46L370.483,38.432L370.547,38.377L370.612,38.321L370.677,38.266L370.741,38.21L370.806,38.156L370.87,38.101L370.935,38.047L370.999,37.993L371.063,37.939L371.127,37.885L371.191,37.832L371.255,37.778L371.319,37.725L371.383,37.673L371.447,37.62L371.478,37.594L371.542,37.542L371.606,37.49L371.669,37.438L371.732,37.387L371.796,37.336L371.859,37.285L371.922,37.234L371.985,37.183L372.048,37.133L372.111,37.083L372.174,37.033L372.236,36.983L372.268,36.959L372.33,36.909L372.393,36.86L372.455,36.811L372.518,36.763L372.58,36.714L372.642,36.666L372.704,36.618L372.766,36.57L372.828,36.522L372.89,36.475L372.952,36.428L373.014,36.381L373.076,36.334L373.168,36.264L373.23,36.218L373.291,36.172L373.352,36.126L373.414,36.08L373.475,36.035L373.536,35.99L373.628,35.922L373.689,35.877L373.78,35.81L373.841,35.766L373.932,35.7L373.992,35.656L374.053,35.613L374.113,35.569L374.174,35.526L374.234,35.483L374.294,35.44L374.355,35.398L374.415,35.355L374.475,35.313L374.535,35.271L374.595,35.229L374.654,35.187L374.714,35.146L374.774,35.104L374.833,35.063L374.893,35.022L374.952,34.981L375.012,34.941L375.071,34.9L375.13,34.86L375.19,34.82L375.249,34.78L375.308,34.74L375.367,34.701L375.426,34.662L375.514,34.603L375.602,34.544L375.661,34.506L375.719,34.467L375.778,34.429L375.836,34.391L375.895,34.353L375.953,34.315L376.011,34.277L376.099,34.221L376.157,34.184L376.215,34.147L376.273,34.11L376.331,34.073L376.417,34.018L376.475,33.982L376.533,33.945L376.619,33.891L376.705,33.838L376.791,33.785L376.849,33.749L376.906,33.714L376.963,33.679L377.02,33.644L377.077,33.609L377.134,33.575L377.22,33.523L377.305,33.472L377.39,33.421L377.446,33.387L377.503,33.354L377.56,33.32L377.616,33.287L377.672,33.254L377.729,33.221L377.785,33.188L377.869,33.139L377.953,33.09L378.037,33.042L378.093,33.01L378.177,32.962L378.233,32.93L378.289,32.899L378.344,32.867L378.428,32.821L378.483,32.79L378.538,32.759L378.622,32.712L378.704,32.667L378.787,32.621L378.87,32.576L378.925,32.546L378.98,32.516L379.035,32.486L379.09,32.456L379.144,32.427L379.199,32.398L379.254,32.368L379.336,32.325L379.39,32.296L379.472,32.253L379.553,32.21L379.608,32.182L379.662,32.153L379.716,32.125L379.77,32.097L379.851,32.055L379.905,32.028L379.986,31.986L380.067,31.945L380.147,31.905L380.228,31.864L380.308,31.824L380.388,31.784L380.442,31.757L380.495,31.731L380.575,31.691L380.655,31.652L380.735,31.613L380.814,31.575L380.893,31.537L380.973,31.498L381.026,31.473L381.105,31.436L381.184,31.398L381.263,31.361L381.315,31.336L381.394,31.3L381.472,31.263L381.551,31.227L381.603,31.203L381.681,31.167L381.733,31.143L381.811,31.107L381.915,31.061L381.993,31.026L382.044,31.002L382.122,30.968L382.199,30.934L382.277,30.899L382.354,30.866L382.431,30.832L382.508,30.798L382.585,30.765L382.661,30.732L382.738,30.699L382.814,30.667L382.891,30.635L382.967,30.602L383.043,30.571L383.119,30.539L383.195,30.507L383.271,30.476L383.347,30.445L383.422,30.414L383.498,30.383L383.573,30.353L383.648,30.323L383.723,30.293L383.798,30.263L383.873,30.233L383.948,30.204L384.023,30.174L384.098,30.145L384.172,30.116L384.246,30.088L384.345,30.05L384.419,30.021L384.493,29.993L384.592,29.956L384.666,29.928L384.739,29.901L384.813,29.874L384.911,29.838L384.984,29.811L385.057,29.784L385.155,29.749L385.252,29.714L385.349,29.679L385.446,29.645L385.543,29.611L385.639,29.577L385.735,29.543L385.832,29.51L385.928,29.477L386.023,29.445L386.095,29.42L386.167,29.396L386.262,29.364L386.357,29.333L386.428,29.309L386.523,29.278L386.618,29.247L386.689,29.224L386.76,29.202L386.854,29.171L386.948,29.141L387.018,29.119L387.089,29.097L387.182,29.068L387.276,29.039L387.346,29.017L387.439,28.989L387.532,28.96L387.625,28.932L387.694,28.911L387.787,28.884L387.902,28.85L387.994,28.823L388.086,28.796L388.178,28.769L388.247,28.749L388.339,28.723L388.43,28.697L388.521,28.671L388.612,28.646L388.703,28.621L388.794,28.595L388.884,28.571L388.997,28.54L389.087,28.516L389.177,28.491L389.29,28.462L389.38,28.438L389.469,28.414L389.558,28.391L389.648,28.368L389.737,28.345L389.848,28.317L389.936,28.295L390.047,28.267L390.158,28.239L390.246,28.218L390.334,28.196L390.444,28.17L390.553,28.143L390.663,28.117L390.772,28.091L390.859,28.071L390.946,28.051L391.054,28.026L391.141,28.006L391.227,27.986L391.335,27.962L391.443,27.938L391.529,27.919L391.636,27.895L391.743,27.872L391.85,27.849L391.978,27.822L392.063,27.803L392.169,27.781L392.275,27.759L392.381,27.737L392.486,27.716L392.592,27.694L392.697,27.673L392.802,27.652L392.906,27.632L393.031,27.607L393.115,27.591L393.219,27.571L393.343,27.547L393.467,27.524L393.571,27.505L393.694,27.482L393.818,27.459L393.941,27.437L394.043,27.419L394.145,27.401L394.268,27.379L394.39,27.358L394.511,27.337L394.633,27.317L394.754,27.296L394.875,27.276L394.975,27.26L395.095,27.24L395.215,27.221L395.335,27.202L395.455,27.183L395.574,27.164L395.693,27.146L395.811,27.128L395.93,27.11L396.048,27.092L396.166,27.075L396.283,27.058L396.42,27.038L396.556,27.019L396.692,27L396.828,26.981L396.963,26.962L397.098,26.944L397.214,26.929L397.348,26.911L397.482,26.893L397.616,26.876L397.749,26.859L397.882,26.843L398.014,26.826L398.147,26.81L398.278,26.794L398.41,26.778L398.541,26.763L398.691,26.746L398.84,26.728L398.97,26.714L399.118,26.697L399.266,26.681L399.414,26.665L399.561,26.65L399.689,26.636L399.835,26.621L399.981,26.606L400.108,26.593L400.271,26.577L400.434,26.561L400.578,26.547L400.722,26.534L400.883,26.519L401.043,26.504L401.204,26.49L401.363,26.476L401.522,26.462L401.699,26.447L401.857,26.433L402.014,26.42L402.154,26.409L402.328,26.395L402.484,26.383L402.64,26.371L402.813,26.358L402.984,26.345L403.156,26.333L403.344,26.319L403.531,26.306L403.7,26.294L403.886,26.282L404.071,26.27L404.255,26.258L404.439,26.246L404.622,26.235L404.805,26.224L405.003,26.212L405.184,26.201L405.381,26.19L405.577,26.179L405.772,26.168L405.983,26.157L406.177,26.147L406.386,26.137L406.61,26.125L406.818,26.115L407.04,26.105L407.246,26.096L407.466,26.086L407.686,26.076L407.904,26.067L408.137,26.057L408.37,26.048L408.601,26.039L408.846,26.03L409.09,26.021L409.348,26.012L409.59,26.003L409.846,25.995L410.1,25.987L410.368,25.978L410.605,25.971L410.841,25.964L411.105,25.957L411.339,25.951L411.615,25.943L411.875,25.937L412.162,25.929L412.448,25.923L412.732,25.916L413.043,25.909L413.366,25.903L413.66,25.897L413.979,25.891L414.31,25.884L414.652,25.878L414.992,25.873L415.344,25.867L415.679,25.862L416.039,25.857L416.423,25.852L416.817,25.847L417.26,25.841L417.686,25.836L418.109,25.832L418.528,25.828L419.007,25.823L419.518,25.819L419.951,25.816L420.416,25.812L420.889,25.809L421.442,25.805L422.048,25.802L422.577,25.799L423.1,25.797L423.675,25.794L424.301,25.792L425.074,25.789L425.815,25.787L426.598,25.785L427.36,25.783L428.193,25.781L429.322,25.779L430.616,25.778L431.429,25.777L432.431,25.776L433.725,25.775L435.461,25.774L437.499,25.774L438.57,25.773L440.043,25.773L441.965,25.773L443.47,25.773L444.78,25.773L446.013,25.773L447.195,25.773L448.414,25.773L449.515,25.773L450.6,25.773L451.84,25.773L453.25,25.773L454.765,25.773L455.958,25.773L458.03,25.773L547,25.773" style="fill:none;fill-rule:nonzero;stroke:rgb(143,194,222);stroke-width:8px;"/>
    </g>
    <clipPath id="_clip7">
        <path d="M53.5,5.5L570.5,5.5L570.5,451.5L53.5,451.5L53.5,5.5"/>
    </clipPath>
    <g clip-path="url(#_clip7)">
        <path d="M77,431.227L86.303,430.417L94.169,429.609L100.983,428.802L106.993,427.997L112.369,427.193L117.232,426.391L121.672,425.591L125.757,424.792L129.538,423.995L133.059,423.199L136.352,422.405L139.446,421.613L142.363,420.822L145.122,420.033L147.739,419.245L150.229,418.459L152.603,417.675L154.871,416.892L157.043,416.11L159.126,415.33L161.127,414.552L163.053,413.775L164.909,413L166.699,412.227L168.429,411.455L170.103,410.684L171.723,409.915L173.293,409.148L174.816,408.382L176.296,407.617L177.733,406.854L179.131,406.093L180.492,405.333L181.818,404.575L183.109,403.818L184.37,403.063L185.599,402.309L186.8,401.557L187.973,400.806L189.12,400.057L190.241,399.309L191.339,398.563L192.413,397.818L193.465,397.075L194.496,396.333L195.507,395.593L196.498,394.854L197.47,394.116L198.424,393.381L199.36,392.646L200.279,391.913L201.183,391.182L202.07,390.452L202.942,389.723L203.8,388.996L204.644,388.27L205.473,387.546L206.29,386.823L207.093,386.102L207.885,385.382L208.664,384.664L209.431,383.947L210.187,383.231L210.932,382.517L211.666,381.804L212.39,381.093L213.104,380.383L213.808,379.675L214.502,378.968L215.187,378.262L215.863,377.558L216.53,376.855L217.188,376.154L217.838,375.453L218.48,374.755L219.114,374.058L219.74,373.362L220.359,372.667L220.97,371.974L221.574,371.283L222.171,370.592L222.761,369.904L223.344,369.216L223.921,368.53L224.491,367.845L225.055,367.162L225.612,366.48L226.164,365.799L226.71,365.12L227.25,364.442L227.784,363.765L228.313,363.09L228.836,362.416L229.354,361.743L229.867,361.072L230.375,360.402L230.878,359.734L231.376,359.067L231.869,358.401L232.357,357.736L232.841,357.073L233.32,356.411L233.794,355.75L234.265,355.091L234.731,354.433L235.193,353.777L235.65,353.121L236.104,352.467L236.553,351.815L236.999,351.163L237.441,350.513L237.879,349.865L238.313,349.217L238.744,348.571L239.171,347.926L239.594,347.282L240.014,346.64L240.431,345.999L240.844,345.359L241.254,344.721L241.661,344.083L242.064,343.448L242.464,342.813L242.861,342.18L243.255,341.547L243.646,340.917L244.035,340.287L244.42,339.659L244.802,339.031L245.181,338.406L245.558,337.781L245.932,337.158L246.303,336.536L246.671,335.915L247.037,335.295L247.4,334.677L247.761,334.06L248.119,333.444L248.475,332.829L248.828,332.216L249.179,331.603L249.527,330.992L249.873,330.383L250.216,329.774L250.558,329.167L250.897,328.56L251.234,327.956L251.568,327.352L251.901,326.749L252.231,326.148L252.559,325.548L252.885,324.949L253.209,324.351L253.531,323.755L253.851,323.16L254.169,322.565L254.485,321.972L254.799,321.381L255.111,320.79L255.421,320.201L255.73,319.612L256.036,319.025L256.341,318.44L256.644,317.855L256.945,317.271L257.244,316.689L257.542,316.108L257.837,315.528L258.132,314.949L258.424,314.371L258.715,313.795L259.004,313.219L259.291,312.645L259.577,312.072L259.862,311.5L260.144,310.929L260.425,310.359L260.705,309.791L260.983,309.223L261.26,308.657L261.535,308.092L261.808,307.528L262.081,306.965L262.351,306.403L262.621,305.842L262.888,305.283L263.155,304.724L263.42,304.167L263.684,303.611L263.946,303.056L264.207,302.502L264.467,301.949L264.725,301.397L264.982,300.847L265.238,300.297L265.493,299.749L265.746,299.201L265.998,298.655L266.249,298.11L266.498,297.566L266.746,297.023L266.994,296.481L267.239,295.94L267.484,295.4L267.728,294.862L267.97,294.324L268.211,293.787L268.452,293.252L268.691,292.718L268.929,292.184L269.165,291.652L269.401,291.121L269.636,290.591L269.869,290.062L270.102,289.534L270.333,289.007L270.564,288.481L270.793,287.956L271.021,287.432L271.248,286.909L271.475,286.388L271.7,285.867L271.924,285.347L272.148,284.829L272.37,284.311L272.591,283.795L272.812,283.279L273.031,282.765L273.25,282.251L273.467,281.739L273.684,281.228L273.9,280.717L274.115,280.208L274.329,279.7L274.542,279.192L274.754,278.686L274.965,278.181L275.176,277.676L275.385,277.173L275.594,276.671L275.802,276.17L276.009,275.669L276.215,275.17L276.42,274.672L276.625,274.175L276.829,273.678L277.032,273.183L277.234,272.689L277.435,272.195L277.635,271.703L277.835,271.212L278.034,270.721L278.232,270.232L278.43,269.744L278.626,269.256L278.822,268.77L279.017,268.284L279.212,267.8L279.405,267.316L279.598,266.834L279.791,266.352L279.982,265.872L280.173,265.392L280.363,264.913L280.552,264.435L280.741,263.959L280.929,263.483L281.116,263.008L281.303,262.534L281.489,262.061L281.674,261.589L281.858,261.118L282.042,260.647L282.225,260.178L282.408,259.71L282.59,259.243L282.771,258.776L282.952,258.311L283.132,257.846L283.311,257.382L283.49,256.92L283.668,256.458L283.846,255.997L284.023,255.537L284.199,255.078L284.374,254.62L284.549,254.163L284.724,253.706L284.898,253.251L285.071,252.797L285.244,252.343L285.416,251.89L285.587,251.439L285.758,250.988L285.929,250.538L286.099,250.089L286.268,249.641L286.437,249.193L286.605,248.747L286.772,248.302L286.939,247.857L287.106,247.413L287.272,246.971L287.437,246.529L287.602,246.088L287.766,245.647L287.93,245.208L288.093,244.77L288.256,244.332L288.418,243.896L288.58,243.46L288.741,243.025L288.902,242.591L289.062,242.158L289.222,241.725L289.381,241.294L289.54,240.863L289.698,240.434L289.856,240.005L290.013,239.577L290.17,239.15L290.326,238.723L290.482,238.298L290.638,237.873L290.792,237.45L290.947,237.027L291.101,236.605L291.254,236.183L291.407,235.763L291.56,235.344L291.712,234.925L291.864,234.507L292.015,234.09L292.165,233.674L292.316,233.258L292.466,232.844L292.615,232.43L292.764,232.017L292.913,231.605L293.061,231.194L293.208,230.784L293.356,230.374L293.503,229.965L293.649,229.557L293.795,229.15L293.941,228.744L294.086,228.338L294.231,227.934L294.375,227.53L294.519,227.127L294.662,226.725L294.806,226.323L294.948,225.922L295.091,225.522L295.233,225.123L295.374,224.725L295.515,224.328L295.656,223.931L295.796,223.535L295.936,223.14L296.076,222.746L296.215,222.352L296.354,221.959L296.493,221.567L296.631,221.176L296.768,220.786L296.906,220.396L297.043,220.008L297.179,219.619L297.316,219.232L297.452,218.846L297.587,218.46L297.722,218.075L297.857,217.691L297.992,217.307L298.126,216.925L298.259,216.543L298.393,216.162L298.526,215.781L298.659,215.402L298.791,215.023L298.923,214.645L299.055,214.267L299.186,213.891L299.317,213.515L299.448,213.14L299.578,212.766L299.708,212.392L299.838,212.019L299.967,211.647L300.096,211.276L300.225,210.905L300.353,210.535L300.481,210.166L300.609,209.798L300.736,209.43L300.864,209.063L300.99,208.697L301.117,208.332L301.243,207.967L301.369,207.603L301.494,207.24L301.62,206.877L301.744,206.515L301.869,206.154L301.993,205.794L302.117,205.434L302.241,205.075L302.365,204.717L302.488,204.359L302.61,204.003L302.733,203.647L302.855,203.291L302.977,202.937L303.099,202.583L303.22,202.229L303.341,201.877L303.462,201.525L303.582,201.174L303.703,200.823L303.823,200.474L303.942,200.125L304.062,199.776L304.181,199.429L304.3,199.082L304.418,198.736L304.536,198.39L304.654,198.045L304.772,197.701L304.889,197.358L305.007,197.015L305.124,196.673L305.24,196.331L305.357,195.99L305.473,195.65L305.589,195.311L305.704,194.972L305.819,194.634L305.934,194.297L306.049,193.96L306.164,193.624L306.278,193.289L306.392,192.954L306.506,192.62L306.619,192.287L306.733,191.954L306.846,191.622L306.959,191.291L307.071,190.96L307.183,190.63L307.295,190.301L307.407,189.972L307.519,189.644L307.63,189.317L307.741,188.99L307.852,188.664L307.962,188.338L308.073,188.014L308.183,187.689L308.293,187.366L308.402,187.043L308.621,186.399L308.73,186.078L308.947,185.439L309.055,185.12L309.163,184.801L309.486,183.85L309.7,183.219L309.806,182.904L309.913,182.591L310.019,182.277L310.125,181.965L310.231,181.653L310.336,181.341L310.442,181.03L310.547,180.72L310.861,179.793L310.965,179.486L311.173,178.872L311.276,178.566L311.38,178.261L311.483,177.956L311.689,177.349L311.791,177.046L311.894,176.744L311.996,176.442L312.098,176.141L312.2,175.841L312.301,175.541L312.403,175.242L312.504,174.943L312.605,174.645L312.705,174.348L312.806,174.051L312.906,173.755L313.006,173.459L313.106,173.164L313.206,172.869L313.306,172.576L313.405,172.282L313.504,171.99L313.603,171.697L313.702,171.406L313.801,171.115L313.899,170.825L313.997,170.535L314.095,170.246L314.193,169.957L314.291,169.669L314.388,169.381L314.486,169.094L314.583,168.808L314.776,168.237L314.873,167.953L315.066,167.385L315.257,166.82L315.353,166.538L315.449,166.257L315.544,165.976L315.639,165.696L315.734,165.416L315.829,165.137L315.923,164.859L316.018,164.581L316.206,164.027L316.3,163.751L316.394,163.475L316.487,163.2L316.58,162.926L316.674,162.652L316.767,162.378L316.86,162.105L317.137,161.29L317.229,161.019L317.413,160.479L317.596,159.941L317.688,159.673L317.87,159.139L317.961,158.872L318.142,158.341L318.233,158.076L318.323,157.812L318.503,157.285L318.682,156.76L318.772,156.498L318.95,155.976L319.039,155.716L319.128,155.457L319.217,155.198L319.393,154.681L319.482,154.423L319.57,154.166L319.658,153.91L319.745,153.654L319.92,153.143L320.008,152.889L320.095,152.635L320.182,152.382L320.269,152.129L320.356,151.876L320.442,151.624L320.529,151.373L320.615,151.122L320.701,150.871L320.787,150.621L320.873,150.372L320.958,150.123L321.044,149.875L321.129,149.627L321.215,149.379L321.3,149.132L321.385,148.886L321.47,148.64L321.554,148.394L321.639,148.15L321.723,147.905L321.807,147.661L321.892,147.417L321.976,147.174L322.06,146.932L322.143,146.69L322.227,146.448L322.31,146.207L322.394,145.967L322.477,145.726L322.56,145.487L322.643,145.248L322.725,145.009L322.891,144.533L322.973,144.296L323.055,144.059L323.137,143.823L323.219,143.587L323.383,143.117L323.464,142.882L323.546,142.648L323.627,142.415L323.708,142.182L323.789,141.949L323.87,141.717L323.951,141.485L324.112,141.023L324.273,140.563L324.353,140.334L324.433,140.105L324.513,139.877L324.593,139.649L324.673,139.421L324.832,138.968L324.99,138.516L325.148,138.066L325.306,137.617L325.463,137.171L325.619,136.726L325.697,136.505L325.775,136.283L325.853,136.063L325.931,135.842L326.009,135.622L326.086,135.403L326.241,134.965L326.318,134.747L326.395,134.53L326.472,134.312L326.625,133.879L326.702,133.663L326.778,133.447L326.931,133.018L327.007,132.803L327.083,132.59L327.234,132.163L327.386,131.738L327.461,131.527L327.536,131.316L327.612,131.105L327.687,130.894L327.762,130.684L327.837,130.475L327.911,130.265L327.986,130.057L328.061,129.848L328.135,129.64L328.209,129.433L328.284,129.226L328.358,129.019L328.432,128.813L328.506,128.607L328.579,128.402L328.653,128.197L328.727,127.992L328.8,127.788L328.947,127.38L329.02,127.177L329.093,126.975L329.166,126.773L329.239,126.571L329.312,126.37L329.384,126.169L329.457,125.968L329.529,125.768L329.602,125.568L329.674,125.369L329.746,125.17L329.818,124.971L329.89,124.773L329.962,124.575L330.033,124.378L330.105,124.181L330.177,123.984L330.248,123.788L330.319,123.592L330.39,123.397L330.462,123.202L330.533,123.007L330.604,122.813L330.674,122.619L330.745,122.425L330.816,122.232L330.886,122.04L330.957,121.847L331.027,121.655L331.097,121.464L331.167,121.273L331.237,121.082L331.307,120.891L331.377,120.701L331.447,120.512L331.517,120.322L331.586,120.133L331.656,119.945L331.725,119.757L331.794,119.569L331.864,119.382L331.933,119.195L332.002,119.008L332.071,118.822L332.139,118.636L332.208,118.45L332.277,118.265L332.345,118.08L332.414,117.896L332.482,117.712L332.55,117.528L332.619,117.345L332.687,117.162L332.755,116.979L332.823,116.797L332.89,116.615L332.958,116.434L333.026,116.253L333.093,116.072L333.161,115.892L333.228,115.712L333.295,115.532L333.363,115.353L333.43,115.174L333.497,114.995L333.564,114.817L333.63,114.639L333.697,114.461L333.83,114.107L333.897,113.931L333.963,113.755L334.03,113.579L334.096,113.403L334.162,113.228L334.228,113.054L334.294,112.879L334.36,112.705L334.426,112.532L334.491,112.358L334.557,112.185L334.623,112.013L334.688,111.84L334.819,111.497L334.884,111.325L334.949,111.155L335.014,110.984L335.079,110.814L335.144,110.644L335.209,110.474L335.274,110.305L335.338,110.136L335.403,109.968L335.467,109.799L335.532,109.632L335.66,109.297L335.724,109.13L335.852,108.797L335.98,108.466L336.044,108.301L336.107,108.136L336.171,107.971L336.235,107.807L336.298,107.643L336.361,107.479L336.488,107.153L336.551,106.991L336.614,106.829L336.677,106.667L336.74,106.505L336.803,106.344L336.865,106.183L336.928,106.022L336.991,105.862L337.053,105.702L337.115,105.542L337.178,105.383L337.24,105.224L337.302,105.065L337.364,104.906L337.426,104.748L337.488,104.591L337.55,104.433L337.612,104.276L337.674,104.119L337.736,103.963L337.797,103.806L337.859,103.651L337.92,103.495L337.981,103.34L338.043,103.185L338.104,103.03L338.165,102.876L338.226,102.722L338.287,102.568L338.348,102.414L338.409,102.261L338.47,102.109L338.53,101.956L338.591,101.804L338.652,101.652L338.712,101.5L338.833,101.198L338.893,101.047L338.953,100.897L339.014,100.747L339.074,100.597L339.134,100.448L339.194,100.298L339.253,100.15L339.313,100.001L339.373,99.853L339.433,99.705L339.492,99.557L339.552,99.41L339.611,99.262L339.671,99.116L339.73,98.969L339.789,98.823L339.848,98.677L339.907,98.531L339.966,98.386L340.025,98.241L340.084,98.096L340.143,97.952L340.202,97.807L340.26,97.663L340.319,97.52L340.378,97.376L340.436,97.233L340.495,97.091L340.553,96.948L340.611,96.806L340.669,96.664L340.728,96.522L340.786,96.381L340.844,96.24L340.902,96.099L340.96,95.959L341.017,95.819L341.075,95.679L341.133,95.539L341.19,95.4L341.248,95.26L341.305,95.122L341.363,94.983L341.42,94.845L341.478,94.707L341.535,94.569L341.592,94.432L341.649,94.294L341.706,94.158L341.763,94.021L341.82,93.885L341.877,93.749L341.934,93.613L341.99,93.477L342.047,93.342L342.104,93.207L342.16,93.072L342.217,92.938L342.273,92.804L342.33,92.67L342.386,92.536L342.442,92.403L342.498,92.27L342.554,92.137L342.61,92.004L342.666,91.872L342.778,91.608L342.834,91.476L342.89,91.345L342.945,91.214L343.001,91.083L343.057,90.953L343.112,90.823L343.167,90.693L343.223,90.563L343.278,90.434L343.333,90.304L343.389,90.175L343.444,90.047L343.499,89.918L343.554,89.79L343.609,89.662L343.664,89.535L343.719,89.407L343.773,89.28L343.828,89.153L343.883,89.027L343.937,88.9L343.992,88.774L344.046,88.648L344.101,88.523L344.155,88.397L344.209,88.272L344.264,88.147L344.318,88.023L344.372,87.898L344.426,87.774L344.48,87.65L344.588,87.403L344.642,87.28L344.696,87.157L344.749,87.035L344.803,86.912L344.91,86.668L344.964,86.547L345.017,86.425L345.071,86.304L345.124,86.183L345.177,86.062L345.231,85.942L345.284,85.822L345.337,85.702L345.39,85.582L345.443,85.463L345.496,85.343L345.549,85.224L345.602,85.106L345.655,84.987L345.707,84.869L345.76,84.751L345.813,84.633L345.865,84.515L345.918,84.398L345.97,84.281L346.023,84.164L346.075,84.047L346.127,83.931L346.18,83.815L346.232,83.699L346.284,83.583L346.336,83.467L346.388,83.352L346.44,83.237L346.492,83.122L346.544,83.008L346.647,82.779L346.699,82.665L346.803,82.438L346.854,82.325L346.906,82.212L347.008,81.987L347.111,81.762L347.162,81.651L347.214,81.539L347.265,81.427L347.316,81.316L347.367,81.205L347.418,81.095L347.469,80.984L347.52,80.874L347.571,80.764L347.621,80.654L347.672,80.544L347.774,80.326L347.875,80.108L347.925,79.999L347.976,79.891L348.026,79.783L348.076,79.675L348.127,79.567L348.177,79.46L348.227,79.352L348.277,79.245L348.327,79.139L348.377,79.032L348.427,78.926L348.477,78.819L348.527,78.713L348.577,78.608L348.627,78.502L348.677,78.397L348.727,78.292L348.776,78.187L348.826,78.082L348.875,77.977L348.925,77.873L348.974,77.769L349.024,77.665L349.073,77.562L349.172,77.355L349.27,77.149L349.319,77.046L349.368,76.944L349.417,76.842L349.466,76.74L349.515,76.638L349.564,76.536L349.613,76.435L349.662,76.333L349.711,76.232L349.759,76.132L349.808,76.031L349.857,75.931L349.905,75.83L349.954,75.73L350.002,75.631L350.051,75.531L350.099,75.432L350.147,75.332L350.196,75.233L350.244,75.135L350.292,75.036L350.34,74.938L350.389,74.839L350.437,74.741L350.485,74.643L350.533,74.546L350.581,74.448L350.628,74.351L350.676,74.254L350.724,74.157L350.772,74.061L350.82,73.964L350.867,73.868L350.915,73.772L350.962,73.676L351.01,73.58L351.105,73.389L351.152,73.294L351.2,73.199L351.247,73.104L351.294,73.01L351.341,72.916L351.389,72.821L351.436,72.727L351.483,72.634L351.53,72.54L351.577,72.446L351.624,72.353L351.671,72.26L351.718,72.167L351.765,72.075L351.811,71.982L351.858,71.89L351.905,71.798L351.998,71.614L352.045,71.522L352.091,71.431L352.138,71.34L352.231,71.158L352.277,71.067L352.323,70.977L352.37,70.886L352.416,70.796L352.462,70.706L352.508,70.617L352.554,70.527L352.6,70.438L352.646,70.348L352.692,70.259L352.738,70.17L352.784,70.082L352.83,69.993L352.876,69.905L352.922,69.817L352.967,69.729L353.013,69.641L353.059,69.553L353.104,69.466L353.15,69.378L353.196,69.291L353.241,69.204L353.287,69.118L353.332,69.031L353.377,68.945L353.423,68.858L353.468,68.772L353.513,68.686L353.559,68.601L353.604,68.515L353.649,68.43L353.694,68.344L353.739,68.259L353.784,68.174L353.829,68.09L353.874,68.005L353.919,67.921L353.964,67.837L354.008,67.753L354.053,67.669L354.098,67.585L354.143,67.501L354.187,67.418L354.232,67.335L354.277,67.252L354.321,67.169L354.366,67.086L354.41,67.004L354.455,66.921L354.499,66.839L354.543,66.757L354.588,66.675L354.632,66.594L354.676,66.512L354.72,66.431L354.764,66.349L354.809,66.268L354.853,66.187L354.897,66.107L354.941,66.026L354.985,65.946L355.029,65.865L355.073,65.785L355.116,65.705L355.16,65.626L355.204,65.546L355.248,65.467L355.335,65.308L355.379,65.229L355.422,65.15L355.466,65.072L355.509,64.993L355.553,64.915L355.596,64.837L355.683,64.681L355.727,64.603L355.77,64.525L355.813,64.448L355.856,64.371L355.9,64.293L355.943,64.217L355.986,64.14L356.029,64.063L356.072,63.987L356.115,63.91L356.158,63.834L356.244,63.682L356.329,63.531L356.415,63.38L356.5,63.23L356.586,63.08L356.628,63.006L356.671,62.932L356.713,62.857L356.798,62.709L356.883,62.562L356.925,62.488L356.968,62.415L357.01,62.342L357.094,62.196L357.136,62.123L357.221,61.978L357.305,61.833L357.347,61.761L357.431,61.618L357.472,61.546L357.556,61.403L357.64,61.261L357.681,61.19L357.765,61.049L357.806,60.978L357.889,60.838L357.931,60.768L358.014,60.628L358.055,60.558L358.138,60.42L358.22,60.281L358.262,60.212L358.303,60.143L358.344,60.075L358.385,60.006L358.426,59.938L358.467,59.87L358.549,59.734L358.631,59.598L358.713,59.463L358.754,59.396L358.795,59.328L358.876,59.195L358.917,59.128L358.998,58.995L359.039,58.928L359.079,58.862L359.16,58.73L359.241,58.598L359.322,58.467L359.403,58.337L359.443,58.272L359.483,58.207L359.564,58.077L359.604,58.013L359.644,57.948L359.684,57.884L359.724,57.82L359.764,57.756L359.804,57.692L359.844,57.628L359.884,57.565L359.924,57.501L360.004,57.374L360.044,57.311L360.084,57.248L360.123,57.185L360.203,57.06L360.242,56.998L360.282,56.935L360.361,56.811L360.401,56.749L360.44,56.687L360.519,56.563L360.559,56.502L360.637,56.379L360.677,56.318L360.716,56.257L360.795,56.135L360.834,56.075L360.873,56.014L360.912,55.954L360.951,55.894L361.029,55.773L361.068,55.713L361.107,55.654L361.146,55.594L361.185,55.534L361.224,55.475L361.263,55.415L361.302,55.356L361.341,55.297L361.38,55.238L361.418,55.179L361.496,55.062L361.534,55.003L361.573,54.945L361.65,54.829L361.689,54.771L361.766,54.655L361.804,54.597L361.881,54.482L361.92,54.425L361.958,54.367L362.034,54.253L362.073,54.196L362.111,54.14L362.187,54.026L362.226,53.97L362.264,53.914L362.302,53.857L362.378,53.745L362.454,53.634L362.492,53.578L362.53,53.522L362.568,53.467L362.606,53.412L362.643,53.356L362.681,53.301L362.719,53.246L362.757,53.191L362.794,53.137L362.87,53.027L362.907,52.973L362.983,52.864L363.02,52.81L363.058,52.756L363.095,52.702L363.17,52.595L363.208,52.541L363.282,52.434L363.32,52.381L363.394,52.275L363.432,52.222L363.506,52.116L363.543,52.064L363.58,52.011L363.618,51.959L363.692,51.854L363.729,51.802L363.766,51.75L363.803,51.698L363.877,51.595L363.95,51.492L363.987,51.44L364.024,51.389L364.061,51.338L364.098,51.287L364.134,51.236L364.208,51.134L364.245,51.084L364.281,51.033L364.318,50.982L364.354,50.932L364.391,50.882L364.428,50.832L364.464,50.782L364.537,50.682L364.573,50.632L364.646,50.533L364.683,50.483L364.755,50.385L364.792,50.336L364.828,50.286L364.864,50.237L364.936,50.14L364.973,50.091L365.009,50.043L365.081,49.946L365.117,49.897L365.189,49.801L365.225,49.753L365.297,49.657L365.369,49.562L365.44,49.467L365.512,49.372L365.548,49.325L365.619,49.231L365.69,49.138L365.761,49.044L365.833,48.952L365.904,48.859L365.939,48.813L366.01,48.721L366.081,48.629L366.116,48.584L366.187,48.493L366.257,48.402L366.292,48.357L366.363,48.267L366.433,48.177L366.468,48.132L366.538,48.043L366.608,47.954L366.678,47.865L366.748,47.777L366.818,47.689L366.888,47.602L366.922,47.558L366.992,47.471L367.061,47.385L367.131,47.298L367.2,47.212L367.235,47.17L367.304,47.084L367.373,46.999L367.407,46.957L367.476,46.872L367.545,46.788L367.613,46.704L367.682,46.62L367.751,46.537L367.819,46.454L367.887,46.372L367.956,46.29L368.024,46.208L368.092,46.126L368.16,46.045L368.194,46.004L368.261,45.924L368.329,45.843L368.397,45.763L368.464,45.683L368.498,45.644L368.565,45.564L368.633,45.485L368.7,45.406L368.767,45.328L368.834,45.25L368.868,45.211L368.935,45.134L369.001,45.056L369.035,45.018L369.102,44.941L369.168,44.864L369.235,44.788L369.268,44.75L369.334,44.674L369.401,44.599L369.467,44.524L369.5,44.486L369.566,44.412L369.599,44.374L369.665,44.3L369.731,44.226L369.797,44.153L369.83,44.116L369.895,44.043L369.928,44.006L369.994,43.933L370.059,43.861L370.124,43.789L370.19,43.717L370.255,43.645L370.32,43.574L370.385,43.503L370.45,43.432L370.483,43.397L370.547,43.326L370.58,43.291L370.645,43.221L370.677,43.186L370.741,43.117L370.774,43.082L370.838,43.013L370.87,42.979L370.935,42.91L370.967,42.876L371.031,42.808L371.063,42.774L371.127,42.706L371.159,42.672L371.223,42.604L371.255,42.571L371.319,42.504L371.351,42.47L371.415,42.404L371.478,42.337L371.542,42.271L371.606,42.205L371.669,42.14L371.701,42.107L371.764,42.042L371.827,41.977L371.89,41.912L371.953,41.848L371.985,41.816L372.016,41.784L372.079,41.72L372.142,41.656L372.205,41.593L372.268,41.529L372.33,41.467L372.393,41.404L372.455,41.342L372.486,41.31L372.549,41.248L372.611,41.187L372.642,41.156L372.704,41.094L372.766,41.033L372.828,40.972L372.89,40.912L372.952,40.851L373.014,40.791L373.045,40.761L373.107,40.701L373.168,40.642L373.23,40.582L373.291,40.523L373.352,40.464L373.414,40.406L373.475,40.347L373.536,40.289L373.628,40.202L373.689,40.145L373.78,40.059L373.841,40.002L373.932,39.917L373.992,39.86L374.053,39.804L374.113,39.748L374.174,39.692L374.234,39.636L374.294,39.581L374.355,39.526L374.415,39.471L374.475,39.416L374.535,39.362L374.595,39.308L374.654,39.254L374.714,39.2L374.774,39.146L374.833,39.093L374.893,39.04L374.952,38.987L375.012,38.934L375.071,38.882L375.13,38.829L375.19,38.777L375.249,38.725L375.308,38.673L375.367,38.622L375.426,38.571L375.485,38.52L375.543,38.469L375.602,38.418L375.661,38.368L375.719,38.317L375.778,38.267L375.836,38.217L375.895,38.168L375.953,38.118L376.011,38.069L376.07,38.02L376.128,37.971L376.215,37.898L376.273,37.85L376.331,37.801L376.388,37.753L376.446,37.706L376.504,37.658L376.561,37.61L376.619,37.563L376.677,37.516L376.734,37.469L376.791,37.423L376.849,37.376L376.906,37.33L376.963,37.284L377.02,37.238L377.077,37.192L377.134,37.146L377.22,37.078L377.305,37.011L377.39,36.943L377.446,36.899L377.503,36.854L377.56,36.81L377.616,36.766L377.672,36.722L377.729,36.679L377.785,36.635L377.841,36.592L377.897,36.548L377.953,36.505L378.009,36.463L378.065,36.42L378.121,36.377L378.177,36.335L378.233,36.293L378.289,36.251L378.344,36.209L378.4,36.167L378.455,36.126L378.511,36.085L378.566,36.044L378.622,36.003L378.677,35.962L378.732,35.921L378.787,35.88L378.87,35.82L378.925,35.78L378.98,35.74L379.035,35.7L379.09,35.661L379.144,35.621L379.199,35.582L379.254,35.543L379.308,35.504L379.363,35.465L379.445,35.407L379.499,35.368L379.553,35.33L379.608,35.292L379.662,35.254L379.716,35.216L379.77,35.178L379.851,35.122L379.905,35.085L379.986,35.029L380.067,34.974L380.147,34.919L380.228,34.864L380.308,34.81L380.388,34.756L380.442,34.72L380.495,34.684L380.575,34.631L380.655,34.578L380.708,34.543L380.761,34.508L380.814,34.473L380.893,34.421L380.973,34.369L381.026,34.335L381.105,34.283L381.184,34.232L381.236,34.199L381.315,34.148L381.394,34.098L381.472,34.048L381.551,33.999L381.603,33.966L381.681,33.917L381.733,33.885L381.811,33.836L381.863,33.804L381.915,33.772L381.993,33.724L382.044,33.692L382.122,33.645L382.199,33.598L382.251,33.566L382.328,33.52L382.405,33.474L382.482,33.427L382.559,33.382L382.636,33.336L382.712,33.291L382.789,33.246L382.865,33.201L382.942,33.157L383.018,33.113L383.094,33.069L383.17,33.025L383.246,32.982L383.321,32.939L383.372,32.91L383.447,32.867L383.523,32.825L383.598,32.783L383.673,32.741L383.749,32.699L383.798,32.671L383.873,32.63L383.948,32.589L384.023,32.548L384.098,32.508L384.172,32.468L384.246,32.428L384.321,32.388L384.395,32.348L384.469,32.309L384.543,32.27L384.617,32.231L384.69,32.192L384.764,32.154L384.837,32.116L384.911,32.078L384.984,32.04L385.057,32.003L385.13,31.965L385.203,31.928L385.276,31.891L385.349,31.855L385.422,31.818L385.494,31.782L385.567,31.746L385.663,31.699L385.735,31.663L385.808,31.628L385.856,31.605L385.928,31.57L385.999,31.535L386.071,31.501L386.143,31.466L386.214,31.432L386.286,31.398L386.357,31.365L386.428,31.331L386.523,31.287L386.594,31.254L386.665,31.221L386.736,31.189L386.807,31.156L386.877,31.124L386.948,31.092L387.018,31.06L387.089,31.029L387.182,30.987L387.253,30.956L387.323,30.925L387.392,30.894L387.462,30.863L387.532,30.833L387.602,30.802L387.671,30.772L387.741,30.742L387.81,30.713L387.902,30.673L387.994,30.634L388.063,30.605L388.132,30.576L388.224,30.538L388.316,30.5L388.384,30.472L388.453,30.444L388.521,30.416L388.612,30.379L388.703,30.342L388.771,30.315L388.862,30.279L388.93,30.252L388.997,30.225L389.087,30.189L389.177,30.154L389.267,30.119L389.335,30.093L389.424,30.059L389.514,30.025L389.603,29.991L389.692,29.957L389.759,29.932L389.848,29.899L389.936,29.866L390.025,29.834L390.113,29.801L390.202,29.769L390.29,29.737L390.378,29.706L390.466,29.674L390.553,29.643L390.641,29.612L390.728,29.582L390.815,29.551L390.902,29.521L390.989,29.491L391.054,29.469L391.141,29.44L391.227,29.411L391.335,29.374L391.421,29.346L391.507,29.317L391.593,29.289L391.679,29.261L391.765,29.233L391.85,29.206L391.935,29.178L392.021,29.151L392.127,29.117L392.212,29.091L392.317,29.058L392.402,29.032L392.486,29.006L392.592,28.974L392.676,28.948L392.76,28.923L392.843,28.898L392.927,28.873L393.031,28.842L393.115,28.817L393.198,28.793L393.281,28.769L393.364,28.745L393.467,28.716L393.571,28.686L393.674,28.657L393.777,28.629L393.879,28.6L393.982,28.572L394.064,28.55L394.145,28.528L394.247,28.5L394.349,28.473L394.45,28.446L394.552,28.42L394.653,28.393L394.774,28.362L394.875,28.336L394.975,28.311L395.075,28.286L395.175,28.261L395.275,28.236L395.395,28.206L395.494,28.182L395.594,28.158L395.693,28.135L395.811,28.106L395.93,28.079L396.028,28.056L396.146,28.028L396.264,28.001L396.361,27.979L396.459,27.957L396.576,27.931L396.692,27.906L396.789,27.884L396.886,27.863L397.002,27.838L397.098,27.818L397.195,27.797L397.291,27.777L397.406,27.753L397.52,27.73L397.616,27.71L397.711,27.691L397.825,27.668L397.92,27.649L398.033,27.627L398.147,27.605L398.278,27.579L398.372,27.561L398.485,27.54L398.597,27.519L398.709,27.498L398.821,27.478L398.933,27.457L399.063,27.434L399.174,27.414L399.285,27.394L399.395,27.375L399.505,27.356L399.616,27.337L399.725,27.318L399.853,27.297L399.981,27.276L400.108,27.255L400.217,27.237L400.344,27.217L400.47,27.197L400.578,27.18L400.704,27.16L400.829,27.141L400.954,27.122L401.097,27.1L401.221,27.082L401.363,27.061L401.487,27.043L401.628,27.023L401.751,27.006L401.892,26.986L402.032,26.967L402.154,26.95L402.294,26.932L402.415,26.916L402.554,26.897L402.692,26.88L402.813,26.864L402.967,26.845L403.122,26.826L403.258,26.809L403.395,26.792L403.531,26.776L403.683,26.758L403.835,26.741L403.97,26.725L404.121,26.708L404.255,26.694L404.406,26.677L404.556,26.661L404.689,26.647L404.838,26.631L405.003,26.614L405.151,26.599L405.315,26.583L405.463,26.568L405.626,26.553L405.789,26.537L405.951,26.522L406.112,26.507L406.274,26.493L406.434,26.478L406.594,26.465L406.738,26.452L406.913,26.437L407.088,26.423L407.246,26.41L407.419,26.396L407.592,26.383L407.764,26.369L407.935,26.356L408.122,26.343L408.292,26.33L408.478,26.317L408.662,26.304L408.846,26.291L409.044,26.278L409.227,26.266L409.424,26.253L409.605,26.242L409.801,26.23L410.01,26.217L410.219,26.205L410.413,26.194L410.62,26.182L410.826,26.171L411.046,26.159L411.251,26.149L411.47,26.138L411.687,26.127L411.904,26.116L412.119,26.106L412.348,26.096L412.591,26.085L412.817,26.075L413.057,26.065L413.31,26.055L413.562,26.045L413.812,26.035L414.048,26.026L414.323,26.016L414.584,26.007L414.843,25.998L415.101,25.99L415.384,25.981L415.666,25.973L415.919,25.965L416.185,25.958L416.476,25.95L416.765,25.942L417.065,25.934L417.364,25.927L417.686,25.92L417.994,25.913L418.3,25.906L418.617,25.9L418.969,25.893L419.294,25.887L419.667,25.88L420.012,25.874L420.355,25.869L420.732,25.863L421.107,25.857L421.454,25.853L421.847,25.848L422.213,25.843L422.635,25.838L423.065,25.834L423.538,25.829L424.051,25.824L424.481,25.82L424.941,25.816L425.451,25.813L425.99,25.809L426.631,25.805L427.285,25.801L427.857,25.798L428.486,25.795L429.179,25.793L429.933,25.79L430.546,25.788L431.182,25.786L431.937,25.784L432.863,25.782L433.912,25.78L434.932,25.779L436.111,25.777L437.061,25.776L438.287,25.776L440.134,25.775L442.157,25.774L443.221,25.774L444.659,25.773L446.637,25.773L448.125,25.773L449.433,25.773L450.674,25.773L451.86,25.773L453.025,25.773L454.265,25.773L455.451,25.773L456.586,25.773L457.807,25.773L459.018,25.773L461.059,25.773L463.133,25.773L547,25.773" style="fill:none;fill-rule:nonzero;stroke:rgb(205,223,241);stroke-width:8px;"/>
    </g>
    <path d="M53.5,451.5L570.5,451.5" style="fill:none;fill-rule:nonzero;stroke:black;stroke-width:1px;"/>
    <path d="M77.5,457.5L77.5,449.5M194.5,457.5L194.5,449.5M312.5,457.5L312.5,449.5M429.5,457.5L429.5,449.5M547.5,457.5L547.5,449.5" style="fill:none;fill-rule:nonzero;stroke:black;stroke-width:1px;"/>
    <path d="M58.5,455.5L58.5,451.5M65.5,455.5L65.5,451.5M71.5,455.5L71.5,451.5M77.5,455.5L77.5,451.5M77.5,455.5L77.5,451.5M112.5,455.5L112.5,451.5M133.5,455.5L133.5,451.5M147.5,455.5L147.5,451.5M159.5,455.5L159.5,451.5M168.5,455.5L168.5,451.5M176.5,455.5L176.5,451.5M183.5,455.5L183.5,451.5M189.5,455.5L189.5,451.5M194.5,455.5L194.5,451.5M194.5,455.5L194.5,451.5M229.5,455.5L229.5,451.5M250.5,455.5L250.5,451.5M265.5,455.5L265.5,451.5M276.5,455.5L276.5,451.5M285.5,455.5L285.5,451.5M293.5,455.5L293.5,451.5M300.5,455.5L300.5,451.5M306.5,455.5L306.5,451.5M312.5,455.5L312.5,451.5M312.5,455.5L312.5,451.5M347.5,455.5L347.5,451.5M368.5,455.5L368.5,451.5M382.5,455.5L382.5,451.5M394.5,455.5L394.5,451.5M403.5,455.5L403.5,451.5M411.5,455.5L411.5,451.5M418.5,455.5L418.5,451.5M424.5,455.5L424.5,451.5M429.5,455.5L429.5,451.5M429.5,455.5L429.5,451.5M464.5,455.5L464.5,451.5M485.5,455.5L485.5,451.5M500.5,455.5L500.5,451.5M511.5,455.5L511.5,451.5M520.5,455.5L520.5,451.5M528.5,455.5L528.5,451.5M535.5,455.5L535.5,451.5M541.5,455.5L541.5,451.5M547.5,455.5L547.5,451.5M547.5,455.5L547.5,451.5" style="fill:none;fill-rule:nonzero;stroke:black;stroke-width:1px;"/>
    <g transform="matrix(1,0,0,1,66.4917,473.776)">
        <text x="0px" y="0px" style="font-family:'ArialMT', 'Arial', sans-serif;font-size:11px;fill:rgb(68,68,68);">10</text>
    </g>
    <g transform="matrix(1,0,0,1,78.725,468.252)">
        <text x="0px" y="0px" style="font-family:'ArialMT', 'Arial', sans-serif;font-size:7.7px;fill:rgb(68,68,68);">2</text>
    </g>
    <g transform="matrix(1,0,0,1,183.992,473.776)">
        <text x="0px" y="0px" style="font-family:'ArialMT', 'Arial', sans-serif;font-size:11px;fill:rgb(68,68,68);">10</text>
    </g>
    <g transform="matrix(1,0,0,1,196.225,468.252)">
        <text x="0px" y="0px" style="font-family:'ArialMT', 'Arial', sans-serif;font-size:7.7px;fill:rgb(68,68,68);">1</text>
    </g>
    <g transform="matrix(1,0,0,1,303.742,473.776)">
        <text x="0px" y="0px" style="font-family:'ArialMT', 'Arial', sans-serif;font-size:11px;fill:rgb(68,68,68);">10</text>
    </g>
    <g transform="matrix(1,0,0,1,315.975,468.252)">
        <text x="0px" y="0px" style="font-family:'ArialMT', 'Arial', sans-serif;font-size:7.7px;fill:rgb(68,68,68);">0</text>
    </g>
    <g transform="matrix(1,0,0,1,421.242,473.776)">
        <text x="0px" y="0px" style="font-family:'ArialMT', 'Arial', sans-serif;font-size:11px;fill:rgb(68,68,68);">10</text>
    </g>
    <g transform="matrix(1,0,0,1,433.475,468.252)">
        <text x="0px" y="0px" style="font-family:'ArialMT', 'Arial', sans-serif;font-size:7.7px;fill:rgb(68,68,68);">1</text>
    </g>
    <g transform="matrix(1,0,0,1,538.742,473.776)">
        <text x="0px" y="0px" style="font-family:'ArialMT', 'Arial', sans-serif;font-size:11px;fill:rgb(68,68,68);">10</text>
    </g>
    <g transform="matrix(1,0,0,1,550.975,468.252)">
        <text x="0px" y="0px" style="font-family:'ArialMT', 'Arial', sans-serif;font-size:7.7px;fill:rgb(68,68,68);">2</text>
    </g>
    <g transform="matrix(1,0,0,1,228.437,494.242)">
        <text x="-53.231px" y="0px" style="font-family:'Arial-ItalicMT', 'Arial', sans-serif;font-style:italic;font-size:13px;fill:rgb(68,68,68);">mutation rate of aA<tspan x="69.126px 72.738px " y="0px 0px "> /</tspan> mutation rate of <tspan x="173.418px 182.089px " y="0px 0px ">A</tspan>a</text>
    </g>
    <path d="M53.5,451.5L53.5,5.5" style="fill:none;fill-rule:nonzero;stroke:black;stroke-width:1px;"/>
    <path d="M47.5,435.5L55.5,435.5M47.5,353.5L55.5,353.5M47.5,271.5L55.5,271.5M47.5,189.5L55.5,189.5M47.5,107.5L55.5,107.5M47.5,25.5L55.5,25.5" style="fill:none;fill-rule:nonzero;stroke:black;stroke-width:1px;"/>
    <path d="M49.5,435.5L53.5,435.5M49.5,418.5L53.5,418.5M49.5,402.5L53.5,402.5M49.5,386.5L53.5,386.5M49.5,369.5L53.5,369.5M49.5,353.5L53.5,353.5M49.5,337.5L53.5,337.5M49.5,320.5L53.5,320.5M49.5,304.5L53.5,304.5M49.5,287.5L53.5,287.5M49.5,271.5L53.5,271.5M49.5,255.5L53.5,255.5M49.5,238.5L53.5,238.5M49.5,222.5L53.5,222.5M49.5,205.5L53.5,205.5M49.5,189.5L53.5,189.5M49.5,173.5L53.5,173.5M49.5,156.5L53.5,156.5M49.5,140.5L53.5,140.5M49.5,124.5L53.5,124.5M49.5,107.5L53.5,107.5M49.5,91.5L53.5,91.5M49.5,74.5L53.5,74.5M49.5,58.5L53.5,58.5M49.5,42.5L53.5,42.5M49.5,25.5L53.5,25.5M49.5,9.5L53.5,9.5" style="fill:none;fill-rule:nonzero;stroke:black;stroke-width:1px;"/>
    <g transform="matrix(1,0,0,1,36.3833,439.247)">
        <text x="0px" y="0px" style="font-family:'ArialMT', 'Arial', sans-serif;font-size:11px;fill:rgb(68,68,68);">0</text>
    </g>
    <g transform="matrix(1,0,0,1,27.2167,357.341)">
        <text x="0px" y="0px" style="font-family:'ArialMT', 'Arial', sans-serif;font-size:11px;fill:rgb(68,68,68);">0.2</text>
    </g>
    <g transform="matrix(1,0,0,1,27.2167,275.435)">
        <text x="0px" y="0px" style="font-family:'ArialMT', 'Arial', sans-serif;font-size:11px;fill:rgb(68,68,68);">0.4</text>
    </g>
    <g transform="matrix(1,0,0,1,27.2167,193.53)">
        <text x="0px" y="0px" style="font-family:'ArialMT', 'Arial', sans-serif;font-size:11px;fill:rgb(68,68,68);">0.6</text>
    </g>
    <g transform="matrix(1,0,0,1,27.2167,111.624)">
        <text x="0px" y="0px" style="font-family:'ArialMT', 'Arial', sans-serif;font-size:11px;fill:rgb(68,68,68);">0.8</text>
    </g>
    <g transform="matrix(1,0,0,1,36.3833,29.7178)">
        <text x="0px" y="0px" style="font-family:'ArialMT', 'Arial', sans-serif;font-size:11px;fill:rgb(68,68,68);">1</text>
    </g>
    <g transform="matrix(6.12323e-17,-1,1,6.12323e-17,16.3412,325.017)">
        <text x="0px" y="0px" style="font-family:'Arial-ItalicMT', 'Arial', sans-serif;font-style:italic;font-size:13px;fill:rgb(68,68,68);">probability of advantageous allele</text>
    </g>
    <clipPath id="_clip8">
        <path d="M53.5,5.5L570.5,5.5L570.5,451.5L53.5,451.5L53.5,5.5"/>
    </clipPath>
    <g clip-path="url(#_clip8)">
        <path d="M495.317,152.329L560.5,152.329L560.5,304.671L495.317,304.671L495.317,152.329" style="fill:white;fill-opacity:0.95;fill-rule:nonzero;stroke:rgb(229,229,229);stroke-opacity:0.5;stroke-width:1px;"/>
    </g>
    <g transform="matrix(1,0,0,1,530.317,196.671)">
        <text x="0px" y="0px" style="font-family:'ArialMT', 'Arial', sans-serif;font-size:13px;fill:rgb(68,68,68);">inf</text>
    </g>
    <clipPath id="_clip9">
        <path d="M53.5,5.5L570.5,5.5L570.5,451.5L53.5,451.5L53.5,5.5"/>
    </clipPath>
    <g clip-path="url(#_clip9)">
        <path d="M505.317,192.671L525.317,192.671" style="fill:none;fill-rule:nonzero;stroke:rgb(8,48,107);stroke-width:3px;"/>
    </g>
    <g transform="matrix(1,0,0,1,530.317,219.671)">
        <text x="0px" y="0px" style="font-family:'ArialMT', 'Arial', sans-serif;font-size:13px;fill:rgb(68,68,68);">3.0</text>
    </g>
    <clipPath id="_clip10">
        <path d="M53.5,5.5L570.5,5.5L570.5,451.5L53.5,451.5L53.5,5.5"/>
    </clipPath>
    <g clip-path="url(#_clip10)">
        <path d="M505.317,215.671L525.317,215.671" style="fill:none;fill-rule:nonzero;stroke:rgb(22,99,170);stroke-width:3px;"/>
    </g>
    <g transform="matrix(1,0,0,1,530.317,242.671)">
        <text x="0px" y="0px" style="font-family:'ArialMT', 'Arial', sans-serif;font-size:13px;fill:rgb(68,68,68);">1.0</text>
    </g>
    <clipPath id="_clip11">
        <path d="M53.5,5.5L570.5,5.5L570.5,451.5L53.5,451.5L53.5,5.5"/>
    </clipPath>
    <g clip-path="url(#_clip11)">
        <path d="M505.317,238.671L525.317,238.671" style="fill:none;fill-rule:nonzero;stroke:rgb(72,150,200);stroke-width:3px;"/>
    </g>
    <g transform="matrix(1,0,0,1,530.317,265.671)">
        <text x="0px" y="0px" style="font-family:'ArialMT', 'Arial', sans-serif;font-size:13px;fill:rgb(68,68,68);">0.1</text>
    </g>
    <clipPath id="_clip12">
        <path d="M53.5,5.5L570.5,5.5L570.5,451.5L53.5,451.5L53.5,5.5"/>
    </clipPath>
    <g clip-path="url(#_clip12)">
        <path d="M505.317,261.671L525.317,261.671" style="fill:none;fill-rule:nonzero;stroke:rgb(143,194,222);stroke-width:3px;"/>
    </g>
    <g transform="matrix(1,0,0,1,530.317,288.671)">
        <text x="0px" y="0px" style="font-family:'ArialMT', 'Arial', sans-serif;font-size:13px;fill:rgb(68,68,68);">0.0</text>
    </g>
    <clipPath id="_clip13">
        <path d="M53.5,5.5L570.5,5.5L570.5,451.5L53.5,451.5L53.5,5.5"/>
    </clipPath>
    <g clip-path="url(#_clip13)">
        <path d="M505.317,284.671L525.317,284.671" style="fill:none;fill-rule:nonzero;stroke:rgb(205,223,241);stroke-width:3px;"/>
    </g>
    <g transform="matrix(1,0,0,1,505.317,177.671)">
        <text x="0px" y="0px" style="font-family:'Arial-BoldItalicMT', 'Arial', sans-serif;font-weight:700;font-style:italic;font-size:13px;fill:rgb(68,68,68);">2N</text>
        <text x="16.618px" y="4.329px" style="font-family:'Arial-BoldItalicMT', 'Arial', sans-serif;font-weight:700;font-style:italic;font-size:7.579px;fill:rgb(68,68,68);">g</text>
        <text x="21.248px" y="0px" style="font-family:'Arial-BoldItalicMT', 'Arial', sans-serif;font-weight:700;font-style:italic;font-size:13px;fill:rgb(68,68,68);">s =</text>
    </g>
</svg>
