<?xml version="1.0" encoding="UTF-8" standalone="no"?>
<!DOCTYPE svg PUBLIC "-//W3C//DTD SVG 1.1//EN" "http://www.w3.org/Graphics/SVG/1.1/DTD/svg11.dtd">
<svg width="100%" height="100%" viewBox="0 0 576 312" version="1.1" xmlns="http://www.w3.org/2000/svg" xmlns:xlink="http://www.w3.org/1999/xlink" xml:space="preserve" xmlns:serif="http://www.serif.com/" style="fill-rule:evenodd;clip-rule:evenodd;stroke-linejoin:round;stroke-miterlimit:1.5;">
    <g transform="matrix(1,0,0,1,-36.7626,-17.8199)">
        <g transform="matrix(1.0191,0,0,1.0724,-23.1458,-4.04112)">
            <g transform="matrix(1.08475,0,0,1.03084,47.3331,-12.3637)">
                <rect x="59.077" y="35.982" width="50.96" height="42.914" style="fill:none;stroke:black;stroke-width:0.85px;stroke-dasharray:0.85,0.85;"/>
            </g>
            <g transform="matrix(1.08475,0,0,1.03084,47.3331,-12.3637)">
                <path d="M148.573,79.983C148.224,80.949 148.112,82.059 148.353,83.059C148.597,84.072 149.232,85.488 150.038,86.062C150.843,86.635 152.418,86.953 153.187,86.501C153.956,86.049 154.42,84.414 154.652,83.352C154.881,82.302 154.92,81.142 154.579,80.129C154.237,79.116 153.272,77.798 152.601,77.273C152.057,76.848 151.106,76.57 150.55,76.98C148.832,78.246 148.939,78.97 148.573,79.983Z" style="fill:none;stroke:black;stroke-width:0.9px;stroke-linecap:round;"/>
            </g>
            <g transform="matrix(1.08475,0,0,1.03084,47.3331,-12.3637)">
                <path d="M155.677,83.791C155.945,84.851 156.471,86.184 157.288,86.647C158.106,87.111 159.791,87.136 160.584,86.574C161.378,86.013 161.939,84.389 162.049,83.278C162.159,82.168 161.671,80.886 161.243,79.909C160.836,78.979 160.206,77.883 159.486,77.419C158.765,76.955 157.606,76.846 156.922,77.126C156.239,77.407 155.538,78.283 155.384,79.104C155.177,80.215 155.36,82.534 155.677,83.791Z" style="fill:none;stroke:black;stroke-width:0.9px;stroke-linecap:round;"/>
            </g>
            <g transform="matrix(1.08475,0,0,1.03084,47.3331,-12.3637)">
                <path d="M161.976,78.884C162.006,77.796 162.452,76.418 163.074,75.808C163.697,75.198 164.869,74.941 165.711,75.222C166.553,75.503 167.615,76.565 168.128,77.493C168.64,78.42 168.689,79.726 168.787,80.788C168.881,81.81 168.897,83.022 168.714,83.864C168.556,84.59 168.274,85.488 167.688,85.842C167.102,86.196 165.964,86.313 165.198,85.988C164.393,85.647 163.297,84.766 162.855,83.791C162.318,82.607 161.939,80.215 161.976,78.884Z" style="fill:none;stroke:black;stroke-width:0.9px;stroke-linecap:round;"/>
            </g>
            <g transform="matrix(1.08475,0,0,1.03084,47.3331,-12.3637)">
                <path d="M168.64,76.321C168.673,75.481 169.068,74.478 169.739,74.05C170.41,73.623 171.818,73.268 172.669,73.757C173.645,74.319 175.122,75.979 175.598,77.419C176.074,78.86 175.757,81.264 175.525,82.4C175.374,83.136 174.744,83.852 174.207,84.231C173.674,84.606 172.876,84.979 172.302,84.67C171.509,84.243 170.001,82.932 169.446,81.667C168.836,80.276 168.592,77.59 168.64,76.321Z" style="fill:none;stroke:black;stroke-width:0.9px;stroke-linecap:round;"/>
            </g>
            <g transform="matrix(1.08475,0,0,1.03084,47.3331,-12.3637)">
                <path d="M39.444,46.3C40.515,45.182 43.635,44.486 45.87,44.344C52.482,43.925 70.549,43.692 79.117,43.785C85.181,43.851 88.197,43.972 97.277,44.903C100.56,45.24 103.687,46.533 106.776,47.697C109.989,48.908 113.361,50.54 116.554,52.167C121.397,54.635 130.663,60.129 135.832,62.504C139.578,64.226 143.513,65.659 147.566,66.416C151.803,67.207 156.733,67.925 161.256,67.254C165.959,66.555 171.282,64.673 175.784,62.225C183.746,57.894 201.72,45.741 209.031,41.271C212.48,39.162 215.8,36.648 219.647,35.404C224.257,33.914 231.242,32.657 236.69,32.331C241.909,32.018 246.14,32.371 252.335,33.448C262.829,35.272 277.713,46.486 286.979,53.564C295.095,59.763 307.095,73.261 307.933,75.915C308.771,78.569 297.175,71.952 292.008,69.489C283.021,65.205 262.533,53.564 254.012,50.211C249.93,48.606 245.198,48.602 240.88,49.373C235.665,50.304 228.455,52.911 222.72,55.799C216.341,59.012 209.431,64.563 202.605,68.651C195.294,73.028 184.352,79.221 178.857,82.061C175.923,83.578 172.918,85.31 169.637,85.693C164.05,86.345 152.734,86.997 145.331,85.973C138.358,85.008 130.896,82.108 125.215,79.547C120.175,77.275 116.135,73.074 111.246,70.606C106.357,68.139 101.184,66.125 95.88,64.739C87.498,62.551 68.826,59.198 60.957,57.475C56.83,56.572 52.249,55.473 48.664,54.402C45.53,53.466 40.98,52.4 39.444,51.049C38.255,50.004 38.373,47.417 39.444,46.3Z" style="fill:none;stroke:black;stroke-width:0.9px;stroke-linecap:round;"/>
            </g>
            <g transform="matrix(1.08475,0,0,1.03084,47.3331,-12.3637)">
                <path d="M68.114,51.96L38.704,47.725L68.114,51.96Z" style="fill:none;stroke:black;stroke-width:0.9px;stroke-linecap:round;"/>
            </g>
            <g transform="matrix(1.08475,0,0,1.03084,47.3331,-12.3637)">
                <path d="M68.825,50.046C69.606,49.116 71.603,48.052 73.258,48.324C75.362,48.67 76.598,50.174 77.955,50.815C80.013,51.788 84.36,52.104 86.725,51.971C88.643,51.862 90.792,51.044 92.145,50.014C92.942,49.408 95.369,49.213 96.608,49.442C97.774,49.657 99.121,50.296 99.584,51.387C100.06,52.513 99.723,54.786 99.469,56.194C99.238,57.475 98.613,59.072 98.06,59.835C97.644,60.409 96.856,60.699 96.151,60.771C95.184,60.87 93.415,61.029 92.26,60.428C90.681,59.606 88.433,56.728 86.679,55.841C85.191,55.088 83.14,55.18 81.732,55.102C80.562,55.037 79.238,55.114 78.227,55.372C77.302,55.608 76.606,56.486 75.666,56.651C74.458,56.865 72.157,57.109 70.975,56.651C69.84,56.212 68.93,55.006 68.571,53.905C68.213,52.804 68.044,50.976 68.825,50.046Z" style="fill:none;stroke:black;stroke-width:0.9px;stroke-linecap:round;"/>
            </g>
            <g transform="matrix(1.08475,0,0,1.03084,46.3492,-11.3492)">
                <path d="M59.251,79.112C46.138,95.651 33.026,112.191 19.914,128.731L20.366,129.09C33.479,112.55 46.591,96.01 59.704,79.471L59.251,79.112Z"/>
            </g>
            <g transform="matrix(1.08475,0,0,1.03084,47.9009,-11.4967)">
                <path d="M110.437,79.291C166.687,98.364 222.936,117.437 279.186,136.509" style="fill:none;stroke:black;stroke-width:0.6px;"/>
            </g>
            <g transform="matrix(1.91161,0.104696,-0.0769008,1.268,-333.038,-1.56396)">
                <path d="M209.654,116.249C209.596,114.872 209.934,113.521 210.588,112.509C211.242,111.496 212.156,110.91 213.119,110.885C221.346,110.766 231.196,111.021 235.618,110.334C237.619,110.023 238.403,107.34 240.081,106.214C241.759,105.089 243.857,104.25 245.688,103.582C247.427,102.949 249.22,102.323 251.067,102.209C253.241,102.076 256.674,102.285 258.734,102.781C260.442,103.193 261.981,104.184 263.426,105.185C264.914,106.214 266.367,107.581 267.66,108.961C269.358,110.773 270.541,115.736 273.611,116.056C283.128,117.048 315.437,116.342 324.764,114.912C327.682,114.464 328.178,109.438 329.57,107.473C330.652,105.947 331.763,104.345 333.118,103.125C334.469,101.906 336.055,100.893 337.695,100.149C339.335,99.405 341.624,99.043 342.959,98.662C343.876,98.4 344.752,97.842 345.706,97.861C347.632,97.899 352.476,98.547 354.517,98.891C355.695,99.089 356.855,99.444 357.95,99.92C359.266,100.493 361.064,101.307 362.413,102.324C363.958,103.487 366.018,105.547 367.22,106.901C368.168,107.969 368.948,109.19 369.623,110.449C370.328,111.765 371.053,113.443 371.454,114.797C371.815,116.018 371.992,117.301 372.026,118.574C372.064,120.023 371.816,122.312 371.683,123.494C371.599,124.23 371.488,124.976 371.225,125.669C370.71,127.023 368.822,129.807 368.593,131.619C368.381,133.299 369.777,134.849 369.852,136.54C369.947,138.714 369.604,142.548 369.165,144.665C368.829,146.288 368.097,147.907 367.22,149.242C366.345,150.573 364.95,151.646 363.901,152.675C362.938,153.621 362.092,154.743 360.926,155.422C359.648,156.166 357.819,156.628 356.234,157.138C354.574,157.673 352.791,158.543 350.97,158.626C348.452,158.741 343.951,158.416 341.128,157.825C338.646,157.305 335.54,155.861 334.033,155.079C333.219,154.656 332.602,153.892 332.088,153.133C330.962,151.474 328.521,146.801 327.281,145.123C326.619,144.227 325.75,143.235 324.649,143.063C316.334,141.766 286.084,138.276 277.387,137.341C275.756,137.166 273.554,137.284 272.466,137.455C271.859,137.551 271.265,137.951 270.864,138.371C270.464,138.791 270.439,139.509 270.063,139.973C269.491,140.679 268.45,141.897 267.431,142.605C266.306,143.387 264.763,144.165 263.312,144.665C261.595,145.256 259.249,146.066 257.132,146.153C253.852,146.286 246.585,145.943 243.629,145.466C242.062,145.213 240.646,144.267 239.394,143.292C237.754,142.014 235.027,138.81 233.787,137.799C233.291,137.395 232.592,137.296 231.956,137.227C229.095,136.913 218.806,135.987 213.562,135.519C211.781,135.358 210.363,133.319 210.257,130.766C210.086,126.664 209.834,120.586 209.654,116.249Z" style="fill:rgb(160,160,160);"/>
            </g>
            <g transform="matrix(1.08475,0,0,1.03084,58.6207,-13.2575)">
                <path d="M159.138,192.432C160.628,191.798 162.826,188.893 164.726,188.185C166.541,187.509 168.827,187.275 170.537,188.185C172.288,189.116 174.562,191.434 175.23,193.773C175.975,196.38 175.864,200.999 175.007,203.83C174.187,206.541 172.139,209.455 170.09,210.759C168.041,212.063 164.837,212.361 162.714,211.653C160.591,210.945 158.227,208.829 157.35,206.513C156.418,204.054 158.193,198.782 157.126,196.902C156.074,195.046 152.781,195.376 150.95,195.228C149.332,195.097 147.667,195.455 146.142,196.013C144.564,196.59 142.809,197.487 141.481,198.69C139.959,200.067 138.333,202.348 137.011,204.277C135.706,206.181 133.987,208.005 133.543,210.269C132.927,213.416 133.104,219.61 133.309,223.156C133.473,225.99 134.196,228.769 134.775,231.545C135.355,234.322 136.191,237.208 136.787,239.815C137.347,242.265 137.971,244.707 138.352,247.191C138.985,251.326 139.767,260.676 140.587,264.625C141.048,266.847 142.3,269.169 143.269,270.883C144.105,272.362 145.083,273.83 146.398,274.906C148.037,276.247 150.693,277.936 153.103,278.929C159.883,281.723 178.509,289.36 187.076,291.669C192.699,293.185 200.934,293.159 204.51,292.787C206.246,292.606 207.974,290.589 208.533,289.434C209.061,288.342 208.68,286.754 207.863,285.858C206.708,284.591 203.89,282.798 201.604,281.835C197.805,280.233 190.354,277.886 185.065,276.247C180.04,274.69 174.82,273.77 169.866,272C163.608,269.765 150.607,265.146 147.515,262.837C145.903,261.632 149.232,256.565 151.315,258.143C153.427,259.743 159.268,262.084 163.385,263.731C167.855,265.519 173.133,267.427 178.136,268.871C183.426,270.399 190.764,271.628 195.123,272.894C198.271,273.81 201.753,275.428 204.287,276.471C206.322,277.309 208.501,277.915 210.321,279.153C212.184,280.419 214.307,282.207 215.462,284.07C216.605,285.914 217.827,288.237 217.25,290.328C216.654,292.489 214.009,295.432 211.886,297.033C209.776,298.625 207.108,299.454 204.51,299.939C201.716,300.461 198.201,300.727 195.123,300.162C190.653,299.343 182.383,296.326 177.689,295.022C174.137,294.035 170.388,293.697 166.961,292.34C161.787,290.29 151.117,285.203 146.648,282.723C144.211,281.371 141.923,279.586 140.15,277.463C138.378,275.34 136.723,272.743 136.013,269.984C135.007,266.076 134.879,259.175 134.116,254.016C133.373,248.996 132.18,243.222 131.434,239.03C130.83,235.642 129.834,232.299 129.635,228.863C129.335,223.705 128.051,214.299 129.635,208.077C131.129,202.208 136.613,197.302 140.68,194.039C142.868,192.283 146.432,191.558 148.949,191.216C151.221,190.907 154.087,191.782 155.785,191.985C156.905,192.118 158.1,192.873 159.138,192.432Z" style="fill:rgb(255,182,0);"/>
            </g>
            <g transform="matrix(1.08475,0,0,1.03084,76.5583,92.6365)">
                <text x="176.784px" y="165.783px" style="font-family:'Arial-BoldMT', 'Arial', sans-serif;font-weight:700;font-size:21.33px;fill:rgb(255,182,0);">loop</text>
            </g>
            <g transform="matrix(1.08475,0,0,1.03084,36.0984,-19.886)">
                <text x="176.784px" y="165.783px" style="font-family:'ArialMT', 'Arial', sans-serif;font-size:21.33px;fill:rgb(160,160,160);">phayrnx</text>
            </g>
            <g transform="matrix(1.08475,0,0,1.03084,-59.2522,55.1065)">
                <text x="176.784px" y="165.783px" style="font-family:'Arial-BoldMT', 'Arial', sans-serif;font-weight:700;font-size:21.33px;fill:rgb(235,86,58);">nrV</text>
            </g>
            <g transform="matrix(1.08475,0,0,1.03084,-59.7257,-24.0035)">
                <text x="176.784px" y="165.783px" style="font-family:'Arial-BoldMT', 'Arial', sans-serif;font-weight:700;font-size:21.33px;fill:rgb(68,169,204);">nrD</text>
            </g>
            <g transform="matrix(1.08475,0,0,1.03084,58.6207,-13.2575)">
                <path d="M150.663,257.417C148.13,254.348 136.84,249.209 131.352,243.47C125.511,237.361 119.223,227.199 115.617,220.762C112.852,215.826 110.73,209.825 109.717,204.848C108.789,200.292 109.792,193.256 109.538,190.901C109.381,189.445 102.591,189.931 102.564,190.722C102.451,194.068 102.194,198.013 102.564,201.63C102.952,205.414 103.645,209.619 104.889,213.431C106.308,217.781 108.514,223.215 111.081,227.731C113.702,232.34 117.709,237.449 120.611,241.086C123.015,244.099 125.484,247.138 128.491,249.55C132.815,253.017 142.856,260.576 146.551,261.887C148.459,262.564 151.952,258.979 150.663,257.417Z" style="fill:rgb(235,86,58);"/>
            </g>
            <g transform="matrix(1.08475,0,0,1.03084,58.6207,-13.2575)">
                <path d="M109.608,190.619C109.84,185.886 108.971,168.498 109.791,162.055C110.107,159.573 110.661,156.501 111.439,154.731C112.039,153.367 113.605,151.985 114.46,151.436C115.05,151.056 116.091,150.919 116.565,151.436C118.122,153.129 122.486,158.271 123.798,161.598C124.999,164.641 124.203,168.13 124.439,171.393C124.698,174.979 123.147,182.822 125.354,183.112C127.633,183.411 125.629,183.386 128.284,183.478C129.511,183.52 128.706,178.842 128.65,176.52C128.558,172.721 128.101,163.993 127.734,160.682C127.58,159.282 127.224,157.833 126.453,156.654C124.805,154.136 120.227,147.514 117.847,145.577C116.373,144.376 113.805,144.055 112.171,145.027C110.325,146.126 108.036,149.788 106.77,152.168C105.6,154.367 104.889,156.839 104.573,159.309C104.1,163.001 104.223,169.322 103.932,174.323C103.627,179.556 101.796,187.994 102.742,190.71C103.494,192.872 109.496,192.905 109.608,190.619Z" style="fill:rgb(68,169,204);"/>
            </g>
            <g transform="matrix(1.08475,0,0,1.03084,46.5044,-18.7312)">
                <path d="M12.474,140.811C16.474,139.72 24.474,137.538 30.634,137.319C48.678,136.679 95.475,136.679 120.736,136.97C141.235,137.206 161.723,138.103 182.201,139.065C203.271,140.055 228.998,141.568 247.158,142.907C261.852,143.99 281.391,146.062 291.161,147.097" style="fill:none;stroke:black;stroke-width:1.81px;"/>
            </g>
            <g transform="matrix(1.08475,0,0,1.03084,57.3519,-10.8675)">
                <path d="M275.795,307.394C261.631,307.433 233.305,307.511 213.631,306.696C194.969,305.923 176.34,304.364 157.754,302.505C137.965,300.526 110.725,297.209 94.893,294.822C84.079,293.192 73.47,290.417 62.764,288.187C51.588,285.859 37.444,283.53 27.841,280.853C20.031,278.676 10.104,274.307 5.141,272.122" style="fill:none;stroke:black;stroke-width:1.81px;"/>
            </g>
            <g transform="matrix(1.61383,0,0,1.53361,-259.95,-104.137)">
                <path d="M454.568,149.857C454.706,150.277 454.983,151.119 455.138,151.716C455.285,152.285 455.305,152.886 455.498,153.44C455.697,154.009 455.939,155.053 456.328,155.13C456.717,155.206 457.462,153.663 457.833,153.901C458.204,154.139 458.163,156.799 458.555,156.558C458.947,156.317 459.809,152.603 460.183,152.457C460.557,152.311 460.406,154.687 460.797,155.683C461.189,156.678 461.942,157.679 462.533,158.432C463.054,159.095 463.733,160.254 464.345,160.198C464.958,160.143 465.565,158.778 466.208,158.098C466.878,157.389 467.932,156.862 468.364,155.942C469.091,154.395 470.09,149.903 470.567,148.817C470.687,148.544 471.156,149.717 471.223,149.426C471.575,147.895 472.325,141.583 472.676,139.63C472.796,138.964 472.989,138.146 473.333,137.708C473.656,137.296 474.602,137.511 474.739,137.005C475.106,135.646 475.223,130.31 475.536,129.552C475.848,128.795 476.2,132.287 476.614,132.458C477.028,132.63 477.747,131.316 478.02,130.584C478.34,129.724 478.293,128.185 478.535,127.302C478.731,126.588 479.207,125.248 479.473,125.287C479.738,125.326 479.879,126.998 480.129,127.537C480.311,127.929 480.765,128.9 480.973,128.521C481.465,127.623 482.668,123.959 483.082,122.146C483.417,120.679 483.035,118.936 483.457,117.647C483.86,116.415 485.238,115.326 485.613,114.412C485.898,113.718 485.628,112.909 485.707,112.162C485.824,111.053 486.059,108.42 486.316,107.756C486.44,107.437 487.118,107.864 487.254,108.178C487.566,108.905 487.983,110.783 488.191,112.116C488.488,114.014 488.738,117.086 489.035,119.568C489.371,122.373 489.738,127.623 490.207,128.943C490.451,129.631 491.474,128.118 491.847,127.49C492.238,126.834 492.401,125.853 492.55,125.006C492.785,123.678 493.019,121.045 493.253,119.522C493.442,118.295 493.834,117.1 493.957,115.865C494.175,113.67 494.41,108.631 494.566,106.35C494.661,104.959 494.714,103.335 494.894,102.179C495.041,101.235 495.191,99.21 495.644,99.413C496.097,99.616 497.152,102.007 497.613,103.397C498.074,104.788 498.12,107.202 498.41,107.756C498.624,108.168 499.027,106.686 499.347,106.725C499.667,106.764 500.157,107.486 500.331,107.991C500.566,108.67 500.605,109.867 500.753,110.803C500.909,111.788 501.152,112.889 501.269,113.897C501.383,114.877 501.355,116.217 501.456,116.85C501.506,117.16 501.605,117.553 501.878,117.694C502.152,117.834 502.761,117.897 503.097,117.694C503.433,117.49 503.749,116.938 503.894,116.475C504.128,115.725 504.371,114.298 504.503,113.194C504.651,111.952 504.68,110.412 504.784,109.022C504.909,107.35 505.128,104.921 505.253,103.163C505.364,101.602 505.355,99.593 505.534,98.476C505.649,97.762 506.132,97.154 506.331,96.46C506.558,95.671 506.806,94.663 506.894,93.741C507.011,92.515 506.974,90.126 507.034,89.101C507.064,88.594 507.096,87.701 507.252,87.594C507.409,87.487 507.708,88.638 507.972,88.458C508.236,88.278 508.632,86.462 508.836,86.514C509.04,86.566 509.133,88.011 509.196,88.77C509.32,90.27 509.454,93.265 509.58,95.513C509.716,97.941 509.913,100.727 510.012,103.337C510.116,106.085 509.94,110.229 510.204,112.001C510.322,112.795 511.429,113.183 511.596,113.969C511.852,115.173 511.64,117.864 511.74,119.224C511.812,120.202 511.992,121.708 512.196,122.128C512.321,122.386 512.849,121.482 512.964,121.744C513.156,122.18 513.271,123.739 513.348,124.744C513.456,126.164 513.444,128.856 513.612,130.264C513.731,131.264 514.16,133.084 514.356,133.192C514.552,133.3 514.628,131.508 514.788,130.912C514.909,130.461 515.06,129.924 515.316,129.616C515.561,129.321 516.208,129.429 516.324,129.064C516.524,128.432 516.408,126.792 516.516,125.824C516.612,124.96 516.784,123.268 516.972,123.256C517.16,123.244 517.364,125.636 517.644,125.752C517.924,125.868 518.352,124.12 518.652,123.952C518.952,123.784 519.304,124.398 519.444,124.744C519.66,125.28 519.856,126.44 519.948,127.168C520.029,127.811 519.869,128.476 519.996,129.112C520.156,129.916 520.745,130.998 520.908,131.992C521.204,133.796 521.5,138.979 521.772,139.935C521.985,140.685 522.232,138.111 522.539,137.727C522.766,137.446 523.412,137.927 523.619,137.632C523.863,137.284 523.747,135.988 524.003,135.64C524.232,135.329 524.939,135.225 525.155,135.544C525.419,135.932 525.387,138.239 525.587,137.967C525.787,137.696 526.187,135.22 526.355,133.912C526.517,132.656 526.407,130.572 526.595,130.12C526.774,129.69 527.203,131.004 527.483,131.2C527.701,131.352 528.081,131.114 528.275,131.296C528.515,131.52 528.695,132.832 528.923,132.544C529.151,132.256 529.335,129.964 529.643,129.568C529.905,129.232 530.53,130.519 530.771,130.168C531.063,129.744 531.131,127.396 531.395,127.024C531.651,126.664 531.971,127.972 532.355,127.936C532.739,127.9 533.323,126.4 533.699,126.808C534.075,127.216 534.311,130.272 534.611,130.384C534.911,130.496 535.255,128.156 535.499,127.48C535.645,127.076 535.779,126.324 536.075,126.328C536.371,126.332 536.999,127.088 537.275,127.504C537.532,127.892 537.707,128.359 537.731,128.824C537.795,130.052 537.587,133.516 537.659,134.872C537.697,135.587 538.107,136.246 538.163,136.96C538.251,138.079 538.071,140.303 538.187,141.591C538.282,142.643 538.551,143.687 538.859,144.687C539.166,145.685 539.713,148.099 540.035,147.591C540.357,147.083 540.536,142.043 540.79,141.639C541.043,141.236 541.314,144.567 541.558,145.172C541.644,145.388 542.051,145.145 542.249,145.268C542.495,145.422 542.873,146.437 543.036,146.094C543.212,145.722 543.173,144.054 543.305,143.041C543.455,141.883 543.777,140.057 543.938,139.144" style="fill:none;stroke:rgb(255,182,0);stroke-width:1.62px;"/>
            </g>
            <g transform="matrix(1.61383,0,0,1.53361,-259.95,-104.137)">
                <path d="M454.426,155.453C454.585,155.753 454.901,156.353 455.251,156.316C455.601,156.278 456.107,155.441 456.526,155.228C456.898,155.039 457.46,155.326 457.764,155.041C458.243,154.591 458.981,152.515 459.403,152.527C459.824,152.538 460.071,154.396 460.291,155.108C460.463,155.664 460.614,156.296 460.724,156.799C460.819,157.238 460.723,157.739 460.95,158.126C461.199,158.552 461.707,159.129 462.218,159.355C462.729,159.581 463.478,159.29 464.017,159.483C464.556,159.676 465.014,160.341 465.452,160.515C465.82,160.661 466.315,160.623 466.641,160.525C466.952,160.431 467.093,160.002 467.408,159.925C467.875,159.812 468.816,160.106 469.443,159.847C470.083,159.581 470.831,158.997 471.252,158.333C471.709,157.61 471.964,156.477 472.185,155.512C472.436,154.417 472.572,153.016 472.756,151.766C472.946,150.47 473.17,149.084 473.326,147.736C473.55,145.801 473.852,142.685 474.098,140.157C474.427,136.779 474.903,129.733 475.298,127.468C475.383,126.983 476.294,127.028 476.468,126.568C476.718,125.908 476.69,124.528 476.798,123.508C476.978,121.813 477.373,118.723 477.548,116.399C477.719,114.123 477.728,111.804 477.848,109.559C477.966,107.348 478.153,104.949 478.268,102.929C478.372,101.1 478.323,98.229 478.538,97.439C478.649,97.032 479.39,97.802 479.558,98.189C479.773,98.684 479.756,99.667 479.828,100.409C479.933,101.484 480.083,103.739 480.188,104.639C480.234,105.037 480.308,105.639 480.458,105.809C480.601,105.971 480.996,105.854 481.088,105.659C481.298,105.214 481.598,103.997 481.718,103.139C481.843,102.249 481.768,100.994 481.838,100.319C481.882,99.899 482.105,99.51 482.138,99.089C482.198,98.319 482.113,96.444 482.198,95.699C482.242,95.312 482.596,95.006 482.648,94.62C482.738,93.95 482.653,92.255 482.738,91.68C482.77,91.462 483.129,91.388 483.158,91.17C483.243,90.53 483.153,88.59 483.248,87.84C483.301,87.422 483.523,86.62 483.728,86.67C483.933,86.72 484.274,87.629 484.478,88.14C484.698,88.69 484.986,89.334 485.048,89.97C485.153,91.055 485.023,93.575 485.108,94.65C485.156,95.256 485.489,95.815 485.558,96.419C485.678,97.474 485.768,99.458 485.828,100.979C485.898,102.764 485.788,105.619 485.978,107.129C486.106,108.145 486.673,109.819 486.968,110.039C487.263,110.259 487.577,109.014 487.748,108.449C487.923,107.869 487.908,107.134 488.018,106.559C488.118,106.033 488.268,105.404 488.408,104.999C488.514,104.69 488.663,104.169 488.858,104.129C489.053,104.089 489.514,104.447 489.578,104.759C489.788,105.784 489.978,108.564 490.118,110.279C490.247,111.867 490.323,114.194 490.418,115.049C490.434,115.198 490.605,115.534 490.688,115.409C490.863,115.144 491.335,114.146 491.468,113.459C491.673,112.399 491.683,109.819 491.918,109.049C492.013,108.736 492.6,109.012 492.877,108.839C493.157,108.664 493.452,107.66 493.597,107.999C493.837,108.559 494.172,110.809 494.317,112.199C494.461,113.572 494.372,115.249 494.467,116.339C494.538,117.148 494.814,117.93 494.887,118.738C495.077,120.823 495.313,125.482 495.607,128.848C495.912,132.333 496.322,136.613 496.717,139.647C497.041,142.132 497.747,145.307 497.977,147.057C498.112,148.079 498.022,149.427 498.097,150.147C498.141,150.569 498.193,151.023 498.427,151.377C499.087,152.372 501.327,155.077 502.057,156.117C502.378,156.574 502.297,157.388 502.807,157.617C503.377,157.872 504.858,158.286 505.477,157.647C506.102,157.002 506.237,154.867 506.557,153.747C506.826,152.804 507.245,151.896 507.397,150.927C507.562,149.872 507.41,148.58 507.547,147.417C507.692,146.182 508.148,144.834 508.267,143.517C508.402,142.027 508.292,139.957 508.357,138.478C508.413,137.195 508.522,135.423 508.657,134.638C508.714,134.306 508.864,133.914 509.167,133.768C509.507,133.603 510.317,133.818 510.697,133.648C511.053,133.488 511.222,132.538 511.447,132.748C511.672,132.958 511.897,134.368 512.047,134.908C512.147,135.268 512.157,135.788 512.347,135.988C512.537,136.188 513.031,135.871 513.187,136.108C513.417,136.458 513.615,137.413 513.727,138.088C513.847,138.813 513.797,139.772 513.907,140.457C514.002,141.051 514.217,142.462 514.387,142.197C514.557,141.932 514.815,139.986 514.926,138.868C515.041,137.718 514.987,136.485 515.076,135.298C515.166,134.108 515.347,132.919 515.466,131.728C515.606,130.333 515.776,128.148 515.916,126.928C516.013,126.084 516.152,125.244 516.306,124.408C516.471,123.513 516.706,121.528 516.906,121.558C517.106,121.588 517.304,123.579 517.506,124.588C517.711,125.613 517.936,126.728 518.136,127.708C518.324,128.628 518.486,129.568 518.706,130.468C518.924,131.357 519.261,132.233 519.456,133.108C519.648,133.968 519.726,134.868 519.876,135.718C520.023,136.55 520.191,137.413 520.356,138.208C520.514,138.97 520.763,139.716 520.866,140.487C521.026,141.687 521.146,144.252 521.316,145.407C521.418,146.096 521.674,146.754 521.886,147.417C522.246,148.542 523.126,150.892 523.476,152.157C523.733,153.087 523.801,154.312 523.986,155.007C524.11,155.474 524.278,155.954 524.586,156.327C524.971,156.792 525.661,157.394 526.296,157.797C527.061,158.282 528.122,159.035 529.176,159.237C530.586,159.507 533.741,159.812 534.756,159.417C535.563,159.102 535.146,157.617 535.266,156.867C535.369,156.221 535.301,155.467 535.476,154.917C535.636,154.412 535.961,153.802 536.316,153.567C536.671,153.332 537.24,153.282 537.605,153.507C537.97,153.732 538.195,154.672 538.505,154.917C538.757,155.116 539.356,155.278 539.465,154.977C539.74,154.222 539.92,151.812 540.155,150.387C540.374,149.063 540.692,147.756 540.875,146.427C541.125,144.612 541.423,141.81 541.655,139.497C541.915,136.913 542.17,132.568 542.435,130.918C542.517,130.408 543.185,130.111 543.245,129.598C543.395,128.313 543.355,124.91 543.335,123.208" style="fill:none;stroke:rgb(68,169,204);stroke-width:1.62px;"/>
            </g>
            <g transform="matrix(1.61383,0,0,1.53361,-259.95,-104.137)">
                <path d="M454.457,108.072C454.59,109.428 454.857,112.14 455.02,114.071C455.176,115.932 455.307,118.096 455.432,119.659C455.533,120.922 455.501,122.408 455.77,123.446C455.999,124.333 456.79,125.002 457.044,125.883C457.326,126.858 457.305,128.16 457.457,129.296C457.691,131.043 458.117,135.068 458.451,136.369C458.554,136.771 459.377,136.694 459.458,137.101C459.885,139.252 460.602,147.492 461.014,149.277C461.144,149.838 461.696,147.286 461.93,147.812C462.601,149.323 464.356,156.494 465.042,158.34C465.176,158.699 465.79,159.012 466.049,158.89C466.309,158.767 466.508,158.064 466.599,157.608C466.751,156.845 466.889,155.243 466.965,154.312C467.027,153.551 466.832,152.459 467.057,152.023C467.254,151.639 468.096,152.075 468.311,151.7C468.56,151.267 468.49,150.182 468.551,149.42C468.621,148.55 468.476,147.221 468.731,146.481C468.95,145.845 469.921,145.634 470.081,144.981C470.291,144.126 469.931,142.141 469.991,141.351C470.021,140.953 470.406,140.639 470.441,140.241C470.506,139.511 470.306,137.596 470.381,136.971C470.409,136.739 470.852,136.721 470.891,136.491C470.996,135.881 470.916,134.121 471.011,133.311C471.079,132.735 471.311,131.471 471.461,131.631C471.611,131.791 471.698,133.404 471.911,134.271C472.126,135.146 472.545,135.991 472.751,136.881C472.971,137.831 473.123,138.934 473.231,139.971C473.386,141.451 473.526,144.686 473.681,145.761C473.72,146.03 474.026,146.185 474.161,146.421C474.496,147.006 475.361,148.4 475.691,149.27C475.976,150.022 475.936,150.965 476.141,151.64C476.32,152.231 476.646,153.16 476.921,153.32C477.196,153.48 477.511,152.53 477.791,152.6C478.071,152.67 478.174,153.552 478.601,153.74C479.146,153.98 480.349,154.46 481.061,154.04C481.891,153.55 483.081,151.9 483.581,150.8C484.049,149.77 483.837,148.55 484.061,147.441C484.311,146.201 484.756,144.546 485.081,143.361C485.36,142.342 485.726,141.076 486.011,140.331C486.206,139.821 486.556,139.141 486.791,138.891C486.935,138.737 487.286,138.669 487.42,138.831C487.665,139.126 488.048,140.024 488.26,140.661C488.49,141.351 488.639,142.197 488.8,142.971C488.97,143.786 489.08,144.699 489.28,145.551C489.49,146.441 489.88,147.621 490.06,148.31C490.179,148.766 490.155,149.64 490.36,149.69C490.565,149.74 490.938,148.93 491.29,148.61C491.72,148.221 492.575,147.906 492.94,147.351C493.305,146.796 493.39,145.988 493.48,145.281C493.63,144.101 493.77,141.944 493.84,140.271C493.94,137.881 493.98,133.481 494.08,130.941C494.158,128.969 494.095,126.626 494.44,125.032C494.725,123.715 495.894,122.694 496.15,121.372C496.495,119.592 496.38,116.152 496.51,114.352C496.601,113.088 496.745,111.507 496.93,110.572C497.057,109.933 497.43,108.407 497.62,108.742C497.81,109.077 498.005,111.295 498.07,112.582C498.165,114.452 497.99,119.117 498.19,119.962C498.386,120.789 498.97,117.812 499.27,117.652C499.57,117.492 499.695,118.697 499.99,119.002C500.257,119.278 500.84,119.153 501.04,119.482C501.32,119.942 501.503,120.991 501.67,121.762C501.85,122.592 501.95,123.592 502.12,124.462C502.285,125.307 502.56,126.331 502.69,126.981C502.781,127.438 502.78,128.011 502.9,128.361C502.995,128.64 503.185,129.156 503.41,129.081C503.635,129.006 504.078,128.36 504.25,127.911C504.43,127.441 504.403,126.81 504.49,126.261C504.6,125.561 504.765,124.552 504.91,123.712C505.053,122.88 505.25,121.947 505.36,121.222C505.453,120.605 505.4,119.822 505.57,119.362C505.71,118.983 506.17,118.387 506.38,118.462C506.59,118.537 506.75,119.344 506.83,119.812C506.965,120.602 507.075,122.071 507.19,123.202C507.33,124.582 507.513,126.461 507.67,128.091C507.828,129.738 507.906,131.611 508.141,133.08C508.348,134.376 508.859,135.73 509.078,136.905C509.276,137.969 509.326,139.055 509.453,140.13C509.584,141.236 509.703,142.408 509.866,143.542C510.034,144.717 510.111,146.003 510.466,147.179C511.009,148.986 512.503,152.923 513.128,154.379C513.376,154.956 513.865,155.973 514.215,155.917C514.565,155.86 514.834,154.448 515.228,154.042C515.567,153.692 516.284,153.804 516.578,153.479C516.872,153.154 516.697,152.223 516.99,152.092C517.284,151.96 517.946,152.698 518.34,152.692C518.734,152.685 519.009,152.017 519.353,152.054C519.696,152.092 520.003,152.985 520.403,152.917C520.803,152.848 521.646,152.252 521.753,151.642C522.09,149.704 522.159,143.786 522.428,141.292C522.596,139.732 523.099,138.226 523.365,136.68C523.652,135.011 523.727,132.549 524.152,131.28C524.452,130.386 525.646,129.972 525.915,129.068C526.259,127.912 526.13,125.919 526.215,124.343C526.359,121.668 526.602,115.675 526.777,113.018C526.879,111.476 527.015,108.144 527.265,108.406C527.515,108.669 527.984,113.256 528.277,114.593C528.419,115.24 528.765,116.2 529.027,116.431C529.262,116.638 529.571,115.85 529.852,115.981C530.133,116.112 530.421,117.281 530.715,117.218C531.008,117.156 531.34,115.181 531.615,115.606C531.89,116.031 532.14,118.524 532.365,119.768C532.564,120.868 532.803,121.962 532.965,123.068C533.158,124.393 533.065,126.449 533.527,127.718C533.949,128.876 535.404,129.494 535.739,130.68C536.296,132.649 536.546,137.036 536.864,139.53C537.125,141.567 537.383,143.955 537.652,145.642C537.867,146.99 538.252,148.698 538.477,149.654C538.615,150.239 538.646,151.129 539.002,151.379C539.358,151.629 540.189,150.979 540.614,151.154C541.039,151.329 541.066,152.224 541.552,152.429C542.07,152.648 543.175,152.527 543.727,152.467" style="fill:none;stroke:rgb(235,86,58);stroke-width:1.62px;"/>
            </g>
            <g transform="matrix(1.61383,0,0,1.53361,-135.271,-104.137)">
                <path d="M374.901,86.59L376.653,86.59L376.653,160.507L374.925,160.507" style="fill:none;"/>
            </g>
            <g transform="matrix(1.61383,0,0,1.53361,-135.271,-104.137)">
                <path d="M374.901,86.59L376.653,86.59L376.653,160.507L374.925,160.507" style="fill:none;stroke:black;stroke-width:0.41px;"/>
            </g>
            <g transform="matrix(1.61383,0,0,1.53361,-135.271,-104.137)">
                <path d="M376.653,101.239L374.925,101.239" style="fill:none;"/>
            </g>
            <g transform="matrix(1.61383,0,0,1.53361,-135.271,-81.1801)">
                <path d="M376.653,101.239L374.925,101.239" style="fill:none;"/>
            </g>
            <g transform="matrix(1.61383,0,0,1.53361,-135.271,-58.8211)">
                <path d="M376.653,101.239L374.925,101.239" style="fill:none;"/>
            </g>
            <g transform="matrix(1.61383,0,0,1.53361,-135.271,-35.7259)">
                <path d="M376.653,101.239L374.925,101.239" style="fill:none;"/>
            </g>
            <g transform="matrix(1.61383,0,0,1.53361,-135.968,-103.849)">
                <text x="368.847px" y="161.499px" style="font-family:'ArialMT', 'Arial', sans-serif;font-size:9.386px;">0</text>
            </g>
            <g transform="matrix(1.61383,0,0,1.53361,-144.392,-124.69)">
                <text x="368.847px" y="161.499px" style="font-family:'ArialMT', 'Arial', sans-serif;font-size:9.386px;">20</text>
            </g>
            <g transform="matrix(1.61383,0,0,1.53361,-144.392,-147.286)">
                <text x="368.847px" y="161.499px" style="font-family:'ArialMT', 'Arial', sans-serif;font-size:9.386px;">40</text>
            </g>
            <g transform="matrix(1.61383,0,0,1.53361,-144.392,-170.978)">
                <text x="368.847px" y="161.499px" style="font-family:'ArialMT', 'Arial', sans-serif;font-size:9.386px;">60</text>
            </g>
            <g transform="matrix(1.61383,0,0,1.53361,-144.392,-193.574)">
                <text x="368.847px" y="161.499px" style="font-family:'ArialMT', 'Arial', sans-serif;font-size:9.386px;">80</text>
            </g>
            <g transform="matrix(1.61383,0,0,1.53361,-152.816,-216.608)">
                <text x="368.847px" y="161.499px" style="font-family:'ArialMT', 'Arial', sans-serif;font-size:9.386px;">100</text>
            </g>
            <g transform="matrix(9.88185e-17,-1.53361,1.61383,9.39067e-17,170.782,674.153)">
                <text x="356.152px" y="161.499px" style="font-family:'ArialMT', 'Arial', sans-serif;font-size:9.386px;">scaled  <tspan x="387.98px " y="161.499px ">Δ</tspan></text>
                <text x="394.249px" y="161.499px" style="font-family:'Arial-ItalicMT', 'Arial', sans-serif;font-style:italic;font-size:9.386px;">F</text>
                <text x="402.421px" y="161.499px" style="font-family:'ArialMT', 'Arial', sans-serif;font-size:9.386px;">(%)</text>
            </g>
            <g transform="matrix(1.40231,0,0,3.78164,-152.923,-456.28)">
                <path d="M451.322,159.088L451.322,160.32L544.188,160.32L544.188,159.088" style="fill:none;stroke:black;stroke-width:0.22px;"/>
            </g>
            <g transform="matrix(1.08475,0,0,1.03084,-12.1375,-13.7275)">
                <text x="553.063px" y="40.892px" style="font-family:'Arial-BoldMT', 'Arial', sans-serif;font-weight:700;font-size:9.386px;fill:rgb(235,86,58);">nrV</text>
            </g>
            <g transform="matrix(1.08475,0,0,1.03084,-12.1375,-4.14288)">
                <text x="553.063px" y="40.892px" style="font-family:'Arial-BoldMT', 'Arial', sans-serif;font-weight:700;font-size:9.386px;fill:rgb(68,169,204);">nrD</text>
            </g>
            <g transform="matrix(1.08475,0,0,1.03084,-12.1176,5.62602)">
                <text x="553.063px" y="40.892px" style="font-family:'Arial-BoldMT', 'Arial', sans-serif;font-weight:700;font-size:9.386px;fill:rgb(255,182,0);">loop</text>
            </g>
            <g transform="matrix(1.61383,0,0,1.53361,-259.95,-99.5364)">
                <clipPath id="_clip1">
                    <rect x="458.511" y="172.864" width="80.635" height="73.136"/>
                </clipPath>
                <g clip-path="url(#_clip1)">
                    <path d="M452.904,214.829C453.086,215.259 453.45,216.118 453.747,216.282C454.044,216.446 454.458,215.618 454.685,215.814C454.911,216.009 455.013,216.915 455.107,217.454C455.198,217.979 455.083,218.72 455.247,219.048C455.385,219.323 455.884,219.651 456.091,219.423C456.536,218.931 457.65,217.332 457.919,216.095C458.271,214.478 458.075,211.843 458.2,209.72C458.341,207.337 458.575,204.337 458.763,201.799C458.943,199.361 459.153,196.518 459.325,194.486C459.463,192.86 459.669,190.893 459.794,189.612C459.885,188.674 459.737,187.679 460.075,186.799C460.489,185.721 461.848,184.073 462.278,183.143C462.552,182.551 462.335,181.791 462.653,181.221C463.067,180.479 464.169,178.932 464.762,178.69C465.321,178.462 465.755,179.581 466.215,179.768C466.621,179.933 467.208,179.714 467.528,179.815C467.791,179.899 467.872,180.37 468.137,180.378C468.403,180.385 468.915,179.555 469.122,179.862C469.395,180.268 469.699,181.81 469.778,182.815C469.926,184.698 469.933,188.377 470.012,191.158C470.114,194.729 470.278,199.876 470.387,204.236C470.512,209.212 470.598,217.149 470.762,221.016C470.853,223.165 471.215,225.618 471.371,227.438C471.5,228.936 471.582,230.563 471.7,231.938C471.806,233.189 471.879,234.625 472.075,235.688C472.24,236.587 472.7,237.516 472.871,238.312C473.024,239.019 472.957,239.867 473.106,240.469C473.233,240.985 473.515,241.451 473.762,241.922C474.082,242.531 474.715,243.695 475.028,244.125C475.168,244.318 475.399,244.507 475.637,244.5C475.879,244.492 476.238,244.278 476.481,244.078C476.746,243.859 476.86,243.303 477.231,243.187C477.629,243.062 478.449,243.164 478.871,243.328C479.252,243.476 479.559,243.929 479.762,244.172C479.91,244.348 479.862,244.745 480.09,244.781C480.691,244.875 482.707,244.922 483.371,244.734C483.784,244.617 483.832,243.75 484.074,243.656C484.316,243.562 484.642,243.929 484.824,244.172C485.011,244.422 484.967,244.893 485.199,245.156C485.433,245.421 485.886,245.632 486.23,245.765C486.556,245.891 486.94,246.091 487.261,245.953C487.714,245.757 488.441,244.851 488.949,244.593C489.357,244.386 489.949,244.343 490.308,244.406C490.628,244.462 490.79,244.886 491.105,244.968C491.433,245.054 491.972,245.167 492.277,244.922C492.597,244.664 492.831,243.836 493.027,243.422C493.179,243.099 493.406,242.792 493.449,242.437C493.558,241.531 493.621,239.469 493.683,237.984C493.784,235.547 493.932,231.203 494.058,227.813C494.199,224.016 494.375,219.407 494.527,215.204C494.683,210.884 494.816,205.564 494.995,201.892C495.138,198.983 495.425,195.814 495.605,193.174C495.766,190.799 495.925,188.049 496.073,186.049C496.194,184.423 496.37,182.432 496.495,181.175C496.584,180.282 496.422,179.305 496.823,178.503C497.245,177.659 498.433,176.487 499.026,176.112C499.412,175.869 499.949,176.383 500.386,176.253C501.042,176.058 502.292,174.8 502.964,174.94C503.636,175.081 504.003,176.87 504.417,177.097C504.798,177.305 505.277,175.9 505.448,176.3C505.8,177.12 506.37,180.085 506.526,182.018C506.76,184.924 506.712,189.831 506.854,193.736C507.057,199.322 507.495,210.173 507.745,215.532C507.906,218.987 508.059,222.445 508.354,225.891C508.659,229.446 509.221,234.414 509.573,236.859C509.753,238.116 509.768,239.578 510.463,240.562C511.159,241.547 512.885,242.344 513.744,242.765C514.314,243.045 514.985,243.099 515.619,243.093C516.58,243.086 518.643,243.609 519.51,242.718C520.377,241.828 520.61,239.45 520.822,237.75C521.119,235.367 521.196,231.534 521.291,228.422C521.4,224.837 521.361,219.985 521.478,216.235C521.586,212.795 521.838,209.204 521.994,205.923C522.143,202.799 522.244,199.353 522.416,196.549C522.568,194.061 522.885,191.237 523.025,189.096C523.143,187.301 523.127,185.338 523.26,183.706C523.38,182.23 523.182,180.55 523.822,179.3C524.463,178.05 526.15,176.808 527.103,176.206C527.805,175.763 528.798,175.878 529.541,175.69C530.221,175.518 530.916,174.8 531.556,175.081C532.197,175.362 533.023,176.468 533.384,177.378C533.759,178.323 533.715,179.623 533.806,180.753C533.931,182.299 534.006,184.691 534.134,186.659C534.29,189.065 534.623,192.341 534.743,195.189C534.892,198.689 534.876,203.517 535.025,207.658C535.173,211.785 535.4,216.079 535.634,220.032C535.858,223.816 536.095,228.297 536.431,231.375C536.692,233.77 536.986,236.539 537.65,238.5C538.227,240.205 539.821,242.351 540.415,243.14C540.576,243.354 540.981,243.369 541.212,243.234C541.626,242.992 542.337,242.148 542.899,241.687C543.436,241.248 544.25,241.075 544.587,240.469C544.938,239.836 544.94,238.759 545.009,237.891C545.165,235.906 545.395,231.674 545.524,228.563C545.673,225.001 545.782,220.532 545.899,216.517C546.019,212.425 546.167,206.815 546.241,204.011" style="fill:none;stroke:rgb(115,115,115);stroke-width:2.03px;"/>
                </g>
            </g>
            <g transform="matrix(1.61383,0,0,1.53361,-135.057,40.4902)">
                <path d="M376.653,101.239L374.925,101.239" style="fill:none;stroke:black;stroke-width:0.41px;"/>
            </g>
            <g transform="matrix(1.61383,0,0,1.53361,-135.057,67.5764)">
                <path d="M376.653,101.239L374.925,101.239" style="fill:none;stroke:black;stroke-width:0.41px;"/>
            </g>
            <g transform="matrix(1.61383,0,0,1.53361,-135.057,95.1801)">
                <path d="M376.653,101.239L374.925,101.239" style="fill:none;stroke:black;stroke-width:0.41px;"/>
            </g>
            <g transform="matrix(1.61383,0,0,1.48414,-135.057,39.6635)">
                <path d="M374.901,86.59L376.653,86.59L376.653,160.507L374.925,160.507" style="fill:none;stroke:black;stroke-width:0.41px;"/>
            </g>
            <g transform="matrix(1.61383,0,0,1.53361,-188.102,33.912)">
                <text x="368.847px" y="161.499px" style="font-family:'ArialMT', 'Arial', sans-serif;font-size:9.386px;">dorsal (-)</text>
            </g>
            <g transform="matrix(9.88185e-17,-1.53361,1.61383,9.39067e-17,160.508,815.863)">
                <text x="376.145px" y="161.499px" style="font-family:'ArialMT', 'Arial', sans-serif;font-size:9.386px;">head</text>
                <text x="368.847px" y="171.191px" style="font-family:'ArialMT', 'Arial', sans-serif;font-size:9.386px;">direction</text>
            </g>
            <g transform="matrix(1.61383,0,0,1.53361,-196.112,-77.7497)">
                <text x="368.847px" y="161.499px" style="font-family:'ArialMT', 'Arial', sans-serif;font-size:9.386px;">ventral (+)</text>
            </g>
            <g transform="matrix(1.61383,0,0,1.53361,-135.753,-19.35)">
                <text x="368.847px" y="161.499px" style="font-family:'ArialMT', 'Arial', sans-serif;font-size:9.386px;">0</text>
            </g>
            <g transform="matrix(1.61383,0,0,1.53361,-125.602,51.4196)">
                <text x="368.847px" y="161.499px" style="font-family:'ArialMT', 'Arial', sans-serif;font-size:9.386px;">20</text>
            </g>
            <g transform="matrix(1.61383,0,0,1.53361,6.21317,51.4196)">
                <text x="368.847px" y="161.499px" style="font-family:'ArialMT', 'Arial', sans-serif;font-size:9.386px;">40</text>
            </g>
            <g transform="matrix(1.40231,0,0,3.78164,-152.923,-320.745)">
                <path d="M451.322,159.088L451.322,160.32L544.188,160.32L544.188,159.088" style="fill:none;stroke:black;stroke-width:0.22px;"/>
            </g>
            <g transform="matrix(1.61383,0,0,1.53361,-77.1731,60.3667)">
                <text x="368.847px" y="161.499px" style="font-family:'ArialMT', 'Arial', sans-serif;font-size:9.386px;">time (s)</text>
            </g>
        </g>
    </g>
</svg>
