<?xml version="1.0" encoding="UTF-8" standalone="no"?>
<!DOCTYPE svg PUBLIC "-//W3C//DTD SVG 1.1//EN" "http://www.w3.org/Graphics/SVG/1.1/DTD/svg11.dtd">
<svg width="100%" height="100%" viewBox="0 0 3630 2010" version="1.1" xmlns="http://www.w3.org/2000/svg" xmlns:xlink="http://www.w3.org/1999/xlink" xml:space="preserve" xmlns:serif="http://www.serif.com/" style="fill-rule:evenodd;clip-rule:evenodd;stroke-linecap:round;stroke-linejoin:round;stroke-miterlimit:1.5;">
    <g transform="matrix(1,0,0,1,-1010.97,-306.111)">
        <g transform="matrix(1,0,0,1,-13,0)">
            <g>
                <g transform="matrix(1,0,0,1,590.34,99.7277)">
                    <text x="832.489px" y="1329.12px" style="font-family:'ArialMT', 'Arial', sans-serif;font-size:34.888px;">600</text>
                </g>
                <g transform="matrix(1,0,0,1,590.34,192.229)">
                    <text x="832.489px" y="1329.12px" style="font-family:'ArialMT', 'Arial', sans-serif;font-size:34.888px;">400</text>
                </g>
                <g transform="matrix(1,0,0,1,590.34,283.492)">
                    <text x="832.489px" y="1329.12px" style="font-family:'ArialMT', 'Arial', sans-serif;font-size:34.888px;">200</text>
                </g>
                <g transform="matrix(1,0,0,1,626.893,374.128)">
                    <text x="832.489px" y="1329.12px" style="font-family:'ArialMT', 'Arial', sans-serif;font-size:34.888px;">0</text>
                </g>
                <g transform="matrix(1,0,0,1.00353,590.34,95.9894)">
                    <rect x="922.974" y="1322.78" width="83.923" height="270.417" style="fill:rgb(179,205,227);"/>
                </g>
                <g transform="matrix(1,0,0,0.838014,711.188,359.692)">
                    <rect x="922.974" y="1322.78" width="83.923" height="270.417" style="fill:rgb(179,205,227);"/>
                </g>
                <g transform="matrix(1,0,0,0.838014,833.902,359.692)">
                    <rect x="922.974" y="1322.78" width="83.923" height="270.417" style="fill:rgb(179,205,227);"/>
                </g>
                <g transform="matrix(1,0,0,0.838014,1200.18,359.692)">
                    <rect x="922.974" y="1322.78" width="83.923" height="270.417" style="fill:rgb(179,205,227);"/>
                </g>
                <g transform="matrix(1,0,0,0.164535,956.242,1432.68)">
                    <rect x="922.974" y="1322.78" width="83.923" height="270.417" style="fill:rgb(179,205,227);"/>
                </g>
                <g transform="matrix(1,0,0,0.164535,1078.96,1432.68)">
                    <rect x="922.974" y="1322.78" width="83.923" height="270.417" style="fill:rgb(179,205,227);"/>
                </g>
                <g transform="matrix(1,0,0,1,590.34,99.7277)">
                    <path d="M895.063,1322.2L904.313,1322.2" style="fill:none;stroke:black;stroke-width:4.17px;"/>
                </g>
                <g transform="matrix(1,0,0,1,590.34,191.035)">
                    <path d="M895.063,1322.2L904.313,1322.2" style="fill:none;stroke:black;stroke-width:4.17px;"/>
                </g>
                <g transform="matrix(1,0,0,1,590.34,282.343)">
                    <path d="M895.063,1322.2L904.313,1322.2" style="fill:none;stroke:black;stroke-width:4.17px;"/>
                </g>
                <g transform="matrix(0.438452,0,0,0.438452,1098.16,1070.35)">
                    <path d="M895.063,1322.2L904.313,1322.2" style="fill:none;stroke:black;stroke-width:9.5px;"/>
                </g>
                <g transform="matrix(0.438452,0,0,0.438452,1098.16,978.838)">
                    <path d="M895.063,1322.2L904.313,1322.2" style="fill:none;stroke:black;stroke-width:9.5px;"/>
                </g>
                <g transform="matrix(0.438452,0,0,0.438452,1098.16,887.631)">
                    <path d="M895.063,1322.2L904.313,1322.2" style="fill:none;stroke:black;stroke-width:9.5px;"/>
                </g>
                <g transform="matrix(1,0,0,1,590.34,99.7277)">
                    <path d="M904.239,1322.26L904.239,1594.54" style="fill:none;stroke:black;stroke-width:4.17px;"/>
                </g>
                <g transform="matrix(1,0,0,1,590.34,101.728)">
                    <path d="M895.38,1594.07L1636.23,1594.07" style="fill:none;stroke:black;stroke-width:4.17px;"/>
                </g>
                <g transform="matrix(1,0,0,1,583.34,96.7277)">
                    <text x="921.862px" y="1632.07px" style="font-family:'ArialMT', 'Arial', sans-serif;font-size:33.333px;">AB/PD</text>
                    <text x="939.457px" y="1666.49px" style="font-family:'ArialMT', 'Arial', sans-serif;font-size:33.333px;">CaS</text>
                    <text x="935.737px" y="1700.91px" style="font-family:'ArialMT', 'Arial', sans-serif;font-size:33.333px;">x100</text>
                </g>
                <g transform="matrix(1,0,0,1,708.094,96.7277)">
                    <text x="921.862px" y="1632.07px" style="font-family:'ArialMT', 'Arial', sans-serif;font-size:33.333px;">AB/PD</text>
                    <text x="960.762px" y="1666.49px" style="font-family:'ArialMT', 'Arial', sans-serif;font-size:33.333px;">A</text>
                    <text x="945.007px" y="1700.91px" style="font-family:'ArialMT', 'Arial', sans-serif;font-size:33.333px;">x10</text>
                </g>
                <g transform="matrix(1,0,0,1,827.474,96.7277)">
                    <text x="951.493px" y="1632.07px" style="font-family:'ArialMT', 'Arial', sans-serif;font-size:33.333px;">LP</text>
                    <text x="939.457px" y="1666.49px" style="font-family:'ArialMT', 'Arial', sans-serif;font-size:33.333px;">KCa</text>
                    <text x="935.737px" y="1700.91px" style="font-family:'ArialMT', 'Arial', sans-serif;font-size:33.333px;">x100</text>
                </g>
                <g transform="matrix(1,0,0,1,955.871,96.7277)">
                    <text x="951.493px" y="1632.07px" style="font-family:'ArialMT', 'Arial', sans-serif;font-size:33.333px;">LP</text>
                    <text x="951.493px" y="1666.49px" style="font-family:'ArialMT', 'Arial', sans-serif;font-size:33.333px;">Kd</text>
                </g>
                <g transform="matrix(1,0,0,1,1074.25,96.7277)">
                    <text x="949.645px" y="1632.07px" style="font-family:'ArialMT', 'Arial', sans-serif;font-size:33.333px;">PY</text>
                    <text x="950.573px" y="1666.49px" style="font-family:'ArialMT', 'Arial', sans-serif;font-size:33.333px;">Na</text>
                </g>
                <g transform="matrix(1,0,0,1,1200.83,96.7277)">
                    <text x="949.645px" y="1632.07px" style="font-family:'ArialMT', 'Arial', sans-serif;font-size:33.333px;">PY</text>
                    <text x="959.842px" y="1666.49px" style="font-family:'ArialMT', 'Arial', sans-serif;font-size:33.333px;">H</text>
                    <text x="912.568px" y="1700.91px" style="font-family:'ArialMT', 'Arial', sans-serif;font-size:33.333px;">x10,000</text>
                </g>
                <g transform="matrix(1,0,0,1,590.34,538.645)">
                    <path d="M895.063,1322.2L904.313,1322.2" style="fill:none;stroke:black;stroke-width:4.17px;"/>
                </g>
                <g transform="matrix(1,0,0,1,649.53,1.38115)">
                    <text x="529.966px" y="1527.17px" style="font-family:'ArialMT', 'Arial', sans-serif;font-size:33.333px;">membrane</text>
                    <text x="506.781px" y="1561.59px" style="font-family:'ArialMT', 'Arial', sans-serif;font-size:33.333px;">conductances</text>
                    <text x="541.277px" y="1596.01px" style="font-family:'ArialMT', 'Arial', sans-serif;font-size:33.333px;">(mS/cm</text>
                    <text x="656.072px" y="1584.91px" style="font-family:'ArialMT', 'Arial', sans-serif;font-size:19.433px;">2</text>
                    <text x="666.88px" y="1596.01px" style="font-family:'ArialMT', 'Arial', sans-serif;font-size:33.333px;">)</text>
                </g>
            </g>
            <g>
                <g transform="matrix(1,0,0,1,590.34,537.736)">
                    <text x="832.489px" y="1329.12px" style="font-family:'ArialMT', 'Arial', sans-serif;font-size:34.888px;">100</text>
                </g>
                <g transform="matrix(1,0,0,1,608.243,590.916)">
                    <text x="832.489px" y="1329.12px" style="font-family:'ArialMT', 'Arial', sans-serif;font-size:34.888px;">80</text>
                </g>
                <g transform="matrix(1,0,0,1,608.243,645.746)">
                    <text x="832.489px" y="1329.12px" style="font-family:'ArialMT', 'Arial', sans-serif;font-size:34.888px;">60</text>
                </g>
                <g transform="matrix(1,0,0,1,608.243,702.067)">
                    <text x="832.489px" y="1329.12px" style="font-family:'ArialMT', 'Arial', sans-serif;font-size:34.888px;">40</text>
                </g>
                <g transform="matrix(1,0,0,1,608.243,756.896)">
                    <text x="832.489px" y="1329.12px" style="font-family:'ArialMT', 'Arial', sans-serif;font-size:34.888px;">20</text>
                </g>
                <g transform="matrix(1,0,0,1,626.893,809.861)">
                    <text x="832.489px" y="1329.12px" style="font-family:'ArialMT', 'Arial', sans-serif;font-size:34.888px;">0</text>
                </g>
                <g transform="matrix(0.438452,0,0,0.438452,1098.16,1470.16)">
                    <path d="M895.063,1322.2L904.313,1322.2" style="fill:none;stroke:black;stroke-width:9.5px;"/>
                </g>
                <g transform="matrix(1.24306,0,0,1.01324,368.565,516.937)">
                    <rect x="922.974" y="1322.78" width="83.923" height="270.417" style="fill:rgb(179,205,227);"/>
                </g>
                <g transform="matrix(1.24306,0,0,0.300138,514.403,1653.05)">
                    <rect x="922.974" y="1322.78" width="83.923" height="270.417" style="fill:rgb(179,205,227);"/>
                </g>
                <g transform="matrix(1.24306,0,0,0.300138,661.734,1653.05)">
                    <rect x="922.974" y="1322.78" width="83.923" height="270.417" style="fill:rgb(179,205,227);"/>
                </g>
                <g transform="matrix(1.24306,0,0,0.300138,807.647,1653.05)">
                    <rect x="922.974" y="1322.78" width="83.923" height="270.417" style="fill:rgb(179,205,227);"/>
                </g>
                <g transform="matrix(1.24306,0,0,0.300138,955.351,1653.05)">
                    <rect x="922.974" y="1322.78" width="83.923" height="270.417" style="fill:rgb(179,205,227);"/>
                </g>
                <g transform="matrix(1,0,0,1,590.34,590.995)">
                    <path d="M895.063,1322.2L904.313,1322.2" style="fill:none;stroke:black;stroke-width:4.17px;"/>
                </g>
                <g transform="matrix(1,0,0,1,590.34,645.078)">
                    <path d="M895.063,1322.2L904.313,1322.2" style="fill:none;stroke:black;stroke-width:4.17px;"/>
                </g>
                <g transform="matrix(1,0,0,1,590.34,701.147)">
                    <path d="M895.063,1322.2L904.313,1322.2" style="fill:none;stroke:black;stroke-width:4.17px;"/>
                </g>
                <g transform="matrix(1,0,0,1,590.34,754.871)">
                    <path d="M895.063,1322.2L904.313,1322.2" style="fill:none;stroke:black;stroke-width:4.17px;"/>
                </g>
                <g transform="matrix(0.438452,0,0,0.438452,1098.16,1524.55)">
                    <path d="M895.063,1322.2L904.313,1322.2" style="fill:none;stroke:black;stroke-width:9.5px;"/>
                </g>
                <g transform="matrix(0.438452,0,0,0.438452,1098.16,1360.92)">
                    <path d="M895.063,1322.2L904.313,1322.2" style="fill:none;stroke:black;stroke-width:9.5px;"/>
                </g>
                <g transform="matrix(0.438452,0,0,0.438452,1098.16,1415.16)">
                    <path d="M895.063,1322.2L904.313,1322.2" style="fill:none;stroke:black;stroke-width:9.5px;"/>
                </g>
                <g transform="matrix(0.438452,0,0,0.438452,1098.16,1470.16)">
                    <path d="M895.063,1322.2L904.313,1322.2" style="fill:none;stroke:black;stroke-width:9.5px;"/>
                </g>
                <g transform="matrix(0.438452,0,0,0.438452,1098.16,1306.08)">
                    <path d="M895.063,1322.2L904.313,1322.2" style="fill:none;stroke:black;stroke-width:9.5px;"/>
                </g>
                <g transform="matrix(1,0,0,1,590.34,538.645)">
                    <path d="M904.239,1322.26L904.239,1594.54" style="fill:none;stroke:black;stroke-width:4.17px;"/>
                </g>
                <g transform="matrix(1,0,0,1,590.34,540.645)">
                    <path d="M895.38,1594.07L1636.23,1594.07" style="fill:none;stroke:black;stroke-width:4.17px;"/>
                </g>
                <g transform="matrix(1,0,0,1,591.919,532.002)">
                    <text x="923.709px" y="1632.07px" style="font-family:'ArialMT', 'Arial', sans-serif;font-size:33.333px;">AB-LP</text>
                </g>
                <g transform="matrix(1,0,0,1,739.622,532.002)">
                    <text x="921.862px" y="1632.07px" style="font-family:'ArialMT', 'Arial', sans-serif;font-size:33.333px;">AB-PY</text>
                </g>
                <g transform="matrix(1,0,0,1,887.325,532.002)">
                    <text x="920.943px" y="1632.07px" style="font-family:'ArialMT', 'Arial', sans-serif;font-size:33.333px;">PD-PY</text>
                </g>
                <g transform="matrix(1,0,0,1,1037.27,532.002)">
                    <text x="923.709px" y="1632.07px" style="font-family:'ArialMT', 'Arial', sans-serif;font-size:33.333px;">LP-PY</text>
                    <text x="945.007px" y="1666.49px" style="font-family:'ArialMT', 'Arial', sans-serif;font-size:33.333px;">x10</text>
                </g>
                <g transform="matrix(1,0,0,1,1180.87,532.002)">
                    <text x="925.239px" y="1632.07px" style="font-family:'ArialMT', 'Arial', sans-serif;font-size:33.333px;">PY<tspan x="966.646px 977.746px " y="1632.07px 1632.07px ">-L</tspan>P</text>
                </g>
                <g transform="matrix(1,0,0,1,649.53,416.622)">
                    <text x="547.552px" y="1527.17px" style="font-family:'ArialMT', 'Arial', sans-serif;font-size:33.333px;">synapse</text>
                    <text x="506.781px" y="1561.59px" style="font-family:'ArialMT', 'Arial', sans-serif;font-size:33.333px;">conductances</text>
                    <text x="578.143px" y="1596.01px" style="font-family:'ArialMT', 'Arial', sans-serif;font-size:33.333px;">(nS)</text>
                </g>
            </g>
        </g>
        <g transform="matrix(1,0,0,1,65.1192,0)">
            <g>
                <g transform="matrix(1,0,0,1,2775.13,1.38115)">
                    <text x="529.966px" y="1527.17px" style="font-family:'ArialMT', 'Arial', sans-serif;font-size:33.333px;">membrane</text>
                    <text x="506.781px" y="1561.59px" style="font-family:'ArialMT', 'Arial', sans-serif;font-size:33.333px;">conductances</text>
                    <text x="541.277px" y="1596.01px" style="font-family:'ArialMT', 'Arial', sans-serif;font-size:33.333px;">(mS/cm</text>
                    <text x="656.072px" y="1584.91px" style="font-family:'ArialMT', 'Arial', sans-serif;font-size:19.433px;">2</text>
                    <text x="666.88px" y="1596.01px" style="font-family:'ArialMT', 'Arial', sans-serif;font-size:33.333px;">)</text>
                </g>
                <g transform="matrix(1,0,0,1,2718.92,100.728)">
                    <text x="832.489px" y="1329.12px" style="font-family:'ArialMT', 'Arial', sans-serif;font-size:34.888px;">600</text>
                </g>
                <g transform="matrix(1,0,0,1,2718.92,193.229)">
                    <text x="832.489px" y="1329.12px" style="font-family:'ArialMT', 'Arial', sans-serif;font-size:34.888px;">400</text>
                </g>
                <g transform="matrix(1,0,0,1,2718.92,284.492)">
                    <text x="832.489px" y="1329.12px" style="font-family:'ArialMT', 'Arial', sans-serif;font-size:34.888px;">200</text>
                </g>
                <g transform="matrix(1,0,0,1,2755.47,375.128)">
                    <text x="832.489px" y="1329.12px" style="font-family:'ArialMT', 'Arial', sans-serif;font-size:34.888px;">0</text>
                </g>
                <g transform="matrix(1,0,0,0.838014,3207.92,359.913)">
                    <rect x="922.974" y="1322.78" width="83.923" height="270.417" style="fill:rgb(179,205,227);"/>
                </g>
                <g transform="matrix(1,0,0,0.163945,3330.54,1433.84)">
                    <rect x="922.974" y="1322.78" width="83.923" height="270.417" style="fill:rgb(179,205,227);"/>
                </g>
                <g transform="matrix(1,0,0,0.332535,2719.53,1165.24)">
                    <rect x="922.974" y="1322.78" width="83.923" height="270.417" style="fill:rgb(179,205,227);"/>
                </g>
                <g transform="matrix(1,0,0,0.164811,2841.99,1432.46)">
                    <rect x="922.974" y="1322.78" width="83.923" height="270.417" style="fill:rgb(179,205,227);"/>
                </g>
                <g transform="matrix(1,0,0,0.0389814,3085.48,1632.93)">
                    <rect x="922.974" y="1322.78" width="83.923" height="270.417" style="fill:rgb(179,205,227);"/>
                </g>
                <g transform="matrix(1,0,0,1,2721.1,99.7277)">
                    <path d="M895.063,1322.2L904.313,1322.2" style="fill:none;stroke:black;stroke-width:4.17px;"/>
                </g>
                <g transform="matrix(1,0,0,1,2721.1,191.035)">
                    <path d="M895.063,1322.2L904.313,1322.2" style="fill:none;stroke:black;stroke-width:4.17px;"/>
                </g>
                <g transform="matrix(1,0,0,1,2721.1,282.343)">
                    <path d="M895.063,1322.2L904.313,1322.2" style="fill:none;stroke:black;stroke-width:4.17px;"/>
                </g>
                <g transform="matrix(0.438452,0,0,0.438452,3228.92,1070.35)">
                    <path d="M895.063,1322.2L904.313,1322.2" style="fill:none;stroke:black;stroke-width:9.5px;"/>
                </g>
                <g transform="matrix(0.438452,0,0,0.438452,3228.92,978.838)">
                    <path d="M895.063,1322.2L904.313,1322.2" style="fill:none;stroke:black;stroke-width:9.5px;"/>
                </g>
                <g transform="matrix(0.438452,0,0,0.438452,3228.92,887.631)">
                    <path d="M895.063,1322.2L904.313,1322.2" style="fill:none;stroke:black;stroke-width:9.5px;"/>
                </g>
                <g transform="matrix(1,0,0,1,2721.1,99.7277)">
                    <path d="M904.239,1322.26L904.239,1594.54" style="fill:none;stroke:black;stroke-width:4.17px;"/>
                </g>
                <g transform="matrix(1,0,0,1,2721.1,101.728)">
                    <path d="M895.38,1594.07L1636.23,1594.07" style="fill:none;stroke:black;stroke-width:4.17px;"/>
                </g>
                <g transform="matrix(1,0,0,1,2711.28,94.7277)">
                    <text x="921.862px" y="1632.07px" style="font-family:'ArialMT', 'Arial', sans-serif;font-size:33.333px;">AB/PD</text>
                    <text x="939.457px" y="1666.49px" style="font-family:'ArialMT', 'Arial', sans-serif;font-size:33.333px;">CaS</text>
                    <text x="935.737px" y="1700.91px" style="font-family:'ArialMT', 'Arial', sans-serif;font-size:33.333px;">x100</text>
                </g>
                <g transform="matrix(1,0,0,1,2836.03,94.7277)">
                    <text x="921.862px" y="1632.07px" style="font-family:'ArialMT', 'Arial', sans-serif;font-size:33.333px;">AB/PD</text>
                    <text x="960.762px" y="1666.49px" style="font-family:'ArialMT', 'Arial', sans-serif;font-size:33.333px;">A</text>
                    <text x="945.007px" y="1700.91px" style="font-family:'ArialMT', 'Arial', sans-serif;font-size:33.333px;">x10</text>
                </g>
                <g transform="matrix(1,0,0,1,2955.41,94.7277)">
                    <text x="951.493px" y="1632.07px" style="font-family:'ArialMT', 'Arial', sans-serif;font-size:33.333px;">LP</text>
                    <text x="939.457px" y="1666.49px" style="font-family:'ArialMT', 'Arial', sans-serif;font-size:33.333px;">KCa</text>
                    <text x="935.737px" y="1700.91px" style="font-family:'ArialMT', 'Arial', sans-serif;font-size:33.333px;">x100</text>
                </g>
                <g transform="matrix(1,0,0,1,3083.81,94.7277)">
                    <text x="951.493px" y="1632.07px" style="font-family:'ArialMT', 'Arial', sans-serif;font-size:33.333px;">LP</text>
                    <text x="951.493px" y="1666.49px" style="font-family:'ArialMT', 'Arial', sans-serif;font-size:33.333px;">Kd</text>
                </g>
                <g transform="matrix(1,0,0,1,3202.19,94.7277)">
                    <text x="949.645px" y="1632.07px" style="font-family:'ArialMT', 'Arial', sans-serif;font-size:33.333px;">PY</text>
                    <text x="950.573px" y="1666.49px" style="font-family:'ArialMT', 'Arial', sans-serif;font-size:33.333px;">Na</text>
                </g>
                <g transform="matrix(1,0,0,1,3328.77,94.7277)">
                    <text x="949.645px" y="1632.07px" style="font-family:'ArialMT', 'Arial', sans-serif;font-size:33.333px;">PY</text>
                    <text x="959.842px" y="1666.49px" style="font-family:'ArialMT', 'Arial', sans-serif;font-size:33.333px;">H</text>
                    <text x="912.568px" y="1700.91px" style="font-family:'ArialMT', 'Arial', sans-serif;font-size:33.333px;">x10,000</text>
                </g>
            </g>
            <g>
                <g transform="matrix(1,0,0,1,2775.13,416.622)">
                    <text x="547.552px" y="1527.17px" style="font-family:'ArialMT', 'Arial', sans-serif;font-size:33.333px;">synapse</text>
                    <text x="506.781px" y="1561.59px" style="font-family:'ArialMT', 'Arial', sans-serif;font-size:33.333px;">conductances</text>
                    <text x="578.143px" y="1596.01px" style="font-family:'ArialMT', 'Arial', sans-serif;font-size:33.333px;">(nS)</text>
                </g>
                <g transform="matrix(1,0,0,1,2719.12,538.736)">
                    <text x="832.489px" y="1329.12px" style="font-family:'ArialMT', 'Arial', sans-serif;font-size:34.888px;">100</text>
                </g>
                <g transform="matrix(1,0,0,1,2737.02,591.916)">
                    <text x="832.489px" y="1329.12px" style="font-family:'ArialMT', 'Arial', sans-serif;font-size:34.888px;">80</text>
                </g>
                <g transform="matrix(1,0,0,1,2737.02,646.746)">
                    <text x="832.489px" y="1329.12px" style="font-family:'ArialMT', 'Arial', sans-serif;font-size:34.888px;">60</text>
                </g>
                <g transform="matrix(1,0,0,1,2737.02,703.067)">
                    <text x="832.489px" y="1329.12px" style="font-family:'ArialMT', 'Arial', sans-serif;font-size:34.888px;">40</text>
                </g>
                <g transform="matrix(1,0,0,1,2737.02,757.896)">
                    <text x="832.489px" y="1329.12px" style="font-family:'ArialMT', 'Arial', sans-serif;font-size:34.888px;">20</text>
                </g>
                <g transform="matrix(1,0,0,1,2755.67,810.861)">
                    <text x="832.489px" y="1329.12px" style="font-family:'ArialMT', 'Arial', sans-serif;font-size:34.888px;">0</text>
                </g>
                <g transform="matrix(1.24306,0,0,0.101518,2496.76,1970.23)">
                    <rect x="922.974" y="1322.78" width="83.923" height="270.417" style="fill:rgb(179,205,227);"/>
                </g>
                <g transform="matrix(1.24306,0,0,1.01186,2790.49,519.864)">
                    <rect x="922.974" y="1322.78" width="83.923" height="270.417" style="fill:rgb(179,205,227);"/>
                </g>
                <g transform="matrix(1.24306,0,0,0.0997938,2936.89,1972.97)">
                    <rect x="922.974" y="1322.78" width="83.923" height="270.417" style="fill:rgb(179,205,227);"/>
                </g>
                <g transform="matrix(1.24306,0,0,1.01257,3083.26,518.743)">
                    <rect x="922.974" y="1322.78" width="83.923" height="270.417" style="fill:rgb(179,205,227);"/>
                </g>
                <g transform="matrix(1.24306,0,0,0.00976759,2644.52,2116.4)">
                    <rect x="922.974" y="1322.78" width="83.923" height="270.417" style="fill:rgb(179,205,227);"/>
                </g>
                <g transform="matrix(1,0,0,1,2719.96,538.645)">
                    <path d="M895.063,1322.2L904.313,1322.2" style="fill:none;stroke:black;stroke-width:4.17px;"/>
                </g>
                <g transform="matrix(1,0,0,1,2719.96,590.995)">
                    <path d="M895.063,1322.2L904.313,1322.2" style="fill:none;stroke:black;stroke-width:4.17px;"/>
                </g>
                <g transform="matrix(1,0,0,1,2719.96,645.078)">
                    <path d="M895.063,1322.2L904.313,1322.2" style="fill:none;stroke:black;stroke-width:4.17px;"/>
                </g>
                <g transform="matrix(1,0,0,1,2719.96,701.147)">
                    <path d="M895.063,1322.2L904.313,1322.2" style="fill:none;stroke:black;stroke-width:4.17px;"/>
                </g>
                <g transform="matrix(1,0,0,1,2719.96,754.871)">
                    <path d="M895.063,1322.2L904.313,1322.2" style="fill:none;stroke:black;stroke-width:4.17px;"/>
                </g>
                <g transform="matrix(0.438452,0,0,0.438452,3227.78,1524.55)">
                    <path d="M895.063,1322.2L904.313,1322.2" style="fill:none;stroke:black;stroke-width:9.5px;"/>
                </g>
                <g transform="matrix(0.438452,0,0,0.438452,3227.78,1360.92)">
                    <path d="M895.063,1322.2L904.313,1322.2" style="fill:none;stroke:black;stroke-width:9.5px;"/>
                </g>
                <g transform="matrix(0.438452,0,0,0.438452,3227.78,1415.16)">
                    <path d="M895.063,1322.2L904.313,1322.2" style="fill:none;stroke:black;stroke-width:9.5px;"/>
                </g>
                <g transform="matrix(0.438452,0,0,0.438452,3227.78,1470.16)">
                    <path d="M895.063,1322.2L904.313,1322.2" style="fill:none;stroke:black;stroke-width:9.5px;"/>
                </g>
                <g transform="matrix(0.438452,0,0,0.438452,3227.78,1306.08)">
                    <path d="M895.063,1322.2L904.313,1322.2" style="fill:none;stroke:black;stroke-width:9.5px;"/>
                </g>
                <g transform="matrix(1,0,0,1,2719.96,538.645)">
                    <path d="M904.239,1322.26L904.239,1594.54" style="fill:none;stroke:black;stroke-width:4.17px;"/>
                </g>
                <g transform="matrix(1,0,0,1,2719.96,540.645)">
                    <path d="M895.38,1594.07L1636.23,1594.07" style="fill:none;stroke:black;stroke-width:4.17px;"/>
                </g>
                <g transform="matrix(1,0,0,1,2725.56,531.002)">
                    <text x="923.709px" y="1632.07px" style="font-family:'ArialMT', 'Arial', sans-serif;font-size:33.333px;">AB-LP</text>
                </g>
                <g transform="matrix(1,0,0,1,2873.27,531.002)">
                    <text x="921.862px" y="1632.07px" style="font-family:'ArialMT', 'Arial', sans-serif;font-size:33.333px;">AB-PY</text>
                </g>
                <g transform="matrix(1,0,0,1,3020.97,531.002)">
                    <text x="920.943px" y="1632.07px" style="font-family:'ArialMT', 'Arial', sans-serif;font-size:33.333px;">PD-PY</text>
                </g>
                <g transform="matrix(1,0,0,1,3170.91,531.002)">
                    <text x="923.709px" y="1632.07px" style="font-family:'ArialMT', 'Arial', sans-serif;font-size:33.333px;">LP-PY</text>
                    <text x="945.007px" y="1666.49px" style="font-family:'ArialMT', 'Arial', sans-serif;font-size:33.333px;">x10</text>
                </g>
                <g transform="matrix(1,0,0,1,3314.51,531.002)">
                    <text x="925.239px" y="1632.07px" style="font-family:'ArialMT', 'Arial', sans-serif;font-size:33.333px;">PY<tspan x="966.646px 977.746px " y="1632.07px 1632.07px ">-L</tspan>P</text>
                </g>
            </g>
        </g>
        <g id="voltages_left" transform="matrix(4.32692,0,0,4.4817,329.639,803.81)">
            <path d="M618.958,-76.082L618.958,-42.48C618.958,-38.553 620.177,-32.05 617.953,-28.609C615.445,-24.73 610.636,-23.438 606.523,-21.972C605.036,-21.442 603.174,-21.101 602.025,-19.99C603.94,-19.797 605.589,-20.967 607.34,-21.589C611.925,-23.215 615.553,-24.695 618.958,-28.192C618.958,-25.167 618.955,-22.818 620.017,-19.99L620.546,-20.255L621.075,-19.461L621.34,-21.049L621.604,-21.049L621.869,-19.197L622.133,-19.197L622.398,-19.99L622.662,-19.99L622.662,-18.932L623.192,-18.932L623.456,-20.255L624.515,-19.99L624.779,-25.017L625.044,-25.017L625.308,-18.403C626.792,-20.574 626.631,-25.842 626.631,-28.457L627.16,-28.457L626.896,-18.932L627.425,-18.932L627.954,-27.928L628.219,-27.928L628.483,-18.403L628.748,-18.403L630.071,-28.192L630.335,-28.192L630.6,-20.255L631.129,-20.255L631.923,-27.928L632.187,-27.928L632.452,-18.667L632.717,-18.667L633.775,-27.399L634.04,-27.399L634.304,-18.667C635.888,-20.219 635.625,-25.942 635.627,-28.192L635.098,-28.192L635.098,-25.282L634.569,-25.282L634.569,-75.817L634.304,-75.817L634.039,-68.938L633.775,-57.826L633.77,-30.31L632.981,-26.34L632.716,-26.34L632.716,-74.759L632.187,-74.759L632.177,-41.157L631.129,-26.34L630.864,-26.34L630.6,-74.759L630.335,-74.759L630.325,-36.13L629.277,-27.928L629.012,-27.928L628.748,-75.024L628.483,-75.024L628.219,-40.628L627.999,-31.897L627.16,-28.457L627.16,-60.207C627.16,-64.73 628.176,-70.692 626.896,-75.024L626.631,-75.024L626.367,-63.382L626.367,-41.686L625.837,-28.986L625.573,-28.986L625.573,-74.759L625.044,-74.759L624.515,-28.192L624.25,-28.192L624.25,-59.942C624.25,-64.542 625.288,-70.618 623.985,-75.024L623.721,-75.024C622.44,-70.692 623.456,-64.73 623.456,-60.207L623.456,-28.457L623.192,-28.457L623.192,-75.024C620.729,-74.486 621.869,-66.867 621.869,-64.705C621.869,-53.772 622.072,-42.805 621.604,-31.897L621.34,-31.897L620.281,-75.024L620.017,-75.024L619.752,-66.557L619.752,-49.624L619.223,-49.624L619.223,-67.88L618.958,-76.082M532.704,-75.817C531.842,-72.198 532.44,-67.889 532.44,-64.176L532.44,-41.686C532.44,-37.383 533.336,-30.987 530.45,-27.403C526.196,-22.119 517.795,-23.121 512.86,-19.197C514.722,-18.691 517.214,-20.134 518.946,-20.852C523.648,-22.8 530.1,-23.721 532.175,-28.986L532.44,-28.986C532.44,-25.176 532.643,-22.703 534.027,-19.197L535.35,-19.197L535.35,-21.578L535.879,-21.578L536.144,-18.403L536.408,-18.403L536.937,-24.224L537.202,-24.224L537.467,-18.403L537.731,-18.403L537.996,-20.52L538.26,-20.52L538.525,-18.667L539.054,-18.667L539.848,-25.811L540.112,-25.811L540.377,-18.403L540.642,-18.403L541.435,-25.282L541.7,-25.282L541.7,-18.667L542.494,-18.667L543.287,-26.87L543.552,-26.87L543.552,-18.667L544.346,-18.667C545.362,-31.539 544.659,-45.146 544.092,-58.09C543.882,-62.878 545.175,-68.841 543.817,-73.436L543.552,-73.436L543.542,-35.336L542.494,-26.34L542.229,-26.34L542.229,-62.588L541.965,-75.553L541.7,-75.553C540.484,-70.447 541.435,-64.132 541.435,-58.884C541.435,-48.303 541.172,-37.693 541.171,-27.134L540.906,-27.134C539.635,-32.475 540.642,-39.107 540.642,-44.597C540.642,-54.701 540.113,-64.649 540.113,-74.759L539.848,-74.759L539.848,-39.834C539.848,-36.908 539.658,-34.013 539.587,-31.103C539.543,-29.316 539.88,-27.592 538.79,-26.076L538.79,-39.57L538.525,-39.57L538.26,-31.897L537.731,-31.897L537.731,-73.436L536.937,-73.436L536.937,-59.942L536.408,-59.942C536.408,-64.544 537.446,-70.617 536.144,-75.024L535.879,-75.024L535.879,-33.749L535.615,-33.749L535.35,-47.507L535.35,-75.024L535.085,-75.024L534.821,-66.292L534.821,-49.095L534.556,-49.095L534.556,-65.763L534.292,-74.23L533.762,-73.965L532.704,-75.817M547.521,-75.817C546.153,-71.191 547.256,-64.774 547.256,-59.942C547.256,-49.43 546.943,-38.914 546.727,-28.457L546.462,-28.457C546.252,-38.664 545.933,-48.937 545.933,-59.149C545.933,-63.98 547.036,-70.397 545.669,-75.024L545.404,-75.024L545.404,-18.667L546.198,-18.667L546.992,-27.928L547.256,-27.928L547.521,-18.932L548.05,-18.932L549.373,-29.251L549.637,-29.251L549.902,-19.197L550.167,-19.197L551.225,-27.928L551.754,-27.928L551.754,-19.197L552.548,-19.197L553.606,-28.722L553.077,-28.722L553.077,-27.399L552.548,-27.399L552.019,-75.024L551.754,-75.024L551.75,-34.542L550.696,-26.076L550.167,-26.076L550.167,-75.024L549.902,-75.024L549.902,-48.565C549.902,-41.762 550.181,-35.11 548.579,-28.457L548.315,-28.457L548.315,-71.849L547.521,-75.817M643.3,-75.553C642.028,-70.212 643.035,-63.58 643.035,-58.09C643.035,-49.818 643.331,-41.485 643.03,-33.22C642.971,-31.596 642.275,-30.108 642.241,-28.457L642.506,-28.457L642.77,-29.78L643.035,-29.78L643.035,-22.107C643.035,-20.933 642.817,-19.645 644.093,-19.197L645.681,-30.574L645.945,-30.574L646.21,-18.932C647.364,-20.063 646.925,-21.668 647.027,-23.165C647.207,-25.788 647.337,-29.204 649.385,-31.103C649.87,-26.24 652.997,-17.096 658.645,-17.08L658.645,-17.345C654.084,-18.724 652.596,-23.232 651.193,-27.399C650.794,-28.585 650.677,-30.872 649.729,-31.732C647.775,-33.503 647.012,-27.292 647.004,-26.34L646.739,-26.34L646.474,-42.745L646.474,-74.23L645.945,-74.23L645.922,-34.013L644.622,-28.457L644.093,-28.457L644.093,-59.942C644.093,-64.867 644.97,-70.76 643.829,-75.553L643.299,-75.553M636.156,-75.024C636.156,-59.492 636.579,-43.884 635.362,-28.457L636.156,-30.574L636.42,-30.574L636.685,-18.932C638.204,-21.156 636.609,-24.667 637.448,-27.134C640.874,-37.213 639.066,-49.766 639.066,-60.472C639.066,-64.917 640.06,-70.765 638.801,-75.024C637.991,-73.838 638.272,-72.178 638.272,-70.79L638.272,-61.795C638.272,-50.916 639.77,-38.776 637.214,-28.192L636.95,-28.192L636.95,-60.472C636.95,-64.875 638.029,-70.957 636.156,-75.024M554.135,-74.759C555.549,-71.424 554.665,-66.445 554.665,-62.853C554.665,-54.317 554.97,-45.718 554.66,-37.188C554.567,-34.634 553.061,-31.77 553.606,-29.251L553.871,-29.251L554.135,-30.309L554.4,-30.309L554.665,-18.932L554.929,-18.932L556.517,-30.574L556.781,-30.574L557.046,-18.932L557.31,-18.932L559.427,-31.103L559.692,-31.103L559.692,-19.197L560.221,-19.197C560.221,-23.516 560.978,-27.238 562.073,-31.367C563.442,-30.613 563.366,-28.545 563.796,-27.134C564.901,-23.505 566.805,-17.189 571.333,-17.08L571.333,-17.609C566.949,-18.615 565.621,-24.537 564.213,-28.192C563.835,-29.175 563.945,-31.065 563.047,-31.721C561.534,-32.828 560.736,-29.639 560.485,-28.722L560.221,-28.722L560.221,-73.701L559.692,-73.701C557.899,-63.114 559.162,-51.392 559.162,-40.628C559.162,-38.134 559.462,-35.424 559.107,-32.955C558.77,-30.609 557.84,-28.796 557.84,-26.34L557.31,-26.34L557.31,-50.947L556.781,-50.947C556.781,-43.161 557.17,-35.749 555.194,-28.192L554.929,-28.192L554.929,-71.584C554.929,-72.747 555.203,-74.067 554.135,-74.759M640.654,-74.23L640.644,-33.22L639.006,-26.866L638.802,-19.461L639.331,-19.461L640.39,-29.78L640.654,-29.78L640.919,-18.932L641.712,-18.932L642.242,-28.192L641.712,-25.282L641.448,-25.282C640.269,-30.232 641.183,-36.336 641.183,-41.422L641.183,-74.23L640.654,-74.23M542.494,-26.076L542.229,-25.811L542.494,-26.076M689.073,-19.99C690.771,-20.077 693.478,-20.836 694.365,-22.372L689.073,-19.99M599.644,-19.461L599.644,-19.197C600.627,-19.051 601.225,-19.118 601.76,-19.99L599.644,-19.461M686.427,-18.932L688.544,-19.99C687.517,-19.957 686.938,-19.858 686.427,-18.932M509.156,-18.403L509.156,-18.138L512.596,-18.667L509.156,-18.403M595.94,-18.403L595.94,-18.138L599.379,-18.667L595.94,-18.403M682.723,-18.403L682.723,-18.138L686.162,-18.667L682.723,-18.403M491.694,-17.609L491.694,-17.08C496.906,-17.08 503.622,-16.394 508.627,-17.874C507.294,-18.883 505.158,-18.067 503.6,-17.919C499.719,-17.549 495.593,-17.609 491.694,-17.609M572.921,-17.345L572.921,-17.08L595.41,-17.609C594.428,-19.123 591.405,-18.004 589.854,-17.897C584.41,-17.524 578.228,-18.608 572.921,-17.345M659.704,-17.345L659.704,-17.08L681.929,-17.609C680.958,-19.106 677.919,-17.952 676.373,-17.884C671.059,-17.651 664.873,-18.575 659.704,-17.345M661.027,-12.582C661.027,-3.308 660.233,6.133 660.233,15.464C660.233,20.197 661.196,25.979 658.855,30.28C657.229,33.268 653.525,36.318 650.698,38.153C649.566,38.888 648.271,39.126 647.269,40.07L647.004,40.07C646.2,39.276 640.665,39.164 639.86,40.07C636.388,38.814 630.331,39.398 626.638,39.818C624.979,40.006 622.465,40.862 620.86,40.175C619.655,39.659 619.349,37.508 619.487,36.366L616.842,36.895C615.382,35.065 613.702,35.031 612.079,36.895C610.409,35.142 610.063,36.276 608.11,36.315C606.425,36.347 604.79,36.184 603.083,36.36C601.647,36.508 600.101,37.272 598.662,36.536C595.397,34.866 595.403,27.715 591.706,27.105L591.706,26.312C590.203,26.021 589.745,26.177 588.531,27.105L588.531,6.733L588.267,-3.322C586.905,-1.329 587.737,3.041 587.737,5.41L587.737,28.164L587.208,28.164L586.944,19.697L586.679,19.697L586.415,27.899L586.15,27.899L585.885,-0.147L585.621,-0.147L585.356,10.701L584.827,29.487L584.562,29.487L584.562,-9.936L584.033,-9.936L584.033,24.989L583.769,24.989L583.504,13.876L583.504,-7.555L583.24,-7.555L582.975,3.028L582.975,24.46L582.71,24.46L582.696,-1.205L581.652,-11.259L581.387,-11.259L581.123,0.118L581.123,23.666L580.858,23.666L580.858,-1.47C580.858,-3.266 581.77,-8.753 579.8,-9.407L579.8,-8.084C577.153,-9.451 577.683,-6.084 577.683,-4.38L577.419,-4.38L577.419,-7.29C576.022,-6.57 575.837,-5.901 575.831,-4.38L575.567,-4.38L575.302,-9.142L575.037,-9.142L575.037,-7.82L574.773,-7.82L574.508,-11.788L573.715,-11.788L573.715,17.316C573.715,21.843 574.424,27.128 571.754,31.07C569.611,34.235 565.169,38.135 561.544,39.342C560.09,39.826 558.799,39.376 557.31,40.07C556.412,39.043 554.07,39.687 552.812,39.726C549.468,39.832 546.117,39.659 542.758,39.784C541.359,39.836 540.054,39.467 539.054,40.599L551.377,40.558L559.692,40.07C560.704,41.21 562.827,39.602 563.924,39.083C567.859,37.221 571.174,33.323 573.45,29.751L574.508,36.895C575.21,36.537 575.9,35.404 576.662,35.317C577.593,35.212 578.279,36.685 578.784,37.271C579.832,38.487 581.134,39.241 582.71,39.541L582.71,37.16L582.975,37.16L582.975,39.541L583.769,39.012L584.033,39.012C585.347,40.29 585.092,34.74 585.092,33.985L585.356,33.985L585.356,39.541L585.885,39.541L586.415,34.249L586.679,34.249L586.944,38.747L587.208,38.747L587.473,35.837L587.737,35.837C587.738,37.129 587.545,38.322 588.796,39.012L589.854,27.105C594.87,27.973 594.382,34.77 598.132,37.275C599.575,38.239 601.529,37.368 603.083,37.358C604.722,37.348 605.357,37.326 606.787,36.366C607.578,37.584 608.524,36.826 609.698,36.696C610.53,36.605 611.243,37.158 612.079,37.085C613.254,36.983 614.377,36.151 615.519,35.837C616.035,37.537 617.526,37.076 618.958,36.895C618.959,38.142 618.76,39.748 619.856,40.627C621.159,41.673 623.087,40.898 624.515,40.668C626.466,40.353 628.626,40.599 630.6,40.599C636.881,40.599 646.004,42.214 651.426,38.692C653.743,37.187 656.537,34.792 658.281,32.658C659.114,31.638 659.532,30.394 660.498,29.487L661.027,36.895L663.167,35.323L666.054,37.689L666.583,36.895L666.583,38.483L667.112,38.483L667.112,35.837L667.377,35.837C667.377,37.118 666.989,38.796 668.435,39.276L668.435,35.043L668.7,35.043L668.965,39.276L669.229,39.276L669.494,32.662L669.758,32.662L669.758,39.541L670.287,39.541L670.552,34.249L670.817,34.249L671.081,39.276L671.346,39.276L671.875,30.28L672.14,30.28L672.404,39.541L672.669,39.541L672.933,33.72L673.198,33.72L673.198,39.541L673.992,39.541L673.992,29.751L674.521,29.751C674.521,31.738 673.485,38.805 675.579,39.541L675.844,31.339L675.579,31.339L675.579,31.868L675.315,31.868L675.05,-7.555L674.785,-7.555C673.657,-3.738 674.521,1.428 674.521,5.41C674.521,13.447 674.014,21.486 673.992,29.487L673.727,29.487L673.727,-4.909L673.198,-4.909L673.198,25.783L672.669,25.783L672.669,2.235C672.669,-0.831 673.484,-5.291 672.14,-8.084L671.875,-8.084L671.61,26.841L671.346,26.841L671.346,21.02L670.817,21.02L670.817,24.724L670.552,24.724L670.287,-10.995L668.435,-11.259C668.352,-10.113 666.63,-3.957 666.054,-7.555L665.525,-7.555L665.525,-5.438L664.467,-7.555L664.202,-7.555L664.202,-5.174C661.875,-6.441 661.923,-10.446 661.027,-12.582M495.398,-11.259L495.133,19.962L494.868,19.962L494.868,-9.936L494.604,-9.936C494.604,-8.308 495.046,-6.291 493.016,-5.967L493.016,-7.555L492.487,-7.555C492.482,-6.102 491.757,-4.983 491.698,-3.585C491.266,6.787 491.743,17.253 491.693,27.635C491.67,32.532 490.033,38.817 496.721,39.541L497.515,38.483L497.515,39.541C498.846,38.6 498.308,35.99 498.308,34.514L498.573,34.514C498.573,35.977 498.011,38.662 499.367,39.541L500.16,37.689L500.16,39.541L500.69,39.541L501.219,33.191L501.483,33.191L501.483,39.012C502.637,38.306 502.54,37.082 502.542,35.837C502.547,32.888 503.01,30.024 503.071,27.105L505.717,27.635C505.888,28.74 506.563,29.337 507.086,30.291C508.292,32.49 509.21,36.559 511.812,37.53C514.017,38.353 517.333,37.381 519.475,36.961C521.465,36.57 523.65,37.312 525.561,37.058C526.675,36.91 527.66,36.152 528.735,35.837C529.467,37.584 530.87,36.963 532.44,36.895C532.44,41.944 534.758,40.853 538.79,40.599L538.79,40.07C537.255,40.102 534.564,41.051 533.522,39.502C532.956,38.662 533.331,36.968 532.545,36.377C531.342,35.475 530.182,37.084 529.265,35.308C527.609,35.323 526.303,35.824 525.031,36.895L524.237,35.308L520.533,36.63L520.533,35.837L517.358,36.895L517.094,36.101C516.211,36.321 515.365,36.758 514.448,36.796C509.391,37.002 509.598,31.574 507.035,28.622C506.036,27.472 503.016,24.383 502.542,27.37L502.277,27.37C501.117,22.498 502.013,16.501 502.013,11.495L501.484,11.495L500.954,30.016L500.69,30.016L500.425,-6.497L500.161,-6.497L499.896,5.145L499.632,27.899L499.367,27.899L499.102,-5.967L498.838,-5.967L498.573,24.989L498.309,24.989L498.309,-1.205C498.308,-3.053 498.797,-8.933 497.25,-9.936L497.25,25.518L496.986,25.518L496.721,-11.259L496.457,-11.259C495.372,-7.59 496.192,-2.651 496.192,1.176L496.192,27.37L495.927,27.37L495.927,-0.676C495.927,-3.313 497.001,-9.143 495.398,-11.259M676.108,25.783L675.844,27.105C679.423,27.206 680.93,31.293 682.458,33.985C683.472,32.068 680.074,29.169 679.548,27.37L676.108,25.783M675.579,27.635L675.579,30.81L675.844,30.81L676.108,27.635L675.579,27.635M502.542,29.222L502.277,29.487L502.542,29.222M682.458,34.249C684.044,40.5 690.679,35.917 694.365,37.16C693.592,35.341 692.317,36.167 690.925,36.895C690.089,35.728 686.668,36.751 685.369,37.16L682.458,34.249M502.542,47.743C501.697,50.601 502.277,54.292 502.277,57.268L502.277,76.847C502.277,83.601 502.419,89.085 494.34,90.341L494.34,90.87C497.227,90.634 500.186,89.424 502.277,87.43C502.277,89.03 501.529,92.881 503.335,93.516L503.6,95.368L504.129,94.31L504.923,94.574L505.452,89.018L505.717,89.018L505.981,96.162L506.246,96.162L506.775,90.87L507.04,90.87L507.304,96.426L507.569,96.426L508.362,88.489L508.627,88.489L509.156,96.426L509.421,96.426L510.744,87.695L511.008,87.695L511.273,96.162L511.537,96.162L513.125,87.695C514.269,90.072 513.654,93.561 513.654,96.162L514.448,96.162L516.829,82.668L516.565,82.668L514.712,88.753L514.448,88.753L514.448,60.443C514.448,58.424 515.432,52.336 513.654,51.183L513.654,73.408C513.654,78.511 514.031,83.41 512.067,88.224L511.802,88.224L511.802,62.295C511.802,58.468 512.622,53.529 511.537,49.86L511.273,49.86C510.319,53.087 511.008,57.344 511.008,60.708C511.008,69.811 512.061,79.628 509.95,88.489L509.685,88.489L509.421,78.964L509.421,60.708L509.156,51.712L508.892,51.712L508.627,60.972L508.627,77.641L508.098,87.96L507.833,87.96L507.833,61.501C507.833,57.674 508.653,52.735 507.569,49.066L507.304,49.066L506.775,86.901L506.51,86.901L506.246,74.201L506.246,49.066L505.981,49.066C504.897,52.735 505.717,57.674 505.717,61.501C505.717,69.186 505.187,76.91 505.187,84.52L504.923,84.52L504.923,47.743C503.535,48.643 504.129,51.533 504.129,53.035C502.949,53.183 503.335,54.972 503.335,55.945L503.335,64.676L503.071,64.676L503.071,52.77L502.542,47.743M677.696,48.008L677.696,66.264L677.431,76.053L677.167,76.053L677.167,58.591C677.167,56.613 677.783,53.389 676.637,51.712L676.373,62.295L676.373,83.726L676.108,83.726L676.108,75.789L675.844,75.789C674.967,78.754 676.188,82.068 675.39,85.049C674.09,89.906 666.356,91.036 662.085,91.664L662.085,92.193C666.858,91.988 671.968,90.078 675.844,87.43L675.844,90.341L676.637,88.224L676.902,88.224C676.903,90.127 676.386,95.463 678.49,96.162L678.49,92.193L678.754,92.193C678.754,93.493 678.374,95.333 679.548,96.162L680.077,89.018L680.342,89.018L680.342,96.426C681.896,95.419 682.052,89.143 682.53,87.156C683.293,83.986 682.987,80.623 682.987,77.376L682.987,60.972C682.987,58.493 683.88,53.793 682.458,51.712C681.701,54.274 682.194,57.512 682.194,60.178L682.194,77.112C682.194,80.237 682.793,84.383 681.135,87.166L681.135,58.591C681.135,56.539 682.143,50.234 680.342,49.066L679.812,87.166L679.548,87.166L679.548,61.501C679.548,57.674 680.368,52.735 679.283,49.066C677.805,51.23 678.754,56.51 678.754,59.12L678.754,85.578L678.49,85.578C678.49,77.008 677.96,68.531 677.96,59.914C677.96,56.546 678.994,51.102 677.696,48.008M589.06,48.537C588.238,51.321 588.796,54.899 588.796,57.797L588.796,76.318C588.796,79.27 589.763,84.408 587.887,86.897C585.45,90.132 579.089,91.154 575.302,91.664L575.302,91.928C579.207,92.69 586.006,90.091 588.796,87.43C588.796,89.041 588.033,92.912 589.854,93.516L589.854,91.135L590.119,91.135L590.383,95.368L590.648,95.368L590.912,89.018L591.177,89.018L591.177,96.162L591.706,96.162L591.706,94.839L592.235,94.839L592.235,96.162L593.029,96.162L593.558,92.193L594.087,96.426L594.352,96.426L595.146,88.753L595.41,88.753L595.675,96.426L596.479,93.78L597.262,86.372C599.066,88.753 597.212,93.569 598.056,96.426L599.908,87.695L600.173,87.695L600.437,96.162L600.702,96.162C601.359,92.285 602.44,89.228 603.719,85.578C604.092,84.513 604.053,83.032 603.083,82.403C602.97,84.626 602.249,87.892 600.702,89.547L600.702,50.653L600.437,50.653C599.201,54.838 600.173,60.573 600.173,64.941C600.173,71.197 600.754,77.767 600.145,83.991C599.976,85.716 599.003,87.259 598.85,89.018L598.321,89.018L598.321,50.124L597.527,50.124L597.527,73.143C597.527,77.878 597.952,82.822 596.733,87.43L596.469,87.43C595.385,83.333 595.94,78.693 595.94,74.466L595.94,50.918L595.675,50.918C594.416,55.176 595.41,61.025 595.41,65.47C595.41,71.51 595.809,77.703 595.387,83.726C595.236,85.871 594.403,87.95 594.352,90.076L594.087,90.076L594.087,82.403L593.823,82.403L593.558,85.578L593.294,85.578L593.029,71.555L592.5,48.537L592.235,48.537L592.235,72.878L591.971,85.049L591.706,85.049L591.706,48.537L591.177,48.537L591.177,54.358L590.383,54.358L590.383,83.726L589.854,83.726L589.854,59.914L589.589,48.537L589.06,48.537M684.31,49.595L684.3,82.403L682.458,92.458L683.781,88.489L684.31,88.489C684.31,90.312 683.468,95.101 685.104,96.162L686.692,85.843L686.956,85.843L687.221,96.162L687.485,96.162L689.602,86.108L689.867,86.108C689.867,88.2 688.835,94.713 690.66,95.897L691.322,90.341L692.777,86.108L693.042,86.108L693.306,95.897L694.1,95.897C694.1,85.923 693.835,75.809 693.835,65.735C693.835,61.212 694.851,55.25 693.571,50.918L693.306,50.918L693.306,70.497L693.251,80.551L690.66,90.076L690.396,90.076L690.396,50.918L689.867,50.918C689.867,61.765 690.843,73.225 689.554,83.991C689.33,85.849 688.255,87.468 688.015,89.283L687.485,89.283L687.485,51.183L687.221,51.183L687.208,80.816L685.633,89.283L685.369,89.283C684.488,85.585 685.104,81.17 685.104,77.376C685.104,71.775 684.575,66.324 684.575,60.708C684.575,57.547 685.53,52.5 684.31,49.595M519.74,50.918L519.725,83.726L516.723,90.152L516.829,95.368L517.094,95.368C517.889,92.027 518.046,89.077 520.004,86.108L520.269,95.633L520.533,95.633C520.534,92.015 521.703,89.082 523.708,86.108L523.973,95.897L524.238,95.897C525.769,92.268 524.377,88.555 528.735,86.372L528.735,95.633C531.075,94.116 528.37,88.353 532.704,88.489C531.972,91.564 532.626,94.695 532.948,97.749C533.112,99.312 533.291,101.284 534.846,102.126C536.299,102.913 538.744,101.983 540.377,101.983L540.377,101.718C538.495,101.31 535.914,102.499 534.524,100.624C532.971,98.528 533.034,94.187 532.973,91.664C532.95,90.739 533.373,88.614 532.545,87.967C531.387,87.063 530.047,88.617 529.265,89.283L529.265,52.77L528.735,52.77L528.735,74.201L528.455,84.254L524.767,89.283L524.502,89.283L524.502,52.241L523.973,52.241L523.973,76.318C523.973,80.904 524.051,85.774 520.533,89.283L520.533,50.918L519.74,50.918M606.523,51.712L606.498,82.668L603.727,89.571L603.613,94.574L603.877,94.574C604.655,91.307 604.707,88.316 607.052,85.578L607.052,95.368L607.317,95.368C607.586,91.959 607.969,89.121 610.227,86.372L610.756,95.897L611.021,95.897C611.798,93.267 611.237,90.575 613.054,88.226C613.728,87.354 614.607,86.281 615.783,86.637L616.048,78.964L616.048,64.941L615.783,54.093L615.519,54.093L615.519,75.26C615.519,78.245 616.204,82.26 614.855,85.025C614.191,86.384 612.329,87.86 611.285,89.018L610.756,54.093L610.492,54.093L610.492,78.17C610.492,81.856 610.59,86.265 607.317,88.753L607.052,51.712L606.523,51.712M615.783,88.753L615.519,94.839L615.783,94.839C616.015,93.87 616.137,92.894 616.39,91.928C616.537,91.367 617.444,87.395 618.686,88.877C619.315,89.627 618.954,91.542 618.959,92.458C618.978,96.5 619.14,103.204 624.515,102.119C625.322,101.956 626.074,102.091 626.631,101.453C625.188,101.636 622.965,102.217 621.691,101.257C620.612,100.443 620.511,98.982 620.357,97.749C619.984,94.769 618.794,90.883 619.488,87.96L615.783,88.753M491.694,91.399C492.676,91.591 493.464,91.435 494.075,90.605L491.694,91.399M660.498,91.664L647.004,100.66C646.223,99.63 642.91,100.135 642.242,101.189C644.034,101.121 646.372,101.446 648.062,100.942C651.246,99.995 653.698,97.277 656.288,95.368C657.251,94.658 660.798,92.944 660.498,91.664M555.458,101.189C557.301,101.12 559.512,101.404 561.279,100.951C564.638,100.091 567.373,97.132 570.01,95.056C571.364,93.99 573.094,93.192 574.244,91.928C569.443,92.084 566.019,98.453 561.544,100.016C559.767,100.637 556.688,99.467 555.458,101.189M682.546,94.222L682.635,94.398L682.546,94.222M550.167,100.924L550.167,101.453L555.194,100.924L550.167,100.924M640.39,101.189L641.712,101.189C641.244,100.479 640.858,100.479 640.39,101.189M638.537,100.66L639.86,101.453L638.537,100.66M540.906,101.453L540.906,101.718C542.542,102.131 548.507,102.218 549.637,100.924L540.906,101.453M627.69,101.189L627.69,101.718L637.744,101.453L637.744,100.924L627.69,101.189" style="fill:rgb(249,149,141);fill-rule:nonzero;"/>
        </g>
        <g transform="matrix(1.14483,0,0,1.18578,1445.99,-196.979)">
            <path d="M1577.61,562.839L1577.61,648.16L1666.58,648.244" style="fill:none;stroke:black;stroke-width:6.79px;"/>
        </g>
        <g transform="matrix(1.14483,0,0,1.18578,1432.36,-127.676)">
            <text x="643.505px" y="626.225px" style="font-family:'ArialMT', 'Arial', sans-serif;font-size:50px;">AB/PD</text>
        </g>
        <g transform="matrix(1.14483,0,0,1.18578,1480.83,151.686)">
            <text x="643.505px" y="626.225px" style="font-family:'ArialMT', 'Arial', sans-serif;font-size:50px;">LP</text>
        </g>
        <g transform="matrix(1.14483,0,0,1.18578,1476.52,451.294)">
            <text x="643.505px" y="626.225px" style="font-family:'ArialMT', 'Arial', sans-serif;font-size:50px;">PY</text>
        </g>
        <g transform="matrix(1,0,0,0.960979,-214.147,68.7931)">
            <path d="M1235.82,1508.3C1236.47,1387.62 1286.5,1272.94 1373.37,1192.99C1603.27,981.408 2063.58,557.768 2278.6,359.881C2353.11,291.309 2449.14,253.458 2548.61,253.458L3376.18,253.458C3484.27,253.458 3587.94,298.141 3664.37,377.679C3740.8,457.216 3783.74,565.091 3783.74,677.574L3783.74,1033.07C3783.74,1148.48 3738.55,1258.91 3658.58,1338.88C3441.22,1556.24 2996.9,2000.56 2784.41,2213.05C2708.5,2288.96 2607.29,2331.36 2502.01,2331.36L1641.23,2331.36C1532.74,2331.36 1428.73,2286.35 1352.23,2206.29C1275.73,2126.24 1233.06,2017.75 1233.67,1904.86C1234.42,1766.61 1235.21,1620.21 1235.82,1508.3Z" style="fill:none;stroke:rgb(140,140,140);stroke-width:12.75px;stroke-dasharray:12.75,25.49,0,0;"/>
        </g>
        <g transform="matrix(-1,0,0,0.960979,5865.5,68.7931)">
            <path d="M1235.82,1508.3C1236.47,1387.62 1286.5,1272.94 1373.37,1192.99C1603.27,981.408 2063.58,557.768 2278.6,359.881C2353.11,291.309 2449.14,253.458 2548.61,253.458L3376.18,253.458C3484.27,253.458 3587.94,298.141 3664.37,377.679C3740.8,457.216 3783.74,565.091 3783.74,677.574L3783.74,1033.07C3783.74,1148.48 3738.55,1258.91 3658.58,1338.88C3441.22,1556.24 2996.9,2000.56 2784.41,2213.05C2708.5,2288.96 2607.29,2331.36 2502.01,2331.36L1641.23,2331.36C1532.74,2331.36 1428.73,2286.35 1352.23,2206.29C1275.73,2126.24 1233.06,2017.75 1233.67,1904.86C1234.42,1766.61 1235.21,1620.21 1235.82,1508.3Z" style="fill:none;stroke:rgb(140,140,140);stroke-width:12.75px;stroke-dasharray:12.75,25.49,0,0;"/>
        </g>
    </g>
</svg>
