<?xml version="1.0" encoding="UTF-8" standalone="no"?>
<!DOCTYPE svg PUBLIC "-//W3C//DTD SVG 1.1//EN" "http://www.w3.org/Graphics/SVG/1.1/DTD/svg11.dtd">
<svg width="100%" height="100%" viewBox="0 0 2031 2262" version="1.1" xmlns="http://www.w3.org/2000/svg" xmlns:xlink="http://www.w3.org/1999/xlink" xml:space="preserve" xmlns:serif="http://www.serif.com/" style="fill-rule:evenodd;clip-rule:evenodd;stroke-linecap:round;stroke-linejoin:round;stroke-miterlimit:1.5;">
    <g transform="matrix(1,0,0,1,-259.57,-520.596)">
        <g transform="matrix(1,0,0,1,49.8703,53.9669)">
            <g transform="matrix(1,0,0,1,46.4692,0)">
                <g>
                    <g>
                        <g transform="matrix(0.0341557,0,0,1,823.179,1351)">
                            <rect x="852.29" y="703.797" width="926.165" height="38.465" style="fill:rgb(118,160,138);"/>
                        </g>
                        <g transform="matrix(0.0374005,0,0,1,820.414,1258)">
                            <rect x="852.29" y="703.797" width="926.165" height="38.465" style="fill:rgb(118,160,138);"/>
                        </g>
                        <g transform="matrix(0.0374005,0,0,1,820.414,1165)">
                            <rect x="852.29" y="703.797" width="926.165" height="38.465" style="fill:rgb(118,160,138);"/>
                        </g>
                        <g transform="matrix(1,0,0,1,-2.27374e-13,0.25)">
                            <rect x="852.29" y="703.797" width="926.165" height="38.465" style="fill:rgb(116,150,210);"/>
                        </g>
                        <g transform="matrix(1,0,0,1,-2.27374e-13,47)">
                            <rect x="852.29" y="703.797" width="926.165" height="38.465" style="fill:rgb(237,203,100);"/>
                        </g>
                        <g transform="matrix(1,0,0,1,-2.27374e-13,94.5)">
                            <rect x="852.29" y="703.797" width="926.165" height="38.465" style="fill:rgb(116,150,210);"/>
                        </g>
                        <g transform="matrix(1,0,0,1,-2.27374e-13,141)">
                            <rect x="852.29" y="703.797" width="926.165" height="38.465" style="fill:rgb(116,150,210);"/>
                        </g>
                        <g transform="matrix(1,0,0,1,-2.27374e-13,187.5)">
                            <rect x="852.29" y="703.797" width="926.165" height="38.465" style="fill:rgb(116,150,210);"/>
                        </g>
                        <g transform="matrix(0.927485,0,0,1,61.8035,234)">
                            <rect x="852.29" y="703.797" width="926.165" height="38.465" style="fill:rgb(116,150,210);"/>
                        </g>
                        <g transform="matrix(0.558593,0,0,1,376.207,281)">
                            <rect x="852.29" y="703.797" width="926.165" height="38.465" style="fill:rgb(116,150,210);"/>
                        </g>
                        <g transform="matrix(0.462065,0,0,1,458.476,327)">
                            <rect x="852.29" y="703.797" width="926.165" height="38.465" style="fill:rgb(116,150,210);"/>
                        </g>
                        <g transform="matrix(0.288196,0,0,1,606.664,373)">
                            <rect x="852.29" y="703.797" width="926.165" height="38.465" style="fill:rgb(116,150,210);"/>
                        </g>
                        <g transform="matrix(0.277772,0,0,1,615.547,467)">
                            <rect x="852.29" y="703.797" width="926.165" height="38.465" style="fill:rgb(116,150,210);"/>
                        </g>
                        <g transform="matrix(0.28744,0,0,1,607.308,418)">
                            <rect x="852.29" y="703.797" width="926.165" height="38.465" style="fill:rgb(237,203,100);"/>
                        </g>
                        <g transform="matrix(0.265029,0,0,1,626.408,514)">
                            <rect x="852.29" y="703.797" width="926.165" height="38.465" style="fill:rgb(237,203,100);"/>
                        </g>
                        <g transform="matrix(0.26086,0,0,1,629.961,560)">
                            <rect x="852.29" y="703.797" width="926.165" height="38.465" style="fill:rgb(237,203,100);"/>
                        </g>
                        <g transform="matrix(0.218645,0,0,1,665.941,607)">
                            <rect x="852.29" y="703.797" width="926.165" height="38.465" style="fill:rgb(237,203,100);"/>
                        </g>
                        <g transform="matrix(0.205616,0,0,1,677.045,653)">
                            <rect x="852.29" y="703.797" width="926.165" height="38.465" style="fill:rgb(237,203,100);"/>
                        </g>
                        <g transform="matrix(0.160795,0,0,1,715.246,700)">
                            <rect x="852.29" y="703.797" width="926.165" height="38.465" style="fill:rgb(237,203,100);"/>
                        </g>
                        <g transform="matrix(0.141512,0,0,1,731.681,746)">
                            <rect x="852.29" y="703.797" width="926.165" height="38.465" style="fill:rgb(116,150,210);"/>
                        </g>
                        <g transform="matrix(0.111805,0,0,1,757,792)">
                            <rect x="852.29" y="703.797" width="926.165" height="38.465" style="fill:rgb(116,150,210);"/>
                        </g>
                        <g transform="matrix(0.0867885,0,0,1,778.321,839)">
                            <rect x="852.29" y="703.797" width="926.165" height="38.465" style="fill:rgb(237,203,100);"/>
                        </g>
                        <g transform="matrix(0.076365,0,0,1,787.205,885)">
                            <rect x="852.29" y="703.797" width="926.165" height="38.465" style="fill:rgb(237,203,100);"/>
                        </g>
                        <g transform="matrix(0.0742804,0,0,1,788.981,932)">
                            <rect x="852.29" y="703.797" width="926.165" height="38.465" style="fill:rgb(237,203,100);"/>
                        </g>
                        <g transform="matrix(0.0576028,0,0,1,803.195,979)">
                            <rect x="852.29" y="703.797" width="926.165" height="38.465" style="fill:rgb(237,203,100);"/>
                        </g>
                        <g transform="matrix(0.039883,0,0,1,818.298,1072)">
                            <rect x="852.29" y="703.797" width="926.165" height="38.465" style="fill:rgb(237,203,100);"/>
                        </g>
                        <g transform="matrix(0.00871604,0,0,1,844.861,1677)">
                            <rect x="852.29" y="703.797" width="926.165" height="38.465" style="fill:rgb(237,203,100);"/>
                        </g>
                        <g transform="matrix(0.0435312,0,0,1,815.188,1026)">
                            <rect x="852.29" y="703.797" width="926.165" height="38.465" style="fill:rgb(182,42,61);"/>
                        </g>
                        <g transform="matrix(0.0372771,0,0,1,820.519,1119)">
                            <rect x="852.29" y="703.797" width="926.165" height="38.465" style="fill:rgb(182,42,61);"/>
                        </g>
                        <g transform="matrix(0.0362348,0,0,1,821.407,1212)">
                            <rect x="852.29" y="703.797" width="926.165" height="38.465" style="fill:rgb(182,42,61);"/>
                        </g>
                        <g transform="matrix(0.0331077,0,0,1,824.072,1305)">
                            <rect x="852.29" y="703.797" width="926.165" height="38.465" style="fill:rgb(182,42,61);"/>
                        </g>
                        <g transform="matrix(0.0331077,0,0,1,824.072,1398)">
                            <rect x="852.29" y="703.797" width="926.165" height="38.465" style="fill:rgb(182,42,61);"/>
                        </g>
                        <g transform="matrix(0.0331077,0,0,1,824.072,1445)">
                            <rect x="852.29" y="703.797" width="926.165" height="38.465" style="fill:rgb(182,42,61);"/>
                        </g>
                        <g transform="matrix(0.0268537,0,0,1,829.403,1491)">
                            <rect x="852.29" y="703.797" width="926.165" height="38.465" style="fill:rgb(182,42,61);"/>
                        </g>
                        <g transform="matrix(0.0143455,0,0,1,840.063,1538)">
                            <rect x="852.29" y="703.797" width="926.165" height="38.465" style="fill:rgb(118,160,138);"/>
                        </g>
                        <g transform="matrix(0.0116771,0,0,1,842.337,1631)">
                            <rect x="852.29" y="703.797" width="926.165" height="38.465" style="fill:rgb(118,160,138);"/>
                        </g>
                        <g transform="matrix(0.00792003,0,0,1,845.54,1723)">
                            <rect x="852.29" y="703.797" width="926.165" height="38.465" style="fill:rgb(118,160,138);"/>
                        </g>
                        <g transform="matrix(0.0116771,0,0,1,842.337,1584)">
                            <rect x="852.29" y="703.797" width="926.165" height="38.465" style="fill:rgb(181,150,109);"/>
                        </g>
                        <g transform="matrix(0.00740769,0,0,1,845.976,1770)">
                            <rect x="852.29" y="703.797" width="926.165" height="38.465" style="fill:rgb(181,150,109);"/>
                        </g>
                        <g transform="matrix(0.00714085,0,0,1,846.204,1816)">
                            <rect x="852.29" y="703.797" width="926.165" height="38.465" style="fill:rgb(181,150,109);"/>
                        </g>
                        <g transform="matrix(0.00580665,0,0,1,847.341,1861)">
                            <rect x="852.29" y="703.797" width="926.165" height="38.465" style="fill:rgb(181,150,109);"/>
                        </g>
                        <g transform="matrix(0.00500613,0,0,1,848.023,1909)">
                            <rect x="852.29" y="703.797" width="926.165" height="38.465" style="fill:rgb(181,150,109);"/>
                        </g>
                        <g transform="matrix(0.00500613,0,0,1,848.023,1954)">
                            <rect x="852.29" y="703.797" width="926.165" height="38.465" style="fill:rgb(181,150,109);"/>
                        </g>
                    </g>
                    <g>
                        <g transform="matrix(0.0244301,0,0,1,1776.76,47)">
                            <rect x="852.29" y="703.797" width="926.165" height="38.465" style="fill:rgb(237,203,100);"/>
                        </g>
                        <g transform="matrix(0.0140067,0,0,1,1785.65,94.5)">
                            <rect x="852.29" y="703.797" width="926.165" height="38.465" style="fill:rgb(116,150,210);"/>
                        </g>
                        <g transform="matrix(0.267296,0,0,1,1569.77,0.25)">
                            <rect x="852.29" y="703.797" width="926.165" height="38.465" style="fill:rgb(116,150,210);"/>
                        </g>
                        <g transform="matrix(0.0127558,0,0,1,1786.71,141)">
                            <rect x="852.29" y="703.797" width="926.165" height="38.465" style="fill:rgb(116,150,210);"/>
                        </g>
                        <g transform="matrix(0.0056679,0,0,1,1792.75,187.5)">
                            <rect x="852.29" y="703.797" width="926.165" height="38.465" style="fill:rgb(116,150,210);"/>
                        </g>
                    </g>
                </g>
                <g>
                    <g>
                        <g transform="matrix(1,0,0,1,0,2.72418)">
                            <path d="M2043.92,676.058C2043.92,693.434 2043.92,692.883 2043.92,692.883" style="fill:none;stroke:black;stroke-width:6.06px;"/>
                        </g>
                        <g transform="matrix(1,0,0,1,-29.1269,2.72418)">
                            <path d="M2043.92,676.058C2043.92,693.434 2043.92,686.042 2043.92,686.042" style="fill:none;stroke:black;stroke-width:6.06px;"/>
                        </g>
                        <g transform="matrix(1,0,0,1,-55.8265,2.72418)">
                            <path d="M2043.92,676.058C2043.92,693.434 2043.92,686.042 2043.92,686.042" style="fill:none;stroke:black;stroke-width:6.06px;"/>
                        </g>
                        <g transform="matrix(1,0,0,1,-83.1881,2.72418)">
                            <path d="M2043.92,676.058C2043.92,693.434 2043.92,686.042 2043.92,686.042" style="fill:none;stroke:black;stroke-width:6.06px;"/>
                        </g>
                        <g transform="matrix(1,0,0,1,-110.108,2.72418)">
                            <path d="M2043.92,676.058C2043.92,693.434 2043.92,686.042 2043.92,686.042" style="fill:none;stroke:black;stroke-width:6.06px;"/>
                        </g>
                        <g transform="matrix(1,0,0,1,-164.611,2.72418)">
                            <path d="M2043.92,676.058C2043.92,693.434 2043.92,686.042 2043.92,686.042" style="fill:none;stroke:black;stroke-width:6.06px;"/>
                        </g>
                        <g transform="matrix(1,0,0,1,-193.297,2.72418)">
                            <path d="M2043.92,676.058C2043.92,693.434 2043.92,686.042 2043.92,686.042" style="fill:none;stroke:black;stroke-width:6.06px;"/>
                        </g>
                        <g transform="matrix(1,0,0,1,-220.658,2.72418)">
                            <path d="M2043.92,676.058C2043.92,693.434 2043.92,686.042 2043.92,686.042" style="fill:none;stroke:black;stroke-width:6.06px;"/>
                        </g>
                        <g transform="matrix(1,0,0,1,-434.917,2.72418)">
                            <path d="M2043.92,676.058C2043.92,693.434 2043.92,686.042 2043.92,686.042" style="fill:none;stroke:black;stroke-width:6.06px;"/>
                        </g>
                        <g transform="matrix(1,0,0,1,-519.209,2.72418)">
                            <path d="M2043.92,676.058C2043.92,693.434 2043.92,686.042 2043.92,686.042" style="fill:none;stroke:black;stroke-width:6.06px;"/>
                        </g>
                        <g transform="matrix(1,0,0,1,-603.279,2.72418)">
                            <path d="M2043.92,676.058C2043.92,693.434 2043.92,686.042 2043.92,686.042" style="fill:none;stroke:black;stroke-width:6.06px;"/>
                        </g>
                        <g transform="matrix(1,0,0,1,-687.792,2.72418)">
                            <path d="M2043.92,676.058C2043.92,693.434 2043.92,686.042 2043.92,686.042" style="fill:none;stroke:black;stroke-width:6.06px;"/>
                        </g>
                        <g transform="matrix(1,0,0,1,-855.933,2.72418)">
                            <path d="M2043.92,676.058C2043.92,693.434 2043.92,686.042 2043.92,686.042" style="fill:none;stroke:black;stroke-width:6.06px;"/>
                        </g>
                        <g transform="matrix(1,0,0,1,-939.783,2.72418)">
                            <path d="M2043.92,676.058C2043.92,693.434 2043.92,686.042 2043.92,686.042" style="fill:none;stroke:black;stroke-width:6.06px;"/>
                        </g>
                        <g transform="matrix(1,0,0,1,-1024.52,2.72418)">
                            <path d="M2043.92,676.058C2043.92,693.434 2043.92,686.042 2043.92,686.042" style="fill:none;stroke:black;stroke-width:6.06px;"/>
                        </g>
                        <g transform="matrix(1,0,0,1,-1107.7,2.72418)">
                            <path d="M2043.92,676.058C2043.92,693.434 2043.92,686.042 2043.92,686.042" style="fill:none;stroke:black;stroke-width:6.06px;"/>
                        </g>
                        <g transform="matrix(1,0,0,1,-138.739,2.72418)">
                            <path d="M2043.92,676.058C2043.92,693.434 2043.92,692.883 2043.92,692.883" style="fill:none;stroke:black;stroke-width:6.06px;"/>
                        </g>
                        <g transform="matrix(1,0,0,1,-351.122,2.72418)">
                            <path d="M2043.92,676.058C2043.92,693.434 2043.92,692.883 2043.92,692.883" style="fill:none;stroke:black;stroke-width:6.06px;"/>
                        </g>
                        <g transform="matrix(1,0,0,1,-772.183,2.72418)">
                            <path d="M2043.92,676.058C2043.92,693.434 2043.92,692.883 2043.92,692.883" style="fill:none;stroke:black;stroke-width:6.06px;"/>
                        </g>
                        <g transform="matrix(1,0,0,1,0.551646,-2.90476)">
                            <path d="M1797.34,679.643L2056.06,679.643" style="fill:none;stroke:black;stroke-width:6.06px;"/>
                        </g>
                        <path d="M852.784,676.739L1778.03,676.739" style="fill:none;stroke:black;stroke-width:6.06px;"/>
                        <path d="M852.784,676.739L852.784,2725.44" style="fill:none;stroke:black;stroke-width:6.06px;"/>
                        <g transform="matrix(1,0,0,1,0,0.861946)">
                            <path d="M1789.91,665.372C1766.46,688.817 1766.29,688.99 1766.29,688.99" style="fill:none;stroke:black;stroke-width:6.06px;"/>
                        </g>
                        <g transform="matrix(1,0,0,1,18.2733,0.861946)">
                            <path d="M1789.91,665.372C1766.46,688.817 1766.29,688.99 1766.29,688.99" style="fill:none;stroke:black;stroke-width:6.06px;"/>
                        </g>
                    </g>
                    <g transform="matrix(1,0,0,1,12.6262,-1.68349)">
                        <text x="796.512px" y="661.953px" style="font-family:'ArialMT', 'Arial', sans-serif;font-size:45.833px;">0.00</text>
                    </g>
                    <g transform="matrix(1,0,0,1,431.815,-2.52523)">
                        <text x="796.512px" y="661.953px" style="font-family:'ArialMT', 'Arial', sans-serif;font-size:45.833px;">0.04</text>
                    </g>
                    <g transform="matrix(1,0,0,1,855.212,-1.68349)">
                        <text x="796.512px" y="661.953px" style="font-family:'ArialMT', 'Arial', sans-serif;font-size:45.833px;">0.08</text>
                    </g>
                    <g transform="matrix(1,0,0,1,1066.49,-2.52523)">
                        <text x="796.512px" y="661.953px" style="font-family:'ArialMT', 'Arial', sans-serif;font-size:45.833px;">0.50</text>
                    </g>
                    <g transform="matrix(1,0,0,1,1202.85,-3.36697)">
                        <text x="796.512px" y="661.953px" style="font-family:'ArialMT', 'Arial', sans-serif;font-size:45.833px;">1.00</text>
                    </g>
                </g>
                <g>
                    <g transform="matrix(1,0,0,1,-0.527761,-1.8101)">
                        <text x="162.221px" y="2687.69px" style="font-family:'Arial-BoldItalicMT', 'Arial', sans-serif;font-weight:700;font-style:italic;font-size:45.833px;fill:rgb(181,150,109);">Mus musculus</text>
                    </g>
                    <g transform="matrix(1,0,0,1,-0.5949,-47.0625)">
                        <text x="162.221px" y="2687.69px" style="font-family:'Arial-ItalicMT', 'Arial', sans-serif;font-style:italic;font-size:45.833px;">Homo sapiens</text>
                    </g>
                    <g transform="matrix(1,0,0,1,-0.527761,-92.3149)">
                        <text x="162.221px" y="2687.69px" style="font-family:'Arial-BoldItalicMT', 'Arial', sans-serif;font-weight:700;font-style:italic;font-size:45.833px;fill:rgb(181,150,109);">Pan troglodytes</text>
                    </g>
                    <g transform="matrix(1,0,0,1,-2.85523,-139.453)">
                        <text x="162.221px" y="2687.69px" style="font-family:'Arial-ItalicMT', 'Arial', sans-serif;font-style:italic;font-size:45.833px;">Oncorhynchus tshawytscha</text>
                    </g>
                    <g transform="matrix(1,0,0,1,-0.751556,-186.591)">
                        <text x="162.221px" y="2687.69px" style="font-family:'Arial-ItalicMT', 'Arial', sans-serif;font-style:italic;font-size:45.833px;">Ficedula</text>
                        <text x="348.195px" y="2687.69px" style="font-family:'ArialMT', 'Arial', sans-serif;font-size:45.833px;">species</text>
                    </g>
                    <g transform="matrix(1,0,0,1,-2.85523,-229.015)">
                        <text x="162.221px" y="2687.69px" style="font-family:'Arial-ItalicMT', 'Arial', sans-serif;font-style:italic;font-size:45.833px;">Oryza sativa</text>
                    </g>
                    <g transform="matrix(1,0,0,1,-0.639659,-276.153)">
                        <text x="162.221px" y="2687.69px" style="font-family:'Arial-ItalicMT', 'Arial', sans-serif;font-style:italic;font-size:45.833px;">Plasmodium ﬂaciparum</text>
                    </g>
                    <g transform="matrix(1,0,0,1,-0.5949,-322.348)">
                        <text x="162.221px" y="2687.69px" style="font-family:'Arial-ItalicMT', 'Arial', sans-serif;font-style:italic;font-size:45.833px;">Hordeum vulgare</text>
                    </g>
                    <g transform="matrix(1,0,0,1,-0.751556,-367.6)">
                        <text x="162.221px" y="2687.69px" style="font-family:'Arial-ItalicMT', 'Arial', sans-serif;font-style:italic;font-size:45.833px;">Fugu rubripes</text>
                    </g>
                    <g transform="matrix(1,0,0,1,-0.639659,-412.853)">
                        <text x="162.221px" y="2687.69px" style="font-family:'Arial-ItalicMT', 'Arial', sans-serif;font-style:italic;font-size:45.833px;">Pinus sylvestris</text>
                    </g>
                    <g transform="matrix(1,0,0,1,-1.89291,-459.048)">
                        <text x="162.221px" y="2687.69px" style="font-family:'Arial-ItalicMT', 'Arial', sans-serif;font-style:italic;font-size:45.833px;">Strongylocentrotus franciscanis</text>
                    </g>
                    <g transform="matrix(1,0,0,1,1.84447,-505.243)">
                        <text x="162.221px" y="2687.69px" style="font-family:'Arial-BoldItalicMT', 'Arial', sans-serif;font-weight:700;font-style:italic;font-size:45.833px;fill:rgb(182,42,61);">Anopheles</text>
                        <text x="409.247px" y="2687.69px" style="font-family:'Arial-BoldMT', 'Arial', sans-serif;font-weight:700;font-size:45.833px;fill:rgb(182,42,61);">species</text>
                    </g>
                    <g transform="matrix(1,0,0,1,-2.83286,-555.209)">
                        <text x="162.221px" y="2687.69px" style="font-family:'Arial-ItalicMT', 'Arial', sans-serif;font-style:italic;font-size:45.833px;">Crassostrea virginica</text>
                    </g>
                    <g transform="matrix(1,0,0,1,-1.89291,-598.576)">
                        <text x="162.221px" y="2687.69px" style="font-family:'Arial-ItalicMT', 'Arial', sans-serif;font-style:italic;font-size:45.833px;">Silene</text>
                        <text x="302.362px" y="2687.69px" style="font-family:'ArialMT', 'Arial', sans-serif;font-size:45.833px;">species</text>
                    </g>
                    <g transform="matrix(1,0,0,1,-2.83286,-643.829)">
                        <text x="162.221px" y="2687.69px" style="font-family:'Arial-ItalicMT', 'Arial', sans-serif;font-style:italic;font-size:45.833px;">Ciona intestinalis</text>
                    </g>
                    <g transform="matrix(1,0,0,1,2.2473,-691.909)">
                        <text x="162.221px" y="2687.69px" style="font-family:'Arial-ItalicMT', 'Arial', sans-serif;font-style:italic;font-size:45.833px;">Arabidopsis</text>
                        <text x="414.439px" y="2687.69px" style="font-family:'ArialMT', 'Arial', sans-serif;font-size:45.833px;">thaliana</text>
                    </g>
                    <g transform="matrix(1,0,0,1,-3.01189,-735.276)">
                        <text x="162.221px" y="2687.69px" style="font-family:'Arial-BoldItalicMT', 'Arial', sans-serif;font-weight:700;font-style:italic;font-size:45.833px;fill:rgb(182,42,61);">Caenorhabditis</text>
                        <text x="508.567px" y="2687.69px" style="font-family:'Arial-BoldMT', 'Arial', sans-serif;font-weight:700;font-size:45.833px;fill:rgb(182,42,61);">species</text>
                    </g>
                    <g transform="matrix(1,0,0,1,0.210765,-780.529)">
                        <text x="162.221px" y="2687.69px" style="font-family:'Arial-ItalicMT', 'Arial', sans-serif;font-style:italic;font-size:45.833px;">Zea mays</text>
                    </g>
                    <g transform="matrix(1,0,0,1,2.2473,-828.609)">
                        <text x="162.221px" y="2687.69px" style="font-family:'Arial-ItalicMT', 'Arial', sans-serif;font-style:italic;font-size:45.833px;">Artemia franciscana</text>
                    </g>
                    <g transform="matrix(1,0,0,1,-0.729177,-877.633)">
                        <text x="162.221px" y="2687.69px" style="font-family:'Arial-ItalicMT', 'Arial', sans-serif;font-style:italic;font-size:45.833px;">Encephalitozoon cuniculi</text>
                    </g>
                    <g transform="matrix(1,0,0,1,-0.662038,-922.885)">
                        <text x="162.221px" y="2687.69px" style="font-family:'Arial-BoldItalicMT', 'Arial', sans-serif;font-weight:700;font-style:italic;font-size:45.833px;fill:rgb(182,42,61);">Drosophila</text>
                        <text x="414.327px" y="2687.69px" style="font-family:'Arial-BoldMT', 'Arial', sans-serif;font-weight:700;font-size:45.833px;fill:rgb(182,42,61);">species</text>
                    </g>
                    <g transform="matrix(1,0,0,1,-0.505381,-975.68)">
                        <text x="162.221px" y="2687.69px" style="font-family:'Arial-ItalicMT', 'Arial', sans-serif;font-style:italic;font-size:45.833px;">Leishmania donovani</text>
                    </g>
                    <g transform="matrix(1,0,0,1,-4.37704,-1021.87)">
                        <text x="162.221px" y="2687.69px" style="font-family:'Arial-ItalicMT', 'Arial', sans-serif;font-style:italic;font-size:45.833px;">T<tspan x="186.816px 202.079px " y="2687.69px 2687.69px ">ry</tspan>panosoma cruzi</text>
                    </g>
                    <g transform="matrix(1,0,0,1,-4.37704,-1069.96)">
                        <text x="162.221px" y="2687.69px" style="font-family:'Arial-ItalicMT', 'Arial', sans-serif;font-style:italic;font-size:45.833px;">T<tspan x="186.011px 211.501px " y="2687.69px 2687.69px ">ox</tspan>oplasma gondii</text>
                    </g>
                    <g transform="matrix(1,0,0,1,-3.12379,-1111.44)">
                        <text x="162.221px" y="2687.69px" style="font-family:'Arial-ItalicMT', 'Arial', sans-serif;font-style:italic;font-size:45.833px;">Giardia lamblia</text>
                    </g>
                    <g transform="matrix(1,0,0,1,-0.639659,-1155.75)">
                        <text x="162.221px" y="2687.69px" style="font-family:'Arial-ItalicMT', 'Arial', sans-serif;font-style:italic;font-size:45.833px;">Pseudomonas aeruginosa</text>
                    </g>
                    <g transform="matrix(1,0,0,1,-1.89291,-1201.94)">
                        <text x="162.221px" y="2687.69px" style="font-family:'Arial-ItalicMT', 'Arial', sans-serif;font-style:italic;font-size:45.833px;">Streptococcus pyogenes</text>
                    </g>
                    <g transform="matrix(1,0,0,1,-0.908213,-1250.97)">
                        <text x="162.221px" y="2687.69px" style="font-family:'Arial-ItalicMT', 'Arial', sans-serif;font-style:italic;font-size:45.833px;">Neurospora crassa</text>
                    </g>
                    <g transform="matrix(1,0,0,1,-0.706797,-1296.22)">
                        <text x="162.221px" y="2687.69px" style="font-family:'Arial-ItalicMT', 'Arial', sans-serif;font-style:italic;font-size:45.833px;">Dictyostelium discoideum</text>
                    </g>
                    <g transform="matrix(1,0,0,1,-2.83286,-1341.47)">
                        <text x="162.221px" y="2687.69px" style="font-family:'Arial-ItalicMT', 'Arial', sans-serif;font-style:italic;font-size:45.833px;">Chlamydomonas reinhardtii</text>
                    </g>
                    <g transform="matrix(1,0,0,1,-1.89291,-1387.67)">
                        <text x="162.221px" y="2687.69px" style="font-family:'Arial-ItalicMT', 'Arial', sans-serif;font-style:italic;font-size:45.833px;">Saccharomyces cerevisiae</text>
                    </g>
                    <g transform="matrix(1,0,0,1,-2.83286,-1434.8)">
                        <text x="162.221px" y="2687.69px" style="font-family:'Arial-ItalicMT', 'Arial', sans-serif;font-style:italic;font-size:45.833px;">Cryptosporidium parvum</text>
                    </g>
                    <g transform="matrix(1,0,0,1,-2.83286,-1480.06)">
                        <text x="162.221px" y="2687.69px" style="font-family:'Arial-ItalicMT', 'Arial', sans-serif;font-style:italic;font-size:45.833px;">Campylobacter jejuni</text>
                    </g>
                    <g transform="matrix(1,0,0,1,-2.83286,-1525.31)">
                        <text x="162.221px" y="2687.69px" style="font-family:'Arial-ItalicMT', 'Arial', sans-serif;font-style:italic;font-size:45.833px;">Cryptococcus neoformans</text>
                    </g>
                    <g transform="matrix(1,0,0,1,-0.729177,-1572.45)">
                        <text x="162.221px" y="2687.69px" style="font-family:'Arial-ItalicMT', 'Arial', sans-serif;font-style:italic;font-size:45.833px;">Enterococcus faecium</text>
                    </g>
                    <g transform="matrix(1,0,0,1,-4.35467,-1617.81)">
                        <text x="162.221px" y="2687.69px" style="font-family:'Arial-ItalicMT', 'Arial', sans-serif;font-style:italic;font-size:45.833px;">V<tspan x="191.964px 202.146px " y="2687.69px 2687.69px ">ib</tspan>rio cholerae</text>
                    </g>
                    <g transform="matrix(1,0,0,1,-0.729177,-1662.12)">
                        <text x="162.221px" y="2687.69px" style="font-family:'Arial-ItalicMT', 'Arial', sans-serif;font-style:italic;font-size:45.833px;">Escherichia coli</text>
                    </g>
                    <g transform="matrix(1,0,0,1,-0.908213,-1708.43)">
                        <text x="162.221px" y="2687.69px" style="font-family:'Arial-ItalicMT', 'Arial', sans-serif;font-style:italic;font-size:45.833px;">Neisseria meningitidis</text>
                    </g>
                    <g transform="matrix(1,0,0,1,-0.5949,-1753.57)">
                        <text x="162.221px" y="2687.69px" style="font-family:'Arial-ItalicMT', 'Arial', sans-serif;font-style:italic;font-size:45.833px;">Helicobacter pylori</text>
                    </g>
                    <g transform="matrix(1,0,0,1,-0.505381,-1799.94)">
                        <text x="162.221px" y="2687.69px" style="font-family:'Arial-ItalicMT', 'Arial', sans-serif;font-style:italic;font-size:45.833px;">Legionella pneumophila</text>
                    </g>
                    <g transform="matrix(1,0,0,1,-1.89291,-1843.96)">
                        <text x="162.221px" y="2687.69px" style="font-family:'Arial-ItalicMT', 'Arial', sans-serif;font-style:italic;font-size:45.833px;">Salmonella enterica</text>
                    </g>
                    <g transform="matrix(1,0,0,1,-4.37704,-1892.04)">
                        <text x="162.221px" y="2687.69px" style="font-family:'Arial-ItalicMT', 'Arial', sans-serif;font-style:italic;font-size:45.833px;">T<tspan x="186.011px 211.501px " y="2687.69px 2687.69px ">et</tspan>rahymena thermophila</text>
                    </g>
                    <g transform="matrix(1,0,0,1,-0.639659,-1939.18)">
                        <text x="162.221px" y="2687.69px" style="font-family:'Arial-ItalicMT', 'Arial', sans-serif;font-style:italic;font-size:45.833px;">Prochlorococcus</text>
                    </g>
                </g>
                <text x="1490.52px" y="1092.1px" style="font-family:'Arial-BoldMT', 'Arial', sans-serif;font-weight:700;font-size:100px;fill:rgb(116,150,210);">Prokaryotes</text>
                <g transform="matrix(1,0,0,1,-359.058,253.182)">
                    <text x="1490.52px" y="1092.1px" style="font-family:'Arial-BoldMT', 'Arial', sans-serif;font-weight:700;font-size:100px;fill:rgb(237,203,100);">Unicellular eukaryotes</text>
                </g>
                <g transform="matrix(1,0,0,1,-515.571,867.724)">
                    <text x="1490.52px" y="1092.1px" style="font-family:'Arial-BoldMT', 'Arial', sans-serif;font-weight:700;font-size:100px;fill:rgb(182,42,61);">Invertebrates</text>
                </g>
                <g transform="matrix(1,0,0,1,-510.968,1173.84)">
                    <text x="1490.52px" y="1092.1px" style="font-family:'Arial-BoldMT', 'Arial', sans-serif;font-weight:700;font-size:100px;fill:rgb(118,160,138);">V<tspan x="1551.7px 1607.32px " y="1092.1px 1092.1px ">as</tspan>cular plants</text>
                </g>
                <g transform="matrix(1,0,0,1,-586.922,1461.55)">
                    <text x="1490.52px" y="1092.1px" style="font-family:'Arial-BoldMT', 'Arial', sans-serif;font-weight:700;font-size:100px;fill:rgb(181,150,109);">V<tspan x="1551.7px 1607.32px " y="1092.1px 1092.1px ">er</tspan>tebrates</text>
                </g>
            </g>
            <g transform="matrix(1,0,0,1,-626.164,11.3967)">
                <text x="830.408px" y="509.834px" style="font-family:'Arial-BoldMT', 'Arial', sans-serif;font-weight:700;font-size:75px;">Eﬀective population size x Nucleotide mutation rate (</text>
                <text x="2716.36px" y="509.834px" style="font-family:'Arial-BoldItalicMT', 'Arial', sans-serif;font-weight:700;font-style:italic;font-size:75px;">N</text>
                <text x="2770.52px" y="509.834px" style="font-family:'Arial-BoldItalicMT', 'Arial', sans-serif;font-weight:700;font-style:italic;font-size:75px;">ₑ</text>
                <text x="2800.4px" y="509.834px" style="font-family:'Arial-BoldItalicMT', 'Arial', sans-serif;font-weight:700;font-style:italic;font-size:75px;">μ</text>
                <text x="2845.63px" y="509.834px" style="font-family:'Arial-BoldMT', 'Arial', sans-serif;font-weight:700;font-size:75px;">)</text>
            </g>
        </g>
    </g>
</svg>
