<?xml version="1.0" encoding="UTF-8" standalone="no"?>
<!DOCTYPE svg PUBLIC "-//W3C//DTD SVG 1.1//EN" "http://www.w3.org/Graphics/SVG/1.1/DTD/svg11.dtd">
<svg width="100%" height="100%" viewBox="0 0 1966 2037" version="1.1" xmlns="http://www.w3.org/2000/svg" xmlns:xlink="http://www.w3.org/1999/xlink" xml:space="preserve" xmlns:serif="http://www.serif.com/" style="fill-rule:evenodd;clip-rule:evenodd;stroke-linecap:round;stroke-linejoin:round;stroke-miterlimit:1.5;">
    <g transform="matrix(1,0,0,1,-286.86,-628.942)">
        <g>
            <path d="M728.175,2145.49C730.703,2174.3 797.9,2223.07 784.152,2211.78C770.403,2200.49 662.379,2095.65 645.684,2077.73C635.101,2066.37 682.619,2119.71 683.984,2104.24C690.612,2029.12 686.684,1716.09 685.457,1626.97C685.19,1607.6 683.493,1587.45 676.618,1569.53C669.744,1551.6 662.87,1526.32 644.211,1519.44C616.223,1509.13 540.606,1512.57 508.69,1507.66C489.35,1504.68 465.971,1496.12 452.713,1489.98C443.527,1485.73 435.528,1477.7 429.144,1470.83C423.121,1464.34 423.232,1447.96 414.414,1448.73C394.773,1450.45 331.431,1477.21 311.3,1481.14C304.834,1482.4 294.605,1476.72 293.623,1472.3C292.641,1467.88 299.043,1457.73 305.407,1454.63C325.539,1444.81 395.51,1424.67 414.414,1413.38C422.106,1408.79 414.826,1394.88 418.833,1386.87C425.216,1374.1 442.827,1354.35 452.713,1336.78C478.001,1291.85 533.977,1177.44 570.558,1117.3C600.722,1067.7 672.199,975.882 672.199,975.882C672.199,975.882 688.403,879.642 667.78,841.833C647.157,804.025 564.42,766.216 548.462,749.03C542.627,742.746 564.493,734.632 572.031,738.719C592.408,749.767 670.726,815.318 670.726,815.318L669.253,635.605L732.595,635.605L732.595,989.139C732.595,989.139 802.319,1065.74 828.344,1102.57C852.069,1136.14 879.901,1188.49 888.739,1210.1C891.679,1217.28 881.619,1225.32 881.374,1232.19C881.135,1238.87 882.543,1246.62 887.266,1251.34C893.158,1257.24 908.942,1259.49 916.727,1267.55C930.476,1281.79 957.236,1312.48 969.757,1336.78C981.927,1360.4 971.438,1396.37 991.853,1413.38C1016.89,1434.25 1097.67,1450.45 1120.01,1461.99C1126.36,1465.27 1128.11,1477.95 1125.9,1482.61C1123.69,1487.28 1113.34,1491.8 1106.75,1489.98C1083.67,1483.6 1010.27,1448.49 987.434,1444.32C978.528,1442.69 977.064,1459.59 969.757,1464.94C959.691,1472.3 942.906,1484.94 927.039,1488.51C905.188,1493.42 863.451,1489.98 838.655,1494.4C817.712,1498.13 791.73,1498.56 778.26,1515.02C760.583,1536.63 735.714,1584.76 732.595,1624.03C724.247,1729.11 719.583,2047.53 728.175,2145.49Z" style="fill:rgb(128,128,128);stroke:rgb(128,128,128);stroke-width:13.33px;"/>
            <path d="M731.564,2276.57C720.722,2308.93 723.079,2463.39 729.678,2505.66C732.156,2521.53 766.131,2523.26 771.159,2530.17C775.158,2535.67 762.046,2541.33 759.846,2547.14C757.722,2552.75 755.652,2559.51 757.961,2565.05C760.318,2570.71 769.761,2574.82 773.988,2581.08C778.23,2587.36 785.111,2595.07 783.415,2602.76C781.373,2612.03 769.745,2627.74 761.732,2636.7C754.398,2644.9 746.062,2654.07 735.335,2656.5C722.136,2659.48 697.467,2659.17 682.54,2654.61C668.283,2650.26 654.572,2639.53 645.773,2629.16C637.123,2618.96 630.943,2605.71 629.746,2592.39C628.489,2578.41 629.331,2558.51 638.23,2545.25C668.084,2500.79 681.312,2526.43 684.426,2506.6C692.91,2452.55 695.896,2277.2 689.139,2220.95C686.404,2198.17 626.469,2154.16 643.887,2169.09C661.485,2184.18 780.116,2293.54 794.728,2311.45C809.341,2329.36 739.203,2253.76 731.564,2276.57Z" style="fill:rgb(128,128,128);stroke:rgb(128,128,128);stroke-width:13.33px;"/>
            <g transform="matrix(1,0,0,1,64.6847,46.2129)">
                <text x="1267.42px" y="735.105px" style="font-family:'ArialMT', 'Arial', sans-serif;font-size:100px;fill:rgb(255,182,0);">soma</text>
            </g>
            <g transform="matrix(1,0,0,1,64.6847,862.533)">
                <text x="1267.42px" y="735.105px" style="font-family:'ArialMT', 'Arial', sans-serif;font-size:100px;fill:rgb(255,182,0);">soma</text>
            </g>
            <g transform="matrix(1,0,0,1,-216.918,1213.24)">
                <text x="1267.42px" y="735.105px" style="font-family:'ArialMT', 'Arial', sans-serif;font-size:100px;fill:rgb(128,128,128);">-75 mV</text>
            </g>
            <g transform="matrix(1,0,0,1,64.1476,1390.56)">
                <text x="1267.42px" y="735.105px" style="font-family:'ArialMT', 'Arial', sans-serif;font-size:100px;fill:rgb(68,169,204);">axon</text>
            </g>
            <g transform="matrix(1,0,0,1,417.955,1726.24)">
                <text x="1267.42px" y="735.105px" style="font-family:'ArialMT', 'Arial', sans-serif;font-size:100px;fill:rgb(128,128,128);">5 mV</text>
            </g>
            <g transform="matrix(1,0,0,1,354.006,1904.75)">
                <text x="1267.42px" y="735.105px" style="font-family:'ArialMT', 'Arial', sans-serif;font-size:100px;fill:rgb(128,128,128);">500 ms</text>
            </g>
            <g transform="matrix(1,0,0,1,690.461,76.1824)">
                <text x="1267.42px" y="735.105px" style="font-family:'ArialMT', 'Arial', sans-serif;font-size:100px;fill:rgb(255,182,0);">-50 pA</text>
            </g>
            <g transform="matrix(1,0,0,1,64.1476,265.14)">
                <text x="1267.42px" y="735.105px" style="font-family:'ArialMT', 'Arial', sans-serif;font-size:100px;fill:rgb(68,169,204);">axon: 180 μm</text>
            </g>
            <path d="M1194.84,1093.58C1137.64,1106.1 954.487,1185.15 903.175,1208.48C894.124,1212.59 888.935,1225.91 886.971,1233.52C885.215,1240.33 886.3,1249.29 891.39,1254.14C896.546,1259.05 908.653,1264.07 917.906,1262.98C974.373,1256.35 1174.22,1227.38 1230.19,1214.37C1242.44,1211.52 1251.3,1197.24 1253.76,1184.91C1256.46,1171.41 1255.81,1147.94 1246.4,1133.35C1236.58,1118.13 1216.04,1088.94 1194.84,1093.58Z" style="fill:none;stroke:rgb(255,182,0);stroke-width:13.33px;"/>
            <path d="M1189.23,1094.92C1171.54,1114.31 1162.18,1157.42 1180.11,1179.02C1192.47,1193.9 1215.66,1206.57 1227.25,1212.9" style="fill:none;stroke:rgb(255,182,0);stroke-width:13.33px;"/>
            <path d="M1422.86,866.494L2169.53,866.494" style="fill:none;stroke:rgb(68,169,204);stroke-width:13.33px;"/>
            <path d="M1423.81,640.232L1669.87,640.232L1668.92,773.161L1917.81,773.161L1917.81,642.118L2166.7,642.118" style="fill:none;stroke:rgb(255,182,0);stroke-width:13.33px;"/>
            <path d="M1415.26,1435.01C1424.05,1439.53 1441.62,1448.58 1455.99,1449.34C1472.58,1450.22 1501.24,1438.9 1514.82,1440.29C1524.27,1441.25 1528.34,1454.89 1537.44,1457.63C1546.62,1460.4 1561.33,1459.14 1569.87,1456.88C1577.22,1454.93 1581.27,1445.51 1588.73,1444.06C1603.56,1441.17 1645.29,1437.9 1658.87,1439.53C1664.91,1440.26 1669.43,1447.82 1670.18,1453.86C1672.57,1472.97 1671.26,1520.78 1673.2,1554.17C1675.59,1595.28 1680.99,1671.83 1684.51,1700.49C1685.63,1709.57 1690.42,1720.1 1694.32,1726.13C1697.43,1730.95 1702.2,1737.34 1707.89,1736.69C1715.56,1735.81 1729.26,1724.62 1740.32,1720.85C1751.24,1717.13 1763.04,1716.75 1774.26,1714.06C1785.83,1711.3 1800.28,1704.51 1809.71,1704.26C1817.27,1704.06 1825.3,1714.44 1830.83,1712.56C1836.36,1710.67 1836.61,1692.57 1842.9,1692.95C1849.18,1693.32 1861,1712.56 1868.54,1714.82C1875.34,1716.86 1881.05,1706.64 1888.15,1706.52C1895.44,1706.4 1907.7,1721.14 1912.28,1714.06C1918.07,1705.14 1920.83,1670.82 1922.84,1652.97C1924.56,1637.73 1924,1622.31 1924.35,1606.97C1924.73,1590.37 1924.1,1571.02 1925.1,1553.42C1926.1,1536.01 1927.65,1518.6 1930.38,1501.38C1933.28,1483.15 1939.81,1458.64 1942.45,1444.06C1944.26,1434.09 1940.69,1417.28 1946.22,1413.89C1951.75,1410.5 1966.33,1420.17 1975.64,1423.69C1984.59,1427.08 1993.49,1433.37 2002.03,1435.01C2010.2,1436.57 2019.13,1433 2026.92,1433.5C2034.35,1433.98 2042.63,1435.51 2048.79,1438.02C2054.48,1440.34 2058.22,1447.7 2063.88,1448.58C2069.53,1449.46 2078.59,1446.32 2082.73,1443.3C2086.55,1440.53 2084.08,1429.9 2088.77,1430.48C2093.8,1431.11 2106.24,1445.69 2112.9,1447.07C2118.74,1448.29 2124.47,1441.67 2128.74,1438.78C2132.42,1436.29 2135.98,1433.36 2138.55,1429.73C2141.56,1425.45 2142.82,1412.51 2146.84,1413.13C2150.86,1413.76 2158.74,1426.92 2162.68,1433.5" style="fill:none;stroke:rgb(255,182,0);stroke-width:13.33px;"/>
            <path d="M1422.05,1978.79C1427.9,1981.79 1439.61,1987.78 1449.2,1988.6C1467.05,1990.1 1513.94,1986.33 1529.15,1987.84C1534.11,1988.33 1535.69,1996.17 1540.46,1997.64C1547.75,1999.91 1565.98,2002.92 1572.89,2001.42C1578,2000.3 1577.67,1990.86 1581.94,1988.6C1586.21,1986.33 1594.26,1990.1 1598.53,1987.84C1602.81,1985.58 1603.43,1975.02 1607.58,1975.02C1611.73,1975.02 1616.82,1986.26 1623.42,1987.84C1632.35,1989.98 1653.09,1985.83 1661.13,1987.84C1666.32,1989.14 1670.52,1994.69 1671.69,1999.91C1673.83,2009.46 1673.2,2031.46 1673.95,2045.16C1674.63,2057.48 1674.6,2069.88 1676.22,2082.12C1678.19,2097.03 1683.22,2118.86 1685.78,2134.61C1688.05,2148.56 1687.63,2165.58 1691.57,2176.6C1694.94,2186.03 1701.23,2198.08 1709.43,2200.74C1717.64,2203.39 1733.24,2195.99 1740.81,2192.53C1746.51,2189.93 1748.66,2181.23 1754.81,2179.98C1763.89,2178.13 1786.66,2183.12 1795.35,2181.43C1800.71,2180.39 1801.48,2169.55 1806.93,2169.85C1812.81,2170.17 1823.59,2183.52 1830.59,2183.36C1837.59,2183.2 1841.61,2168.48 1848.93,2168.88C1856.25,2169.28 1866.71,2185.53 1874.51,2185.78C1882.32,2186.02 1888.75,2172.98 1895.75,2170.33C1902.22,2167.87 1912.87,2175.74 1916.51,2169.85C1921.17,2162.28 1921.93,2140 1923.75,2124.95C1925.76,2108.3 1927.05,2084.97 1928.57,2069.93C1929.77,2058.16 1930.54,2046.29 1932.92,2034.69C1935.41,2022.54 1941.2,2008.22 1943.54,1997.04C1945.56,1987.37 1941.85,1972.99 1946.92,1967.6C1951.98,1962.21 1965.18,1962.69 1973.95,1964.7C1982.72,1966.71 1989.76,1978.18 1999.53,1979.66C2012.72,1981.68 2042.41,1974.6 2053.11,1976.77C2059.36,1978.04 2059.14,1990.12 2063.73,1992.7C2068.31,1995.27 2076.12,1994.79 2080.62,1992.22C2085.13,1989.64 2087.38,1979.5 2090.76,1977.25C2093.6,1975.36 2098.12,1976.72 2100.89,1978.7C2104.27,1981.11 2106.28,1991.57 2111.03,1991.73C2115.78,1991.89 2123.15,1983.51 2129.37,1979.66C2135.89,1975.64 2142.81,1967.84 2150.13,1967.6C2157.45,1967.36 2168.02,1974.6 2173.3,1978.22" style="fill:none;stroke:rgb(68,169,204);stroke-width:13.33px;"/>
            <g transform="matrix(1,0,0,1,-59.9389,0)">
                <path d="M1719.02,2293.21L1719.02,2536.82L1964.89,2536.07" style="fill:none;stroke:rgb(128,128,128);stroke-width:13.33px;"/>
            </g>
            <path d="M1331.84,1125.99C1265.55,1142.19 1199.26,1158.39 1132.97,1174.6" style="fill:none;stroke:rgb(255,182,0);stroke-width:13.33px;"/>
            <g transform="matrix(1,0,0,1,-127.384,1321.75)">
                <path d="M1194.84,1093.58C1137.64,1106.1 954.487,1185.15 903.175,1208.48C894.124,1212.59 888.935,1225.91 886.971,1233.52C885.215,1240.33 886.3,1249.29 891.39,1254.14C896.546,1259.05 908.653,1264.07 917.906,1262.98C974.373,1256.35 1174.22,1227.38 1230.19,1214.37C1242.44,1211.52 1251.3,1197.24 1253.76,1184.91C1256.46,1171.41 1255.81,1147.94 1246.4,1133.35C1236.58,1118.13 1216.04,1088.94 1194.84,1093.58Z" style="fill:none;stroke:rgb(68,169,204);stroke-width:13.33px;"/>
            </g>
            <g transform="matrix(1,0,0,1,-127.384,1321.75)">
                <path d="M1189.23,1094.92C1171.54,1114.31 1162.18,1157.42 1180.11,1179.02C1192.47,1193.9 1215.66,1206.57 1227.25,1212.9" style="fill:none;stroke:rgb(68,169,204);stroke-width:13.33px;"/>
            </g>
            <g transform="matrix(1,0,0,1,-127.384,1321.75)">
                <path d="M1331.84,1125.99C1265.55,1142.19 1199.26,1158.39 1132.97,1174.6" style="fill:none;stroke:rgb(68,169,204);stroke-width:13.33px;"/>
            </g>
            <g transform="matrix(1.17631,0,0,1.17631,-155.107,-280.027)">
                <circle cx="740.498" cy="1330.67" r="111.4" style="fill:rgb(128,128,128);stroke:rgb(235,235,235);stroke-width:11.33px;"/>
            </g>
            <g transform="matrix(1.10569,0,0,1,-150.924,0)">
                <path d="M1428.01,1930.86L2136.91,1930.86" style="fill:none;stroke:rgb(128,128,128);stroke-width:12.64px;stroke-dasharray:37.92,37.92,0,0;"/>
            </g>
            <g transform="matrix(1.10569,0,0,1,-150.924,-679.755)">
                <path d="M1428.01,1930.86L2136.91,1930.86" style="fill:none;stroke:rgb(128,128,128);stroke-width:12.64px;stroke-dasharray:37.92,37.92,0,0;"/>
            </g>
        </g>
    </g>
</svg>
